<svg xmlns="http://www.w3.org/2000/svg" width="13" height="13" viewBox="0 0 13 13">
  <g id="Copy" transform="translate(-27.8 -31.4)">
    <g id="Group_864" data-name="Group 864" transform="translate(28.8 31.4)">
      <path id="Path_836" data-name="Path 836" d="M37.367,31.987v.587H45.2a.277.277,0,0,1,.293.293V40.7a.277.277,0,0,1-.293.293H37.367a.277.277,0,0,1-.293-.293V32.867a.277.277,0,0,1,.293-.293V31.4A1.453,1.453,0,0,0,35.9,32.867V40.7a1.453,1.453,0,0,0,1.467,1.467H45.2A1.453,1.453,0,0,0,46.667,40.7V32.867A1.453,1.453,0,0,0,45.2,31.4H37.367Z" transform="translate(-34.667 -31.4)" fill="#a2a2a2"/>
      <path id="Path_837" data-name="Path 837" d="M38.188,50.031H30.179a.2.2,0,0,1-.205-.205V41.787a.587.587,0,0,0-1.174,0V49.8a1.377,1.377,0,0,0,1.379,1.379h8.009a.572.572,0,1,0,0-1.144Z" transform="translate(-29.8 -38.175)" fill="#a2a2a2"/>
    </g>
  </g>
</svg>
