<svg xmlns="http://www.w3.org/2000/svg" width="90" height="90" viewBox="0 0 90 90">
  <g id="Group_689" data-name="Group 689" transform="translate(-1595 -1986)">
    <g id="Group_677" data-name="Group 677" transform="translate(1595 1986)">
      <g id="Ellipse_41" data-name="Ellipse 41" fill="none" stroke="#04c9f2" stroke-width="2">
        <circle cx="45" cy="45" r="45" stroke="none"/>
        <circle cx="45" cy="45" r="44" fill="none"/>
      </g>
      <circle id="Ellipse_40" data-name="Ellipse 40" cx="35" cy="35" r="35" transform="translate(10 10)" fill="#04c9f2"/>
    </g>
    <g id="noun-affiliate-marketing-4327864" transform="translate(1619.147 2011.159)">
      <path id="Path_144" data-name="Path 144" d="M273.23,174.148a3.021,3.021,0,0,0-3-2.74h-.475a3.027,3.027,0,1,0-3.759,0h-.475a3.031,3.031,0,0,0-3.027,3.027V181.5a.673.673,0,0,0,.673.673H269.3a4.709,4.709,0,1,0,3.934-8.023Zm-5.353-6.777a1.682,1.682,0,1,1-1.189.493A1.682,1.682,0,0,1,267.877,167.371Zm-4.036,13.455v-6.391a1.682,1.682,0,0,1,1.682-1.682h4.709a1.681,1.681,0,0,1,1.654,1.4,4.691,4.691,0,0,0-3.547,6.669Zm8.745,1.345a3.367,3.367,0,1,1,2.377-.986A3.365,3.365,0,0,1,272.586,182.171Z" transform="translate(-248.368 -153.899)" fill="#fff" stroke="#fff" stroke-width="0.5"/>
      <path id="Path_145" data-name="Path 145" d="M371.545,296.787h.577a.192.192,0,0,1,.192.192h1.345a1.536,1.536,0,0,0-1.153-1.483v-.538h-1.345v.538a1.535,1.535,0,0,0,.384,3.021h.577a.192.192,0,0,1,0,.384h-.577a.192.192,0,0,1-.192-.192h-1.345a1.536,1.536,0,0,0,1.153,1.483v.538h1.345v-.538a1.535,1.535,0,0,0-.384-3.021h-.577a.192.192,0,0,1,0-.384Z" transform="translate(-347.615 -272.935)" fill="#fff" stroke="#fff" stroke-width="0.5"/>
      <path id="Path_146" data-name="Path 146" d="M180.377,96.25a14.143,14.143,0,1,0,9.985,4.142,14.126,14.126,0,0,0-9.985-4.142Zm0,26.909a12.8,12.8,0,1,1,9.034-3.748,12.779,12.779,0,0,1-9.034,3.748Z" transform="translate(-159.523 -89.505)" fill="#fff" stroke="#fff" stroke-width="0.5"/>
      <path id="Path_147" data-name="Path 147" d="M81.208,211.389a19.61,19.61,0,0,1-.217-12.356l-1.284-.4a20.965,20.965,0,0,0,.232,13.208Z" transform="translate(-78.752 -184.014)" fill="#fff" stroke="#fff" stroke-width="0.5"/>
      <path id="Path_148" data-name="Path 148" d="M224.8,502.418a19.5,19.5,0,0,1-9.755-2.609l-.673,1.164a20.88,20.88,0,0,0,20.84.01l-.673-1.165a19.51,19.51,0,0,1-9.74,2.6Z" transform="translate(-203.943 -462.037)" fill="#fff" stroke="#fff" stroke-width="0.5"/>
      <path id="Path_149" data-name="Path 149" d="M589.53,199.032a19.611,19.611,0,0,1-.217,12.356l1.269.448a20.965,20.965,0,0,0,.232-13.208Z" transform="translate(-550.06 -184.012)" fill="#fff" stroke="#fff" stroke-width="0.5"/>
      <path id="Path_150" data-name="Path 150" d="M206.052,13.1a19.53,19.53,0,0,1,20.809,0l.718-1.137h0a20.869,20.869,0,0,0-22.245,0Z" transform="translate(-195.602 -8.732)" fill="#fff" stroke="#fff" stroke-width="0.5"/>
      <path id="Path_151" data-name="Path 151" d="M79.422,20.65h6.727a.673.673,0,0,0,.673-.673V15.941A2.686,2.686,0,0,0,84.5,13.288a2.691,2.691,0,1,0-3.431,0,2.686,2.686,0,0,0-2.321,2.653v4.036a.673.673,0,0,0,.673.673ZM82.785,9.887a1.345,1.345,0,1,1-.951.394A1.346,1.346,0,0,1,82.785,9.887Zm-2.691,6.055A1.345,1.345,0,0,1,81.44,14.6h2.691a1.345,1.345,0,0,1,1.345,1.345V19.3H80.094Z" transform="translate(-78.749 -8.524)" fill="#fff" stroke="#fff" stroke-width="0.5"/>
      <path id="Path_152" data-name="Path 152" d="M522,13.287a2.691,2.691,0,1,0-3.431,0,2.686,2.686,0,0,0-2.321,2.653v4.036a.673.673,0,0,0,.673.673h6.727a.673.673,0,0,0,.673-.673V15.94A2.687,2.687,0,0,0,522,13.287Zm-1.715-3.4a1.345,1.345,0,1,1-.951.394A1.346,1.346,0,0,1,520.283,9.886Zm2.691,9.418h-5.382V15.94a1.345,1.345,0,0,1,1.345-1.345h2.691a1.345,1.345,0,0,1,1.345,1.345Z" transform="translate(-482.61 -8.523)" fill="#fff" stroke="#fff" stroke-width="0.5"/>
      <path id="Path_153" data-name="Path 153" d="M79.422,405.65h6.727a.673.673,0,0,0,.673-.673v-4.036a2.686,2.686,0,0,0-2.321-2.653,2.691,2.691,0,1,0-3.431,0,2.686,2.686,0,0,0-2.321,2.653v4.036a.673.673,0,0,0,.673.673Zm3.364-10.764a1.345,1.345,0,1,1-.951.394A1.346,1.346,0,0,1,82.785,394.887Zm-2.691,6.055A1.345,1.345,0,0,1,81.44,399.6h2.691a1.345,1.345,0,0,1,1.345,1.345V404.3H80.094Z" transform="translate(-78.749 -363.924)" fill="#fff" stroke="#fff" stroke-width="0.5"/>
      <path id="Path_154" data-name="Path 154" d="M522,398.289a2.691,2.691,0,1,0-3.431,0,2.686,2.686,0,0,0-2.321,2.653v4.036a.673.673,0,0,0,.673.673h6.727a.673.673,0,0,0,.673-.673v-4.036A2.687,2.687,0,0,0,522,398.289Zm-1.715-3.4a1.345,1.345,0,1,1-.951.394A1.346,1.346,0,0,1,520.283,394.888Zm2.691,9.418h-5.382v-3.364a1.345,1.345,0,0,1,1.345-1.345h2.691a1.345,1.345,0,0,1,1.345,1.345Z" transform="translate(-482.61 -363.925)" fill="#fff" stroke="#fff" stroke-width="0.5"/>
    </g>
  </g>
</svg>
