<svg xmlns="http://www.w3.org/2000/svg" width="90" height="90" viewBox="0 0 90 90">
  <g id="Group_685" data-name="Group 685" transform="translate(-490 -1986)">
    <g id="Group_673" data-name="Group 673" transform="translate(490 1986)">
      <g id="Ellipse_41" data-name="Ellipse 41" fill="none" stroke="#04c9f2" stroke-width="2">
        <circle cx="45" cy="45" r="45" stroke="none"/>
        <circle cx="45" cy="45" r="44" fill="none"/>
      </g>
      <circle id="Ellipse_40" data-name="Ellipse 40" cx="35" cy="35" r="35" transform="translate(10 10)" fill="#04c9f2"/>
    </g>
    <g id="noun-funding-2595626" transform="translate(513.73 2009.934)">
      <path id="Path_141" data-name="Path 141" d="M115.79,309.681c-.086-.138-1.978-3.166-6.878-1.973a48.284,48.284,0,0,0-6.577,2.018,2.554,2.554,0,0,0-2.321-2.294L82.046,303.67v-1.1a.7.7,0,0,0-.688-.734H74.051a.7.7,0,0,0-.688.734v15a.7.7,0,0,0,.688.734h7.308a.7.7,0,0,0,.688-.734v-1.56c2.751,1.147,10.575,4.358,14.658,4.358,4.943,0,18.312-9.267,18.871-9.635a.8.8,0,0,0,.214-1.055Zm-41.052,7.157V303.3h5.932v13.488H74.739ZM96.7,318.856c-4.084,0-12.638-3.579-14.658-4.45V305.23l17.839,3.716a1.149,1.149,0,0,1,0,2.294H89.87a.736.736,0,0,0,0,1.468H99.885a2.429,2.429,0,0,0,2.063-1.239,48.062,48.062,0,0,1,7.265-2.294c2.665-.642,4.213.183,4.9.78-2.837,1.881-13.455,8.9-17.409,8.9Z" transform="translate(-73.363 -281.511)" fill="#fff" stroke="#fff" stroke-width="1"/>
      <path id="Path_142" data-name="Path 142" d="M406.5,84.62a.642.642,0,0,0,1.285,0,3.286,3.286,0,0,0-3.074-3.166v-.734a.642.642,0,1,0-1.285,0v.734a3.265,3.265,0,0,0-2.156.964,3.188,3.188,0,0,0-.872,2.156,3.334,3.334,0,0,0,.78,2.294,3.476,3.476,0,0,0,2.294,1.055v3.946a1.9,1.9,0,0,1-1.743-1.835.642.642,0,0,0-1.285,0,3.286,3.286,0,0,0,3.074,3.166v.734a.642.642,0,0,0,1.285,0V93.2a3.265,3.265,0,0,0,2.156-.964,3.188,3.188,0,0,0,.872-2.156,3.334,3.334,0,0,0-.78-2.294,3.476,3.476,0,0,0-2.294-1.055V82.785A1.983,1.983,0,0,1,406.5,84.62Zm-3.074,2.019a2.112,2.112,0,0,1-1.285-.6,1.837,1.837,0,0,1-.413-1.33V84.62a2.093,2.093,0,0,1,.5-1.285,2.222,2.222,0,0,1,1.239-.55v3.854Zm2.615,2.019a1.838,1.838,0,0,1,.413,1.33v.092a2.093,2.093,0,0,1-.5,1.285,2.222,2.222,0,0,1-1.239.55V88.061A2.123,2.123,0,0,1,406.037,88.658Z" transform="translate(-375.621 -75.307)" fill="#fff" stroke="#fff" stroke-width="1"/>
      <path id="Path_143" data-name="Path 143" d="M311.528,45.789A11.974,11.974,0,1,1,323.5,33.814,11.973,11.973,0,0,1,311.528,45.789Zm0-22.48A10.506,10.506,0,1,0,322.08,33.814,10.6,10.6,0,0,0,311.528,23.308Z" transform="translate(-283.928 -21.84)" fill="#fff" stroke="#fff" stroke-width="1"/>
    </g>
  </g>
</svg>
