<svg xmlns="http://www.w3.org/2000/svg" width="165.16" height="146.474" viewBox="0 0 165.16 146.474">
  <g id="Group_683" data-name="Group 683" transform="translate(-1506 -1543.98)">
    <path id="Path_436" data-name="Path 436" d="M29.036,34.592A15.365,15.365,0,1,1,44.4,19.229,15.383,15.383,0,0,1,29.036,34.592" transform="translate(1562.792 1553.809)" fill="#fff" stroke="#ffdb0a" stroke-width="4"/>
    <path id="Path_438" data-name="Path 438" d="M11.75,46.258V27.881a16.359,16.359,0,0,1,16.345-16.34h18a16.359,16.359,0,0,1,16.345,16.34V46.258Z" transform="translate(1554.736 1586.051)" fill="#fff" stroke="#ffdb0a" stroke-width="4"/>
    <line id="Line_2" data-name="Line 2" y2="30.451" transform="translate(1580.852 1598.6)" fill="none" stroke="#ffdb0a" stroke-width="4"/>
    <line id="Line_4" data-name="Line 4" y2="30.451" transform="translate(1600.811 1598.6)" fill="none" stroke="#ffdb0a" stroke-width="4"/>
    <line id="Line_6" data-name="Line 6" x2="19.958" transform="translate(1580.852 1613.979)" fill="none" stroke="#ffdb09" stroke-width="4"/>
    <rect id="Rectangle_471" data-name="Rectangle 471" width="161.16" height="57.186" transform="translate(1508 1631.269)" fill="none" stroke="#ff6142" stroke-width="4"/>
    <path id="Rectangle_473" data-name="Rectangle 473" d="M.369,0H30.822a.37.37,0,0,1,.37.37V15.227a.369.369,0,0,1-.369.369H.369A.369.369,0,0,1,0,15.227V.369A.369.369,0,0,1,.369,0Z" transform="translate(1513.196 1614.86)" fill="none" stroke="#ff6142" stroke-width="4"/>
    <path id="Path_442" data-name="Path 442" d="M20.376,25.459H3.424A1.921,1.921,0,0,1,1.5,23.541V11.781A1.921,1.921,0,0,1,3.424,9.863H20.376a1.917,1.917,0,0,1,1.918,1.918V23.541A1.917,1.917,0,0,1,20.376,25.459Z" transform="translate(1511.698 1579.005)" fill="none" stroke="#ff6142" stroke-width="4"/>
    <line id="Line_8" data-name="Line 8" y1="8.853" transform="translate(1523.596 1605.392)" fill="none" stroke="#ff6142" stroke-width="4"/>
    <g id="Group_600" data-name="Group 600" transform="translate(1623.907 1543.98)">
      <path id="Path_443" data-name="Path 443" d="M35.96,13.924H23.049V.843H35.96ZM34.266,2.543H24.755v9.686h9.511Z" transform="translate(-18.464 3.917)" fill="#04c9f2"/>
      <path id="Path_444" data-name="Path 444" d="M40.413,13.924H27.5V.843H40.413Zm-1.7-11.381H29.2v9.686h9.511Z" transform="translate(2.234 3.917)" fill="#04c9f2"/>
      <path id="Path_445" data-name="Path 445" d="M35.96,18.146H23.049V5.235H35.96ZM34.266,6.929H24.755v9.511h9.511Z" transform="translate(-18.464 24.331)" fill="#04c9f2"/>
      <path id="Path_466" data-name="Path 466" d="M35.96,18.146H23.049V5.235H35.96ZM34.266,6.929H24.755v9.511h9.511Z" transform="translate(6.687 24.331)" fill="#04c9f2"/>
      <rect id="Rectangle_488" data-name="Rectangle 488" width="5.778" height="5.439" transform="translate(8.155 8.491)" fill="#04c9f2"/>
      <rect id="Rectangle_489" data-name="Rectangle 489" width="5.778" height="5.439" transform="translate(33.3 8.491)" fill="#04c9f2"/>
      <rect id="Rectangle_490" data-name="Rectangle 490" width="5.778" height="5.439" transform="translate(8.155 33.297)" fill="#04c9f2"/>
      <rect id="Rectangle_491" data-name="Rectangle 491" width="5.778" height="5.439" transform="translate(33.305 33.297)" fill="#04c9f2"/>
      <path id="Path_462" data-name="Path 462" d="M22.237,9V0H31.41V1.7H23.937V9Z" transform="translate(-22.237 0)" fill="#04c9f2"/>
      <path id="Path_463" data-name="Path 463" d="M38.148,9V0H28.976V1.7h7.472V9Z" transform="translate(9.084 0)" fill="#04c9f2"/>
      <path id="Path_464" data-name="Path 464" d="M22.237,6.768v9H31.41v-1.7H23.937v-7.3Z" transform="translate(-22.237 31.458)" fill="#04c9f2"/>
      <path id="Path_465" data-name="Path 465" d="M38.148,6.768v9H28.976v-1.7h7.472v-7.3Z" transform="translate(9.084 31.458)" fill="#04c9f2"/>
    </g>
  </g>
</svg>
