<svg xmlns="http://www.w3.org/2000/svg" width="721.708" height="442.352" viewBox="0 0 721.708 442.352">
  <g id="Group_679" data-name="Group 679" transform="translate(-982.292 -166)">
    <g id="Map" transform="translate(982.34 252.639)">
      <path id="Path_601" data-name="Path 601" d="M170.513,156.355a3.3,3.3,0,0,1,2.787.361.439.439,0,0,0,.155.077c.71.361.89-.348,2.49-.89s4.193.452,4.193-.8-4.283-2.58-5.354-2.219a2.129,2.129,0,0,1-1.084-.065c-1.135-.3-2.58-1.019-3.187-.568-.89.632,1.29,1.961,1.29,2.761s-3.574-.142-3.87.722c-.168.439,1.29,1.058,2.58.619" transform="translate(20.656 37.197)" fill="#fff"/>
      <path id="Path_602" data-name="Path 602" d="M244.227,290.338v0m.219-.348a1.294,1.294,0,0,0-.116.168.659.659,0,0,1,.116-.168m-12.2-18.345h0m-.129,0a.49.49,0,0,0-.258.1.49.49,0,0,1,.258-.1m-6.27,1.071h0m-.761.555h0m-16.436-45.528a.348.348,0,0,1,0,.168.349.349,0,0,0,0-.168m-.245-.4.129.206-.129-.206m.077.98a.632.632,0,0,0,.206-.271.632.632,0,0,1-.206.271M208,226.89a1.545,1.545,0,0,1,.142.155l-.232-.258.09.1m39.3-4.193a2.635,2.635,0,0,1-.581-.129h0l.516.116m.49,0a.71.71,0,0,1-.413,0,.71.71,0,0,0,.413,0m-1.677,65.409c0,.077-.116.142-.168.206a1.9,1.9,0,0,0,.168-.206m-.426.516-.271.3.271-.3m-.387.426-.542.581.542-.581m-.581.632c0,.065-.116.129-.168.206s.116-.142.168-.206m-11.546-17.958a2.823,2.823,0,0,0-.464,0,2.823,2.823,0,0,1,.464,0m1.1.1h0m4.051-54.843a.374.374,0,0,1-.181.1.374.374,0,0,0,.181-.1m.5-.826h0m.116-.116h0m.194-.09a.9.9,0,0,1,.271,0,.9.9,0,0,0-.271,0m-.748.942.065-.077-.065.077m7.238,5.6h0m.684,0h0m-.361,0h0m5.16,53.552a.439.439,0,0,0-.194-.232.439.439,0,0,1,.193.232m.335-53.965.168.077-.168-.077m.516.142h0m-.813,54.688a2.389,2.389,0,0,0,0-.3,2.4,2.4,0,0,1,0,.3m-.09.581v0m-.155.8.116-.581-.116.581m-.1.542a2.882,2.882,0,0,1,0-.3,2.881,2.881,0,0,0,0,.3m0,.477v0m.348-57.5.142.129-.142-.129m.09,54.61a1.4,1.4,0,0,0,0-.245,1.393,1.393,0,0,1,0,.245m-6.992-10.321a1.214,1.214,0,0,1-.129.3,1.214,1.214,0,0,0,.129-.3m-.516.735h0a.619.619,0,0,1-.335.116.658.658,0,0,0,.348-.116m.593-1.368a1.29,1.29,0,0,1,0,.49,1.29,1.29,0,0,0,0-.49m-.5,1.29.206-.206-.206.206m-20.487-43.864h0m1.045,50.779h0m.348-.155h0m-.7.232h0m-2.941-10.489a4.035,4.035,0,0,1-.335-.323,4.035,4.035,0,0,0,.335.323m-.568-.645a1.56,1.56,0,0,0,.181.258,1.56,1.56,0,0,1-.181-.258m-.426-13.882h0m-.658,0h0m0-13.83c-.361,0-.7-.206-1.109-.142.413,0,.748.168,1.109.142m-1.135-.129h0m-.232.077a.98.98,0,0,0-.258.168.98.98,0,0,1,.258-.168m3.251,14.075a3.866,3.866,0,0,0-.658-.155,3.866,3.866,0,0,1,.658.155m2.58-26.2h0m.568-.206h0M224.992,222.246Zm-45.27-32.382h0m.606,0h0m-1.742,0h0m0,0h0m2.413,0h0m-.258,0h0m.142,6.051h0m.194-.258-17.081-23a.9.9,0,0,0-.387-.077.9.9,0,0,1,.387.077m124.47,64.17c-.89,0-2.58-.181-4.812-2.58a5.444,5.444,0,0,0-5.883-1.832,4.5,4.5,0,0,1-3.032-.593c-.851-.413-1.806-.606-2.658-1.032A21.827,21.827,0,0,1,270,229.225a8.4,8.4,0,0,0-2.464-1.006l-3.5-1.019a4.154,4.154,0,0,1-2.464-1.419,8.865,8.865,0,0,1-.632-1.755c-.5-1.29-2.116-1.651-2.58-2.993-.284-.8-.194-2.658-1.071-3.1s-2.129-2.413-3.432-2.683c-1.109-.232-2.129-.8-3.238-1.1s-2.58-.348-3.87-.71a12.9,12.9,0,0,1-4.283-2.774c-1.1-.839-2.193-1.7-3.277-2.58a9.7,9.7,0,0,0-6.631-2.309,12.8,12.8,0,0,1-1.858.09,8.166,8.166,0,0,1-1.987-.5l-5.16-1.767a8.14,8.14,0,0,0-4.941-.593,4.09,4.09,0,0,0-2.477,2.193c-.194.426-.4.955-.864,1.019s-.839-.516-1.148-.942c-1.587-2.116-4.786-.839-6.3.658-.568.568-.71,1.471-1.29,2.025-1.677,1.5-3.974-.387-5.612-1.109-.8-.361-1.819.129-2.851,1.071a2.684,2.684,0,0,1-3.212-.09,5.006,5.006,0,0,1-1.032-.929,26.869,26.869,0,0,1-1.987-2.477,4.887,4.887,0,0,1-.271-.426c-.31-.581.219-1.742.49-2.58s-.232-2.89.258-3.419.232-.851.452-2.1a.969.969,0,0,0,0-.193c0-.98-1.29-.671-2.232-1.587-2.013-2.025-6.863,1.38-7.741-3.083a5.38,5.38,0,0,1,.581-3.109,9.341,9.341,0,0,0,.942-3.058,2.58,2.58,0,0,0-1.5-2.58,3.729,3.729,0,0,0-1.767,0,6,6,0,0,0-3.47,1.406c-1.084,1.148-1.135,3.045-2.322,4.09a5.457,5.457,0,0,1-4.051.774c-5.818-.452-7.6-9.727-7.379-14.462a10.321,10.321,0,0,1,1.471-5.289c2.206-3.328,6.683-4.115,10.643-4.606l6.3-.774c3.122-.387,6.657-.645,9.031,1.445,1.29,1.1,3.045,7.134,4,7.379.71.181,1.29,1.29,1.368,1.742s1.432,1.019,1.522.258.8-1.638.89-2.361a9.534,9.534,0,0,0-1.109-4.051c-.581-.8.129-.98-.581-1.909A6.786,6.786,0,0,1,196.248,162a8.347,8.347,0,0,1,2.374-4.18c.748-.671,1.6-.31,1.78-1.032.413-1.638,2.671-2.142,3.87-3.006a7.65,7.65,0,0,0,3.354-4.193c.206-.748.232-1.535.413-2.3,1.045-4.683,6.592-6.8,9.031-10.889.748-1.29,1.213-2.658,2.077-3.87a6.85,6.85,0,0,1,2.941-2.258c1.393-.542,4.773-3.367,6.141-2.064a8.233,8.233,0,0,0,.658.684,2.271,2.271,0,0,0,1.213.31l1.7.116a3.2,3.2,0,0,0,1.445-.142,1.6,1.6,0,0,0,.929-1.5c-.1-1.755-3.793-1.69-3.961-3.393-.09-.839-1.071-1.109-.271-2.038s-.142-1.38-.89-.671-1.213-.4-.181-.8,2.954-1.019,1.961-2.58c-.684-1.084-4.077-.348-3.122-2.374,1.084-2.309,8.889-1.29,11.237-1.161a5.935,5.935,0,0,0,3.6-2.219c.581-.89,1.29-.89,2.774-.8s2.09-1.213,2.8-1.7.452-.71-.181-.839a1.29,1.29,0,0,1-.839-.477,1.019,1.019,0,0,0,.542-1.871c-.49-.4-1.161-.529-1.677-.89-1.148-.8-1.29-2.49-2.387-3.393a6.258,6.258,0,0,0-1.509-.8,23.673,23.673,0,0,1-4.541-2.941,4.386,4.386,0,0,1-1.29-1.213,6.3,6.3,0,0,1-.477-2.787,7.96,7.96,0,0,0-4.993-6.657,1.651,1.651,0,0,0-1.161-.116c-.555.219-.748.877-1.019,1.419a3.87,3.87,0,0,1-6.85,0c-.632-1.29-.593-2.825-1.5-3.87s-2.941-1.522-4.27-2.387c-1.045-.671-1.393-1.574-2.193-2.425a2.322,2.322,0,0,0-2.671-.813c-.542.129-.98.568-1.535.581s-1.109-.671-1.561-.323-.49-.219-1.6-.529-2.58-.4-2.671,0-.98.529-.851,1.471,1.071.748,1.29,1.38-.877,2.051-.851,2.864c.064,1.29,1.006,2.58.323,3.935s-2.219,1.613-2.387,2.877c-.181,1.471,1.716,2.167,2.8,3.2a3.483,3.483,0,0,1-1.626,5.909c-.8.181-1.716.1-2.348.632a2.206,2.206,0,0,0-.49,2.374,14.192,14.192,0,0,0,1.187,2.284,4.18,4.18,0,0,1,.5,3.07,2.258,2.258,0,0,1-2.322,1.793,3.006,3.006,0,0,1-1.29-.658,7.741,7.741,0,0,1-2.58-4.141,10.231,10.231,0,0,0-1.071-3.664c-1.29-1.806-3.87-1.729-6.038-2.271a18.229,18.229,0,0,1-3.793-1.613l-5.56-2.89c-2.064-1.058-4.141-1.987-5.457-3.87-.864-1.29-2.219-1.613-2.9-3.058a6.36,6.36,0,0,1,.193-5.431c1.29-2.451,3.638-4.09,5.922-5.612l5.805-3.87a6.554,6.554,0,0,0,2.284-2.116c.864-1.535.71-3.78,2.787-4.219-.31-.542-.877-.555-1.368-.968s.851-.671,1.561-.671,1.019.632,1.29.942,1.522-.219,2.142-.219-.09-1.032-1.109-1.432,0-1.161.348-.529,1.032.49,1.38,1.2c.529,1.045.851.361,1.742,0a4.18,4.18,0,0,0,1.806-1.355c.49-.529.581.09,1.148-.748s-.258-1.651-.98-2.193,0-1.058-.658-1.419-.851-1.032,0-.851a1.806,1.806,0,0,0,2-.71c.413-.619-1.29-.761-.529-1.2s.129-.89-.671-.89-1.471-.4-1.509-1.071-1.432-.232-2.271-.632a8.089,8.089,0,0,0-3.174-.258c-.439,0-.49,1.871.181,1.909s1.2.761.632.98.09.942-.361.89-1.161-.258-1.29.89-.232,1.613-.98,2.013-.181-1.29-.89-1.29-.8,1.432-.271,1.561.619.581.761,1.29-.98.168-1.432.98-.49-.361-1.109-.89-1.38-1.432-1.29-2.1a.89.89,0,0,1,.851-.89c.49-.09,0-.529,0-1.29s-.619-.542-1.29-1.393-1.471-.839-1.871-.439-.142,1.161-.761,1.419-.361,1.522-.89,1.613-.219-2.193-.671-2.413-.4-.748.271-.839,1.071-.813.49-.813a6.7,6.7,0,0,1-2.013-.8c-.4-.181-1.071.761-1.509.4s0-1.29.09-1.729.71.219,1.161-.4-1.29-.632-1.29-1.29-1.29-.839-1.78-1.071.31-1.29.09-1.78-1.884-1.909-2.58-1.78-.89-.929-.49-.89.71-.219,1.471-1.071.851-1.109.31-1.29-.8-.71.142-.671,2.58.671,3.122.271a39.247,39.247,0,0,0,2.89-3.974c.671-.929-.49-1.019-2.09-.89s-1.961-.619-3.3-.71a9.3,9.3,0,0,0-4.193.671c-.348.4.671.761.542,1.2s-.942-.31-1.29-.129.129.761,0,2.309a2.206,2.206,0,0,0,.748,2.232c.452.581.361,1.29.361,2.322s-.942.929-1.29,1.161.8.568.632,1.2-1.122-.361-1.651-.181-.98,1.69-.4,2.18.8.4.348.98-.929,1.432.142,2.271,3.032.761,4.051,1.432-.439.271,0,1.019-.671,1.032-.632,1.613.452.271.98-.722.942.271.89,1.122-.8.348-1.38,1.2a1.613,1.613,0,0,1-1.961.8c-.839-.168-.348,1.213,0,1.961s-.09,1.032-1.071.761-1.561-.89-1.071-1.651.851-1.651.271-1.561-1.909,0-2.309-.658.258-.361,1.471-.232.168-.8,1.058-.8,1.561.49,2.322-.181-.49-1.961-1.109-1.729-1.613.49-1.613-.142,1.071-.181,1.651-.31-.31-.942-1.2-.71a1.961,1.961,0,0,1-2.232-.49c-.71-.761-2-1.213-2.309.529s-1.561.8-2.051,1.38.581.98,1.78,1.032,2.09,1.148,1.509,1.148-.31.851-.929.542-1.29,0-.8.529-.181.761-.142,1.29-.929,0-1.871,0a16.333,16.333,0,0,0-3.87.49,3.677,3.677,0,0,1-3.161-.761c-.542-.568-1.29-.49-2.142-.49s-.619-.839-1.78-.89-.89-1.019-1.019-1.6-2.451-.4-3.3.129-2.5.323-2.941,1.29.4.839.89.839c.684,0,.619-.8,1.871-.619s2.142-1.29,2.671-.761-2.142,1.561-3.29,1.742-.89,1.109.219,2.761-.49.71-.49,1.509-2.09-.258-1.29-.529.452-1.122-.219-1.651-1.109,0-1.019-.581-.722,0-1.29-.439-.942-.89-1.78-.452-1.832.31-3.7.632-5.3.219-5.922-.413,1.6-1.729,2.271-1.548.258-.722-.761-1.522-3.3-1.29-3.251-.8-1.29,0-2.941-.271-1.871-.89-2.941-.929c-2.038-.09-3.316-1.419-5.16-1.845a47.2,47.2,0,0,0-6.683-.542,106.09,106.09,0,0,0-13.314.181,20.977,20.977,0,0,0-6.076.955,28.383,28.383,0,0,1-3.87,1.535c-2.335.5-3.5-.774-5.522-1.393a22.757,22.757,0,0,0-4.309-.323,4.089,4.089,0,0,1-.864-.181c-1.29-.49-3.212-1.38-4.232-1.161a8.5,8.5,0,0,1-3.793.129,5.006,5.006,0,0,0-3.161-.439c-1.471.219-2.4-.813-4.27-1.29s-3.948.168-5.909,0a36.858,36.858,0,0,1-7.87-1.987A11.611,11.611,0,0,0,43,49.926a8.321,8.321,0,0,0-2.761.284,22.229,22.229,0,0,0-8.592,4.128c-1.29,1.045-1.587,3.019-2.58,3.87s-2.722.464-3.87.464c-.671,0-.181.748-.529,1.29s.4.929,2.219,1.419c1.419.374,1.755,1.626,2.787,2.387S31.8,64.8,32.753,65.523a1.574,1.574,0,0,1,.684.877,1.019,1.019,0,0,1-.632,1.006,3.148,3.148,0,0,1-1.29.206c-2.4,0-6.451-.671-8.605.7-2.709,1.716-.219,2.335,1.587,2.7.877.181-1.071.761-.361.98s.4.89,1.509,1.471c2.451,0,4.825-.31,7.354-.3a2.322,2.322,0,0,1,1.393.3,1.548,1.548,0,0,1,.581,1.084c.194,1.69-1.535,3.006-3.187,3.406s-3.457.323-4.967,1.122a4.9,4.9,0,0,0-1.445,7.121c1.445,1.793,3.87,2.258,5.973,3.328a26.523,26.523,0,0,0,3.161,1.69,12.811,12.811,0,0,0,5.47.258,19.354,19.354,0,0,1,3.457-.71c2.18,1.29-2.58,3.87-.658,5.251,2.761,2.025,9.985-5.16,12.385-6.205,6.786-2.877,14.72-4.257,21.6-.787a27.918,27.918,0,0,1,9.74,7.573c1.767,2.232,3.225,4.812,5.625,6.334s5.831,1.961,7.431,4.4a14.811,14.811,0,0,1,1.29,4.025,10.837,10.837,0,0,0,2.709,4.619c1.161,1.019,2.58,1.019,3.561,2.361.31.4,1.019,0,1.019.439s.71.684.89,1.135a.722.722,0,0,1,0,.155,5.612,5.612,0,0,0,1.019,2.683c.71.929.219,1.509.89,1.871s.632.761,0,.671-.181.49-.4,1.819-.181,4.1-.31,4.954c-.271,1.677-.645,2.051-.206,3.7a22.925,22.925,0,0,1,.942,4.167c.374,4.464,2.245,7.741,5.006,11.159l11.7,14.746c2.1,2.645,4.335,5.393,7.418,6.773.361-1.961-1.406-5.16-3.07-6.283-.4-.271.581-.671.219-1.071-.671-.761-2.993-.684-3.122-2.038-.181-1.987,2.309-1.148,2.954-.129.413.645.632,1.38.993,2.051,1.006,1.832,2.98,2.9,4.386,4.438s2.013,3.058,3.109,4.528c2.271,3.032,5.9,5.07,7.328,8.579.452,1.071-.555,4.051,1.38,4.232.98.09,2.09,1.29,2.89,1.961s2.013.529,3.212.98,2.232,1.509,3.974,2a18.243,18.243,0,0,1,4.541,1.961c1.109.722,2.49.413,4.051-.219a4.451,4.451,0,0,1,3.664.542,11.07,11.07,0,0,1,2.154,1.677c.89.787,1.78,1.613,2.206,1.884.851.529,2.232,0,2.812.49h.065c1.161.916,2.58.761,3.87,1.29a9.508,9.508,0,0,1,4.051,3.741,27.776,27.776,0,0,0,9.031,7.741c.684.374,1.651.658,2.116,0,.181-.232.219-.555.387-.813.542-.89,1.935-.464,2.722.219,1.871,1.626,4.038,6.218,3.561,8.708-.413,2.1-2,1.845-3.393,3.1-2.193,1.948-3.47,5.6-4.27,8.334a10.837,10.837,0,0,0-.555,4.7,8.941,8.941,0,0,0,.942,2.735c1.484,2.9,3.638,4.941,4.89,7.986a32.058,32.058,0,0,0,3.109,5.935c.98,1.29,1.432,2.232,1.213,2.58a1.678,1.678,0,0,0,.761,1.832,15.74,15.74,0,0,0,3.161,2.232c1.871.929,5.3,2.709,5.793,3.561a7.3,7.3,0,0,0,2.4,1.832c.09,0,.116.181.116.374a5.665,5.665,0,0,0,0,1.806c.877,2.206.077,5.277-.142,7.521-.413,4.244-1.135,8.476-1.755,12.708-1.29,9.031-2.451,18.062-3.083,27.157a36.78,36.78,0,0,1-1.174,8.321c-.877,2.877-2.516,5.522-3.019,8.489a15.6,15.6,0,0,0,.645,7.134c.193.645.452,1.29.619,1.948s.155,2.129.813,2.735c.361.323.942.258,1.38.439a14.727,14.727,0,0,1,1.445,1.135c.529.348.955.361,1.29.722s.232.555.452.761c.606.593,1.729.8,2.309,1.471.787.916.142,2.335.877,3.29a2.8,2.8,0,0,0,1.445.851c.581.181,3.728,1.226,3.935.439,0-.193.181-.181.335-.129s.645.3.916,0,1.78-.219,2.5-.671-.232-.581-1.29-.619-2.348-1.29-3.2-1.9a7.392,7.392,0,0,1-2.09-3.445l-.89-2.258a4.373,4.373,0,0,1-.3-2.425c.258-1.29,1.432-1.935,2.142-2.877a15.882,15.882,0,0,1,2.219-3.109,5.857,5.857,0,0,0,1.174-3.457c-.181-1.664-2.993-1.935-1.845-4.064.619-1.135,1.561-1.368,2.658-1.793s1.638-2.1,1.987-3.328a9.46,9.46,0,0,0,.387-1.793,8.282,8.282,0,0,0-.129-1.78c-.09-.671-.658-1.987-.439-2.58.632-1.845,2.284-.232,3.509-.142,1.651.1,2.361-1.019,2.245-2.58a5.021,5.021,0,0,1,0-.877,2.671,2.671,0,0,1,.387-1.006c.619-1.135.955-.839,1.974-.671a12,12,0,0,0,3.754-.464c2.18-.452,3.7-1.29,3.87-1.871a15.778,15.778,0,0,1,1.832-2.58c.31-.542,0-1.213-.851-1.29s-.851-1.161-.361-1.742-.258-1.109-1.109-1.2-2.18-.671-1.432-1.38c.374-.348.542-.271.722-.116a.981.981,0,0,0,.8.387,5.005,5.005,0,0,1,2.58.671c.98.439.632-.142,1.561,0a4.322,4.322,0,0,0,3.032-.413,6.735,6.735,0,0,0,1.6-1.871,4.3,4.3,0,0,1,.942-.929c1.29-.89.929-1.432,1.509-2.49a7.133,7.133,0,0,0,.4-1.29,4.76,4.76,0,0,1,.774-1.29c.516-.787.271-1.535,1.135-2.077a10.141,10.141,0,0,0,2.477-1.755c.581-.671,1.161-1.638,2.129-1.767.671-.09.671-1.742.581-2.89a6.514,6.514,0,0,1,0-3.341,6.282,6.282,0,0,1,2.361-2.761c1.548-1.071,3.367-1.69,4.941-2.735.877-.581,1.664-1.29,2.58-1.832s2.271-1.071,3.316-1.755a11.857,11.857,0,0,0,2.425-2.193,16.242,16.242,0,0,0,4.335-9.4,19.889,19.889,0,0,1,.168-3.161c.413-2.477,2.077-4.451,2.967-6.734.49-1.29,1.29-1.2,1.922-1.471a8.115,8.115,0,0,0,2.8-3.961c.852-2.193,0-4.322-.4-5.844s-.851-1.2-1.742-1.161" transform="translate(-21.76 4.23)" fill="#fff"/>
      <path id="Path_603" data-name="Path 603" d="M172.836,153.4c.361-.439-2.4-2.219-3.741-2.219s-5.7-3.032-9.715-3.87-7.508,1.987-7.134,2.49c.542.71,2.5-.89,3.483-1.6s1.871.348,1.961.8,1.29.71,3.38.8,2.322,1.78,4.283,2.232,0,1.29.98,1.6,6.141.271,6.451-.181" transform="translate(16.101 35.762)" fill="#fff"/>
      <path id="Path_604" data-name="Path 604" d="M273.465,63.293a5.818,5.818,0,0,1-3.561.181c-1.187-.3-3.1-1.29-4.451-.529s-.542-1.135.593-1.29.645-.71.348-1.9,1.909-.413,2.851.955a4.038,4.038,0,0,0,4.4,1.484c1.613-.477,0-1.78.71-2.671s-4.928-3.69-5.16-4.644,1.432-.3,2.967.361,1.909-1.29,1.909-2.077-3.328-.89-4.812,0-2.916-1.071-.89-1.29.168-1.071.774-1.664,3.148,1.716,4.451,1.29,2.258,0,3.393-.826-2.025-1.729-2.683-2.5,3.277-.477,4.464-.413,1.484-1.729.529-1.368-4.335-1.187-3.625-2.258,2.025.181,3.509-.593.116-3.69-.955-3.69-3.561-.348-3.561-.89-2.077-1.006-1.484-1.535,1.368.645,2.735-.361,4.219.232,5.457,0-.529-2.58-1.29-2.142-3.148.529-3.328-.71,2.309,0,2.735-.593-3.457-2.142-4.051-.89-2.722.826-1.6.116,1.368-2.735,1.29-3.741,4.038-1.071,3.561-2.735,1.909-2.129,3.277-2.129-.064-1.78-1.367-1.6-2.671,1.664-3.328,1.071,1.548-1.664,2.735-1.664a14.346,14.346,0,0,0,5.057-.71c1.006-.593-1.793-1.135-3.69-.9s-1.9-.593.955-.645,2.374-.658,4.4-.89,1.355-1.071,2.58-1.135,4.515-1.419,4.515-2.077-4.7-1.961-6.889-1.961-3.986.361-4.1,1.9-2.916-.3-4.1.245-.593-1.29-1.78-.658-2.49,2.025-3.87,2.58-2.49,2.077-3.38,2.193,1.9-2.735,3.328-4.154.645-3.1-1.29-2.916-1.484,1.368-2.58,1.613-6.18,2.787-6.451,2.013,4.219-2.077,4.167-2.58-5.651-.593-8.141-.232-6.9,1.78-6.954,1.071,5.16-1.729,7.741-2.025,7.418.181,9.444-.645,5.044-.89,5.586-1.548-2.322-1.548-3.741-1.484-2.851-.116-2.735-.839-2.206-.89-2.438-1.419-4.644-.1-5.6-.658a13.353,13.353,0,0,0-6.115-.71c-2.374.181-7.25.116-8.373.245a17.662,17.662,0,0,1-2.851.464c-1.019,0-2.58.31-1.961.955,1.071,1.187-1.613,1.664-1.432.774s-2.309-1.29-3.083-.658-4.877-.761-5.47,0-5.289.542-6.657.774,2.142,1.29,2.025,1.845-4.464,0-3.574,1.071,3.741,1.845,5.16,3.212-1.071.529-2.58-.477-3.509-.658-4.464-1.664-4.515-1.78-5.406-1.187,2.438,2.013,2.438,2.787-2.374-.181-2.8.116-2.49-2.013-3.677-2.013-.181,1.071-.181,2.58-2.309,2.374-1.664,1.368.181-3.625-1.071-4.1-4.451,1.006-6.115.955-3.87.464-2.438,1.29-.065,1.29-1.29.413-5.354,0-4.515.593a2.58,2.58,0,0,1,.593,3.032c-.542.71-2.258-.71-3.87-.593s-9.56,3.87-9.031,4.928,3.87.181,4.928.774-.361,2.8-1.664,3.69-6.18,0-6.3,1.122-7.663,1.29-7.663,2.98a1.445,1.445,0,0,0,1.187,1.484c1.058.232,2.374-.116,3.328.955s3.625,1.122,5.457.413,3.212.116,3.148,1.187-4.154-.413-5.406.348-5.16.129-4.928.955,2.077.658,3.625.955.116.955,0,1.6.826.542,2.374,1.29,4.1,1.29,3.264.348,1.613-.774,2.025-.232,1.548-.774,2.671-.477,1.548-1.071,2.438-.477,5.044.955,6.451,1.729,3.38.942,3.212,2.077,1.187,1.961,2.787,2.671a3.212,3.212,0,0,1,1.793,3.187c0,1.019,1.716,1.729,1.419,2.206s0,1.122,1.019,2.077-1.664,1.664-1.019,2.5-.942,2.425.955,2.722,1.6-1.29,3.032-1.29,0,1.29.71,2.025,2.387.593,3.87,1.832.529,1.845-.839.839-5.341-.774-5.341-.413,4.4,2.851,5.406,2.49,2.374,1.484,1.78,2.077-.3,2.09-.413,2.8-1.613,0-2.58.116-1.613.413-1.613,1.419-1.484,1.729-1.664,2.98,1.187,1.187,1.961,1.716-1.419.89-1.535,1.793,2.013,2.49,2.787,2.9,0,2.438.361,3.445,1.29-.232,1.187,1.071.942,1.29,1.006,2.025,1.909.658,1.548,1.716.529,1.845.955,2.438,1.961,1.613,2.258,2.387,1.187,1.78,2.258,1.484,1.122.71,1.961.593a2.513,2.513,0,0,1,2.374,1.006c.245.658,2.787,1.29,3.5,1.368s.839-1.187,1.5-1.548.413-2.967,1.006-3.148.413-2.916-.181-3.148-.348-1.187,1.019-1.006.89-1.2,1.535-1.368.361-1.432.839-1.548.413-.955,0-1.432.065-.826.774-.942.542-1.135-.413-1.484-.658-1.432.3-.774,1.664.181,1.122-.542.658-1.071,1.909-1.187,1.9-.774,1.664-1.716,1.419-.9,1.006-.065-.181,1.664.413,1.071,1.729-.181,3.754-.774A6.851,6.851,0,0,0,250.4,73.6c.477-1.613,2.787-1.432,2.49-2.5s.426-1.484,1.909-.774.3-.464,1.961-.464,1.368-.606,2.967-.658,5.767-.774,7.186-1.961,4.464-2.206,5.7-2.967,1.548-1.432.774-1.019" transform="translate(21.532 -5.37)" fill="#fff"/>
      <path id="Path_605" data-name="Path 605" d="M179.833,49.3a16.152,16.152,0,0,1-2.1-.71,43.751,43.751,0,0,1-4.335-3.032c.361-1.29-3.3-1.69-4.283-1.69s-2.4.8-2.219,1.69a.4.4,0,0,1-.361.516c-1.419-2.58-2.309.4-4.141.116-2.58-.4-.942-2.322-1.535-3.974-1.484-4.025-9.689-2.916-13.043-1.729-2.967,1.045-4.361,5.031-3.87,7.934a4.954,4.954,0,0,0,2.154,3.625c1.484.9,3.664-.181,4.644,1.084.632.8,2.322.542,4.012.632a40.151,40.151,0,0,1,4.464.8,2.464,2.464,0,0,0,2.038-.89c-.09.155,7.934.439,8.528.439a5.161,5.161,0,0,1,4.025,1.548c1.29,1.587.839,4.27,2.58,5.354.826.516,1.987.516,2.58,1.29a2.09,2.09,0,0,1,.09,2.206,6.18,6.18,0,0,1-1.535,1.742c-.839.722-1.677,1.445-2.5,2.18a4.154,4.154,0,0,1-1.122.774,6.334,6.334,0,0,1-1.471.3,7.018,7.018,0,0,0-4.915,3.174c1.29,1.471,3.083.439,4.825.542s1.78.529,1.961-.361,1.871-.452,3.032-.181.89,1.871,2.322,2.051.258,1.6,1.148,2.58,3.754.439,4.812,1.509,5.612,3.2,6.244,2.4-3.87-4.993-5.251-5.341,1.29-.8,3.019.529,4.193,1.961,5.444.361c.839-1.071-2.58-5.006-3.432-6.18,2.206-.555,5.083,1.29,6.9-1.006,1.29-1.561.439-4.025-1.122-5.277a13.6,13.6,0,0,0-5.56-2.064c-.89-.194-1.909-.542-2.167-1.419-.439-1.484,1.806-2.774,1.38-4.27-.284-1.019-1.574-1.29-2.464-1.884a8.4,8.4,0,0,1-1.755-1.819c-2.3-2.722-4.451-2.838-7.005-3.535" transform="translate(13.672 4.497)" fill="#fff"/>
      <path id="Path_606" data-name="Path 606" d="M158.286,14.413l-.645.1c-3.238.439-4.309,3.058-7.16,4.244a4.993,4.993,0,0,0-2.283,1.2c-.529.71-.439,1.7-.877,2.464a4.115,4.115,0,0,1-2.851,1.548A63.021,63.021,0,0,1,129.477,26.1a12.592,12.592,0,0,0-5.56.555c-1.948.89-3.277,2.941-5.354,3.47-2.683.684-6.373-1.135-7.818,1.226a17.318,17.318,0,0,1-.826,1.7,4.038,4.038,0,0,1-3.2.98,18.513,18.513,0,0,0-9.934,3.174,7.521,7.521,0,0,0-3.225,4.038,3.677,3.677,0,0,0,1.948,4.4,20.242,20.242,0,0,0-5.7,3.535,6.838,6.838,0,0,0-2.18,6.064,6.257,6.257,0,0,0,4.206,4.335,10.747,10.747,0,0,0,6.218-.064c2.361-.645,4.748-1.793,7.147-1.29a1.613,1.613,0,0,1,.9.439c.581.645,0,1.664-.619,2.232s-1.5,1.1-1.587,1.961a40.355,40.355,0,0,1,9.8-.735q-3.638,2.864-7.508,5.5a27.892,27.892,0,0,0,15.959,0c3.174-.955,6.347-2.5,9.637-2.077a16.088,16.088,0,0,0,3.3.426,2.425,2.425,0,0,0,2.374-1.922c.09-1.071-.839-1.909-1.677-2.58L130.819,57.5c-1.019-.813-2.167-2.025-1.69-3.251a2.438,2.438,0,0,1,1.522-1.29A6.128,6.128,0,0,1,137.1,54.42c.851.9,1.406,2.038,2.219,2.967a5.522,5.522,0,0,0,6.451,1.535c2.1-1.071,2.929-4.27,1.29-5.96.761-1.909,2.954-2.851,5.006-3.045s4.128.155,6.167-.077a1.961,1.961,0,0,0,1.29-.542c.581-.671.129-1.755.426-2.58.348-1.032,1.638-1.38,2.735-1.445,4.67-.271,9.65,1.587,13.907-.374a4.322,4.322,0,0,0,2.425-2.387,2.245,2.245,0,0,0-1.29-2.838,6.76,6.76,0,0,0,5.354,1.071c1.78-.581,2.929-3.045,1.677-4.438-1.432-1.587-4.412-.542-5.909-2.064A20.229,20.229,0,0,1,185.778,32c2.232-.31,5.277-1.729,5.431-4.4.09-1.509-3.561-1.161-5.341-1.161s1.161-1.29,4.541-1.161,1.871-1.29,2.5-1.871,2.219.632,3.87.271.529-1.78,1.69-1.78c.826,0,2.671-1.29,6.334-3.3s6.451-1.69,6.683-2.851-5.083,0-5.973-.348,3.651-1.29,4.722-1.071,2.49,0,6.154-1.793,2.038-2.219.529-1.961-3.212-.258-3.122-1.29c0-.387-6.979-1.845-7.831-2a37.323,37.323,0,0,0-10.437-.219,18.449,18.449,0,0,1-4.038.206c-.89-.1-1.755-.361-2.58-.452a15.3,15.3,0,0,0-4.825.555A54.612,54.612,0,0,1,177.8,8.44a46,46,0,0,0-5.006.516,27.312,27.312,0,0,0-5.328,1.9c-1.509,0-4.09,1.806-5.509,2.425a15.894,15.894,0,0,1-3.625,1.187" transform="translate(-2.659 -4.959)" fill="#fff"/>
      <path id="Path_607" data-name="Path 607" d="M265.325,67.631c1.161,0,1.135-1.29,1.613-1.29s1.29-.89,1.548-1.484a1.29,1.29,0,0,0-1.045-1.664c-.71,0-1.29-.568-1.1-.98s-.387-.955-.361-1.29-.89,0-1.368.09-1.484-1.161-1.935-.916-.116.864-.232,1.213-1.187-.323-1.187.09-.452.477-.8,0-1.187-.168-1.161.181-.361.065-1.045-.348-1.393.477-1.29.916-.245.568-.813-.413-1.213.09-.916.619.181,1.187-.271.929-1.032.168-1.29.593-1.213-1.226-.529-1.613-2.18-2.013-3.07-2.013-.3.645.3,1.122-.413.361-.735,0-.955-.09-1.29.5-.942.916-1.006,1.29,1.006.864,1.935.477a2.58,2.58,0,0,1,2.438,0c.477.452-.864.632-.387.98s.09.658-1.045.568-2.49.232-2.284.619,2.877-.323,2.916.065,0,1.045.71.748.232.529.593.671.271.864-.684.929-1.419.245-1.006.645,1.535.155,2.58-.077,2.464.98,3.651,1.445,3.238-.168,3.47-.8,1.845-.387,2.5-.826a5.16,5.16,0,0,1,2.7-1.045" transform="translate(43.696 10.495)" fill="#fff"/>
      <path id="Path_608" data-name="Path 608" d="M270.864,97.339a6.154,6.154,0,0,0,3.47-1.419c1.006-.955,1.548,0,2.464-.516s.361-3.948,0-4.657a.4.4,0,0,1,0-.31c.129-.413,1.071-.477,1.561-.968s-.3-1.458-1.135-2.258-1.716.413-2.516.4a.555.555,0,0,1-.245,0c-.826-.323-1.987-.323-2.025.426s.929.477.955.942-.955.361-1.638.839-1.419-.335-2.129,0,.761.774.232,1.522,0,.71.916,1.419-.529.89-.529,1.69-1.1.774-1.29,1.29.955,1.6,2,1.6" transform="translate(49.961 18.291)" fill="#fff"/>
      <path id="Path_609" data-name="Path 609" d="M274.8,82.991c-.064,0-.116.116-.168.3s.361.8.452,1.109a2.231,2.231,0,0,1-.077,1.29,4.284,4.284,0,0,0-.232,1.29c0,1.29.8.89,1.535.5.271-.155.142.645.194.761.245.529.8.413.89,1.084s.219,1.38,1.122,1.522a2.774,2.774,0,0,0,2.1-.581c.464-.477.787-.271.71.323,0,.258-.335.413-.374.7a2.644,2.644,0,0,0,.258,1.032,1.2,1.2,0,0,1-.361,1.2,2.9,2.9,0,0,1-.993.452,2.761,2.761,0,0,0-1.419.9c-1.29,1.742,1.29,1.29,1.29,2.232,0,.477-.8,1.032-1.935,1.368s.245,1.213.774.826.968.142,1.161.464c.387.632,0,.9-.4,1.29-.619.606-1.561,1.148-1.961,1.948-.684,1.432,1.677.955,2.464.632s1.393-.735,2.116-1.058a7.431,7.431,0,0,1,3.251-.632c.955,0,1.871-.3,2.825-.245a6.36,6.36,0,0,0,2.787-1.161c.452-.413-.271-.5-.864-.413s-.477-.593.155-1.2,1.6-1.032,1.664-1.922-1.909-1.522-2.116-1.045-.645.426-.98-.116.3-1.045,0-1.1a1.29,1.29,0,0,1-.658-1.1c.09-.3-.5-2.206-1.509-2.438s-1.161-1.664-1.29-2.438-.826-.361-1.29-1.006-1.367-.335-1.819-.3,0-.839.71-1.29a7.315,7.315,0,0,0,1.548-3.5c0-.516-3.122-.477-3.716-.181s-1.187-.452-.684-.658,1.574-1.29,1.522-1.664.735-.8.3-1.187-.5.5-.89.8c-.98.761-2.774-.387-3.677.748a2.478,2.478,0,0,0-.322.671A3.238,3.238,0,0,1,275.3,82.9c-.232.116-.387,0-.5.116" transform="translate(51.613 15.958)" fill="#fff"/>
      <path id="Path_610" data-name="Path 610" d="M313.713,19.372l.232.271c.516.787.452,1.484,1.509,1.948.8.361,5.315,1.471,5.973.722.31-.361,1.019.71,2.4.8s1.29-.529,2.271-.581,2.58-.529,2.58-1.109,3.019-1.29,2.761-2.271-3.161-.31-3.974-.722-2.671-.929-2.98-.31-.851.8-1.109.542.129-1.7-1.161-1.29-.09,1.78-.361,1.948-1.509-.258-1.6-.89-1.471.671-1.651-.09-1.832-1.29-2.18-1.29.348.529.129.89-1.109-.361-1.471-.4.219.748,0,1.109-.89-1.071-1.509-1.071-.4.71-.852.761c0,0,.568.593.942.98" transform="translate(62.664 -1.984)" fill="#fff"/>
      <path id="Path_611" data-name="Path 611" d="M304.572,22.43c.851.181-.89,1.109-1.161,1.961-.374,1.187,1.716,2.219,2.451,2.735a12.527,12.527,0,0,1,2.167,2.206c.581.748-.49.929.335,1.729a22.129,22.129,0,0,0,2.271,1.484,9.625,9.625,0,0,1,1.871,1.38c.271.452,1.38.219,1.29-.4-.193-2.787,3.083-4.077,5.16-4.773.529-.168,1.2-.3,1.574.129.606.684.722,1.29,1.819,1.355.606,0,1.742-.619,2.271-.361s0,1.058.735,1.29,1.29-.593,1.755-.929,1.548-.684,2.258-1.135a1.046,1.046,0,0,0,.348-.323.748.748,0,0,0,0-.5,2.361,2.361,0,0,0-1.729-1.432c-1.626-.5-3.586-.593-4.619-1.948a6.568,6.568,0,0,0-.864-1.174,2.684,2.684,0,0,0-.968-.413c-.993-.258-2.825,0-3.664-.529-.4-.245-.284-.581-.542-.839s-.555-.387-.787-.619a14.149,14.149,0,0,0-.993-1.445c-.426-.387-1.638-.8-1.858-.271s-.619-.8-1.071-.942-.09.89-.49.98c-1.548.348.658,1.393.568,2.025-.206,1.29-1.729.206-1.806-.593,0-.49-.542-1.445-1.174-1.29-.387.116-.581,1.006-.9,1.29-.4-.632-.555-1.922-1.638-1.29-.581.348-1.29-.232-1.677.258s-.813,0-1.432-.129-1.161.89-1.6.71-.722.89,0,2.013,1.29-.361,2.09-.181" transform="translate(59.562 -1.52)" fill="#fff"/>
      <path id="Path_612" data-name="Path 612" d="M502.938,113.354c-.71.116.065.839-.761,1.187s-.774.955-.361,1.187.116,1.019,0,1.548.529.116,1.006-.413.98.258,1.071-.245-1.29-.89-1.187-1.484.955.181,1.664-.181a3.251,3.251,0,0,1,3.032.722c.89.774,1.135.477,1.29-.477s1.548-1.368,2.916-1.368,1.484-.658,1.071-.955,2.258-2.013,2.193-2.49-1.419,1.071-1.832.529-1.135.3-2.025.477-3.69-2.142-4.4-3.212-1.9-.168-1.29.593-.129,1.019-.129,2.09-.71,1.071-.581,1.78-.955.593-1.677.71" transform="translate(117.438 24.311)" fill="#fff"/>
      <path id="Path_613" data-name="Path 613" d="M496.467,128.852c0-.542-1.071-.232-2.438.3s-2.206-.593-2.967.181-2.09,2.142-3.1,2.309-.426,1.406,0,1.2c.71-.361,1.845,0,2.206-.542s3.264-1.187,5.044-1.29.71.839.826,1.793,1.613.761,2.387-.129,1.367-.826.71-1.368.116-1.006.593-.3a1.626,1.626,0,0,0,2.58-.181c.593-.942.774.181,1.484.129s1.135-1.845,1.187-1.187,1.187.464,1.909-.3,0-2.142.529-2.864a3.522,3.522,0,0,0,.477-3.083c-.477-.89,1.071-1.484,1.845-2.206s-.929-4.232-.929-5.238-1.961.413-2.58.71-1.006,2.142-.361,2.671-1.058,1.548-1.006,2.683-1.071,1.122-1.29,1.961-.826.658-1.832,1.419-1.548-.116-1.29-.645-1.535.3-1.484,1.6-1.664,1.432-1.29,2.025-1.29.942-1.29.413" transform="translate(113.343 26.642)" fill="#fff"/>
      <path id="Path_614" data-name="Path 614" d="M485.574,131.392c.348.658.89.065,1.122-.593s.839.955.3,2.013.077,2.58.774,2.438,1.368-2.258,2.258-3.38-.413-.722-.413-1.29-1.29-.464-1.367-1.006-.955-.232-1.845.413-1.187.774-.826,1.432" transform="translate(112.767 30.579)" fill="#fff"/>
      <path id="Path_615" data-name="Path 615" d="M491.362,131.256a1.29,1.29,0,0,1,1.729-.658c.593.31,1.355-.89,1.355-1.78s-1.78-.89-2.013-.232-.955.348-1.909.529-.981,2.451-.3,2.683.955.168,1.135-.542" transform="translate(114.024 30.238)" fill="#fff"/>
      <path id="Path_616" data-name="Path 616" d="M470.015,159.576c-.181.542,0,2.735.529,2.735,1.187,0,.464,1.871.387,2.412a4.619,4.619,0,0,0,.735,3.535,14.192,14.192,0,0,0,1.535,1.509c1.767,1.7,2.58,4.683,1.135,6.631a9.832,9.832,0,0,0-.98,1.29,1.2,1.2,0,0,0,.155,1.458c.942.735,2.5-1.045,3.367-.219.348.323.31.851.387,1.29a2.626,2.626,0,0,0,4.644,1.251,4.579,4.579,0,0,0,.787-2.013,18.449,18.449,0,0,0-1.871-11.534c-.465-1.006-2.258-.645-2.258-1.6s-1.29-1.29-1.367-1.78-1.78-1.071-2.787-.477-.3-1.071-1.006-1.845.529-1.9,1.367-2.851-.245-2.58-.129-3.264.065-.955-.348-.722-2.142-.71-2.916-.232,0,4.4-.413,4.7-.826-.632-.955-.245" transform="translate(108.277 38.041)" fill="#fff"/>
      <path id="Path_617" data-name="Path 617" d="M520.582,198.059c1.071,0,1.29-.529.413-1.29s-3.87-1.071-3.974-2.193-5.535-3.806-7.908-4.348q-.752-.176-1.484-.426c-2.58-.877-6.154-2.464-6.889-2.425s-1.019,1.613-1.78,1.613-1.845,1.6-3.277,2.077-1.484-4.1-2.142-4.993-4.219-1.6-4.567-.593-1.6.477-1.729,1.29.3.542,1.071.542.774.593,1.135,1.368,2.49.232,3.2.181.839.942-.168.593-1.019.464-1.729.3-1.664-.129-1.187.3,1.29.826,1.29,1.78,1.367.774,1.367,0,.71.232,2.077.593.413.89,1.78.955a13.908,13.908,0,0,1,5.638,1.961c1.2.89.361,1.484,1.135,2.309s1.006,1.78-.064,1.78-2.193,1.071-1.9,1.613,3.806-.245,4.631-.245c.542,0,1.1.968,2.142,1.677a4.258,4.258,0,0,0,2.142.71c2.58.116,1.961-1.368,2.438-1.368s.645-.839,1.187-1.5,2.851-.116,4.219.955,2.967,4.219,4.4,3.87,2.9.839,4.219.774.116-1.071-.3-1.29-1.5-.89-1.432-1.368-1.187-.413-2.026-.942-.529-2.258-1.419-2.683-1.548-1.716-.477-1.664" transform="translate(113.289 46.737)" fill="#fff"/>
      <path id="Path_618" data-name="Path 618" d="M363.53,203.168c-.271-.968-.477.361-.71.593a2.154,2.154,0,0,0-.31,1.432c0,.477-.71.942-1.187.89s-1.29.232-1.006.89-.348.529,0,1.071-.645,1.187-1.484,1.29-1.9,1.535-2.787,1.419-1.78.593-2.58.477-.245,1.6-.839,2.671a4.128,4.128,0,0,0,.245,3.625,3.341,3.341,0,0,1-.477,4.1,4.567,4.567,0,0,0-.774,4.812c.529,1.187.529,2.967,1.29,3.87s2.916,1.548,3.574.89,1.29.09,2.077-.774,1.9-5.406,2.916-8.437,2.309-7.018,2.193-7.844.71-1.368.361-2.258.116-1.961.529-1.29,1.006.722,1.187-.232-.71-2.438-.774-3.87-1.29-2.671-1.419-3.328" transform="translate(73.844 51.91)" fill="#fff"/>
      <path id="Path_619" data-name="Path 619" d="M512.135,253.342c-1.2.142-3.006-1.1-3.432-.98s1.561,3.212.942,4.012,1.819,2.993,2.671,3.122.542-.851,1.11-.8.361-.581.451-1.032.671.49,1.161.232-.129-2.193.581-2.193.129-2.309-.09-3.07-2.18.581-3.393.71" transform="translate(119.504 66.28)" fill="#fff"/>
      <path id="Path_620" data-name="Path 620" d="M540.955,237.907c.361-.271-.181-1.7-.49-1.471s-.31-2.232-.09-3.341.09-.98-.49-.4-1.2-1.122-1.29-1.561-.8-1.7-1.548-1.522-.271-1.071-.98-.929-.851-1.032-.722-2.1-.49-.219-.8-.671-.671-.077-1.161.09-.619-.929-.49-1.38-.09-.98-.748-1.471a1.368,1.368,0,0,1-.671-1.471c0-.581-3.793-2.58-4.644-2.709s-.129-1.071-.49-1.393a4.335,4.335,0,0,1-.49-2.438c0-.98-1.29-1.29-1.2-2.1s-.348-1.561-.258-2.451-1.29-1.109-1.29-1.6-.8,0-1.561,0-.71-.98-.619-2a4.618,4.618,0,0,0-.942-3.212c-.619-.49-.671-2.18-.981-2.451s-1.29.89-1.29,1.471a2,2,0,0,1-.49,1.6c-.4.361.271,1.742-.271,2.232s0,2.451-.181,3.574a7.16,7.16,0,0,1-.619,3.07c-.529.761-.619,1.961-1.69,2.361s-2.5-.452-2.451-1.032-1.161-.929-1.78-.839-.981-.8-1.961-1.561-1.742.181-2.051-.71a2.627,2.627,0,0,0-1.29-1.522c-.658-.49-.49-.49.181-.98s.529-1.109.181-1.69.4-.452,1.29-.942,0-1.058.671-1.29.258-.852-.452-.98-.49.71-.761.8-.529-1.109-.748-1.071-1.071,1.2-1.522.619-2.941-1.058-3.87-1.2-1.29-1.38-1.871-1.161.09.632.761,1.29-2.232,1.2-3.07.942.129.619-.581.568-.851,1.213-1.432,1.832-.181,1.071-.8,1.471-.671.851.09,1.69-.361.89-1.032.232-1.29-.671-1.29.09-.8.4-.671-.452-.929-.452-1.109-.942a2.3,2.3,0,0,0-1.69-1.29c-.581,0-.581.671-1.161.671s-.71.31-.619.929-.89,0-1.561,0,0,.839-.361.89-.361.658-.929.658-.49,1.29-.413,1.961-.89-.31-1.471-.129.142.761.323,1.522-.323.71-.632,1.019-.8-.851-.8-1.509-.761,0-1.561.8.271,2.129-.09,2.361a22.534,22.534,0,0,0-2.89,2.851c-.942,1.109-2.941.439-3.574.98s-1.29.129-1.909.619-1.78,1.432-1.922.852-1.729-.129-2.4.581a4.489,4.489,0,0,1-2.5,1.38c-.748,0-.748,1.2-1.071,1.471s-.219-.942-.219-1.29-.71.542-1.019,1.471.748,1.29.09,2.271-1.29,1.961-.361,3.212,1.471,2.051,1.161,2.671-.981-1.29-1.2-1.019.839,1.019.568,1.419-1.226-1.509-1.419-1.071,2,3.432,2.051,4.554,1.78,2.18,1.69,3.78,1.522,4.193,1.78,4.593-.619,1.471-.439,2.671-.4,1.651-1.161,1.651-.31,1.29.529,1.29.542.671,1.471,1.29,3.174.4,3.87.4.98-1.161,2.013-1.2.929-.361,1.419-.98,2.812-.452,5.16-.31,3.393-.581,3.741-1.561,2.013-.89,2.671-1.522,1.29-.658,2.993-.581a10.321,10.321,0,0,0,4.451-1.29c1.122-.439,3.174-.258,4.232-.529s1.29,1.29,2.451,1.2,1.742.361,2.374.31.529.452,1.148.581.542.671.142,1.29.929.529,1.78,1.69,0,1.29.49,2.232.761.671,1.651-.581,1.871-.452,2-1.522,1.071-2.309,1.69-1.78-.439.8-.839,2.851-1.122.98-1.29,1.561,1.871.89,1.871-.181.361-1.548,1.122-.568-.452,1.78-.271,2.219,1.019-.129,1.471-.09c.787.077,1.871,1.832,1.69,2.774s-.439,1.819,1.071,2.58.929.89,2.051.89a9.238,9.238,0,0,1,4.051,1.432c.632.529,2.232-.413,2.58-1.471s1.471,0,.852.31.31,1.2.348.619.323-1.071.542-.4,1.019.671,1.29,1.2.671.942.671.49.181-.839.89-1.109a7.184,7.184,0,0,0,1.922-1.38c.761-.632,3.87-.761,4.193-.761s.49-2.671.658-4.051,1.29-1.613,1.522-3.083a9.6,9.6,0,0,1,2.142-4.322,1.625,1.625,0,0,0,1.2-1.38c0-.839,1.071-1.78,1.071-2.8s.581-2.232.49-2.58a2,2,0,0,1,.219-2.013c.671-.71-.271-1.561.09-1.819" transform="translate(105.171 51.462)" fill="#fff"/>
      <path id="Path_621" data-name="Path 621" d="M558.162,252.914c-.619-.439-.929.181-1.6.49s-1.109-1.471-1.961-.8-.09.929-1.019,1.742-.542,1.058-1.651,2.8-4.954,2.722-5.522,3.651-2.5,1.7-2.58,2.412-1.213,1.226-.542,2.18c.542.761,1.29.219,1.832.8s1.161.09,1.419.581,2.232.49,3.7-.839.761-1.961,1.29-2.322.658-1.419,1.019-2.09a2.038,2.038,0,0,1,2.232-1.38c1.6,0,.761-.31.671-1.071s1.29-.89,1.29-1.871,1.961-1.871,1.561-2.58.361-1.2-.271-1.651" transform="translate(129.493 66.308)" fill="#fff"/>
      <path id="Path_622" data-name="Path 622" d="M562.484,248.895c-.413.671-1.213-.181-1.974-.181a1.148,1.148,0,0,1-1.2-1.2c0-.671-.181-1.651-.89-1.613s.219.761,0,1.122-.451-.4-.813-.4-.748-.49-.748-1.38-.761-.8-.761-1.832-1.6-1.832-2.49-1.832.168,1.613.619,2.142,1.432,1.032,1.38,1.432a2.374,2.374,0,0,0,1.2,1.6c.542.181-.31,1.742-.31,2.98s-.981,1.032-1.651,1.832,1.7,1.613,2.683,2.413-.851,2.774-.581,3.2.8.542,1.819.271,1.522-2.49,2.232-3.122.271-1.6.619-2.09a1.355,1.355,0,0,1,1.29-.452c.439,0,.219-1.2.851-1.2s.31-.852.658-1.78-1.548-.581-1.948.09" transform="translate(132.448 63.154)" fill="#fff"/>
      <path id="Path_623" data-name="Path 623" d="M505.464,97.908c.477,1.071-.658,6.773-.181,7.741s-.774,5.16-.361,5.651c.722.826.245-1.135,1.29-1.29s1.071,1.187,1.729,1.484.245-1.9-.348-1.78-1.071-1.419-1.38-2.374.606-2.077.606-3.264,1.484-1.135,2.374-.245,1.006.3.645-.348-1.484-5.406-2.129-7.134.942-3.393-.245-4.283-.71-2.722-1.29-2.374,0,1.961-.955,2.077,0,1.019-.413,2.206a6.553,6.553,0,0,0,.658,3.974" transform="translate(118.369 19.077)" fill="#fff"/>
      <path id="Path_624" data-name="Path 624" d="M400.408,151.311c-.31.464-2.58.89-4.335.942s-1.845-2.193-3.69-2.193a2.58,2.58,0,0,1-2.425-2.374,1.691,1.691,0,0,1,.348-1.187c1.006-1.29,1.78-3.212,1.187-4.283a25.594,25.594,0,0,0-1.793-2.322c-1.135-1.38-2.335-2.916-2.309-3.509.064-1.006.477-1.651-.774-2.722s.129-1.78,1.019-2.916,2.477-1.445,3.561-2.167h0l.361-.271a5.328,5.328,0,0,1,4.219-1.368c1.368.361,2.49-.232,3.083.593s0,2.374.245,2.98-1.071.645-1.961.529-2.735.361-2.5.89.89,1.78-.3,1.135-1.664.645-1.006.645,1.548.774,1.548,1.29,0,1.716.645,1.535.593.89,1.432.839,1.6.232.955,1.006.413,2.916.645,2.438,0-.942.258-1.368.4-.4.929-.361c1.432.129.774,1.793,1.548,1.845s1.664,1.29.955,1.187-1.29.658-2.025.426-1.6-.839-1.845,0-.529,1.716.426,1.651.761.606.116,1.29,1.006-.116,1.122.477.658.658.426,1.6a12.475,12.475,0,0,0,0,2.7,2.58,2.58,0,0,1-.064,1.058m-93.107-20.8c-.232-.142-.4-.452-.232-.98h0a.774.774,0,0,0,.232.955m-2.051-10.321h0m-.645,0h0m.684-4.773a2.207,2.207,0,0,1,.1-.374,2.2,2.2,0,0,0-.1.374m0,.452v0m-.064.593a4.829,4.829,0,0,0,0-.49,4.829,4.829,0,0,1,0,.49m.348,1.729a.581.581,0,0,0,.168-.3.58.58,0,0,1-.168.3m.671,2.245h0m-.9-1.948h0M334.5,61l.206.155a2.721,2.721,0,0,0-.4-.271L334.5,61m.542.413h0m.981.787-.168-.129.168.129M351.5,59.738h0m-.464.413a1.208,1.208,0,0,1,.116-.155h0a.827.827,0,0,0-.129.168m-.335.581a1.291,1.291,0,0,1,.168-.387,1.291,1.291,0,0,0-.168.387m33.646,78.168a.336.336,0,0,0-.181,0,.336.336,0,0,1,.181,0m.258.129-.181-.09.181.09m2.787,6.27.3-.206-.3.206m-8.205-3.587v0m.09.593h0m6.36-2.658h0m.129,6.618a7.9,7.9,0,0,0,1.29-.761,7.9,7.9,0,0,1-1.29.761m-.606.206.439-.142-.439.142m-4.154-1.38h0m0,.142h0m.581-.98h0m.387.194h0m.774-3.664h0m.529.916.077.168-.077-.168m.116.258a.4.4,0,0,1,0,.245.4.4,0,0,0,0-.245m1.174,4.606h0m-2.3-1.368a1.136,1.136,0,0,1-.065-.194,1.131,1.131,0,0,0,.065.194m.155.284a.71.71,0,0,1-.116-.181.71.71,0,0,0,.116.181m.348.271a.685.685,0,0,1-.284-.194.684.684,0,0,0,.284.194m-3.741-4.49q0,.058,0,.116l-.142-.245.077.129m-2.683,9.173.761.232h0Zm27.57-9.715a.773.773,0,0,1-.193-.116.774.774,0,0,0,.193.116m.232.077h0m.4,0h0m.142,0h0m.09,0h0m10.747,14.578a.98.98,0,0,0-.064.452.98.98,0,0,1,.064-.452m.232-.348a.748.748,0,0,0-.206.271.748.748,0,0,1,.206-.271m-11.547-14.075h0m-.813-.516a2.973,2.973,0,0,0,.258.284,2.971,2.971,0,0,1-.258-.284m120.625-21a.839.839,0,0,0-.271,0,.839.839,0,0,1,.271,0m.374,0h0m.8.194a2.36,2.36,0,0,0-.761-.194,2.36,2.36,0,0,1,.761.194m.452.335a.4.4,0,0,0-.155-.181.4.4,0,0,1,.155.181m-.439-.335a1.1,1.1,0,0,1,.245.129,1.1,1.1,0,0,0-.245-.129M351.951,275.29h0m.284.065h0m-.671-.3h0m1.974.426h0m.31,0h0m-1.29-.142h0m1.161-15.933-.155.065.155-.065m5.16-8.786h0m-.219-.593v0m-.258-.555h0m-8.579,25.286a.748.748,0,0,0-.658-.787.748.748,0,0,1,.658.787h0m-8.308-9.34a.722.722,0,0,0-.258,0,.721.721,0,0,1,.258,0m.258.142s0-.09-.142-.129.142.077.142.129m-1.29-.168h0m-1.29.155.645-.09-.645.09m-.232,0h0m-1.084.206-.31.077.31-.077m.245-.064h0m16,9.869-.116-.077h0a.08.08,0,0,1,.077.064m1.419,7.405h0M669.821,73.427a3.87,3.87,0,0,0,2.245.477c.516,0,0-.477-.464-.568s.09-.5.439-.181,1.045.477,1.1.116.426-1.122,1.045-1.1.839-.323.232-.529a10.013,10.013,0,0,1-2.967-2.116c-.477-.684-2.761-1.006-2.761-.658s-.748-.09-.916-.464-2.58-.452-2.58,0,.568.452.916.929-.477.735-.3,1.29-.89-.271-1.29-.568-.206-1.458-.09-2.051-.684-.477-.774-1.071-2.761-1.806-3.87-2.283-2.58-.89-2.98-1.484-2.4-.658-3.174-1.458a13.558,13.558,0,0,0-5.612-2.322c-1.458-.09-1.135-.89-1.845-.774a27.093,27.093,0,0,1-4.722-.181c-.955-.142-1.161.568-1.845.31s-4.219-1.548-4.632-1.071-.232,1.148-.658,1.29,0,.71.981,1.6.387,1.574-.5,1.961a2.722,2.722,0,0,1-2.761-1.1c-.452-.684-1.664-.387-1.961-1.29s.361-1.032.955-.529a.9.9,0,0,0,1.484-.568c.09-.645-1.613-1.1-2.58-1.032s-1.432,1.29-2.374,1.871-4.632-.206-5.019-.568-5.535,0-6.063.361-.155,1.742-.413,1.871-.542-1.613-.542-1.935-.619-.568-1.548-.568-1.445,0-1.071-.413-.348-.774.361-1.29-1.29-2.077-3.264-2.851-6.451-.335-7.612,0a22.281,22.281,0,0,1-4.7.271c-1.122,0-.206-.452-.529-.98s-2.258-1.187-2.58-.748-.774,0-.774-.323-1.806-.98-2.516-.839-1.045-.645-.219-.645,2.258.181,1.638-.774-5.973-1.29-6.451-1.071,0,.864-1.187,1.961-2.284.361-2.142-.181,1.574-.439,1.574-.98-1.961-.232-2.258-.684.413-.735,1.135-.529,1.961.323,2.013,0-.735-.387-1.922-.593a27.441,27.441,0,0,0-5.586-.748c-1.522.155-2.206-.568-3.032-.619s-.839.439-.452.916-.8.774-1.78.619-2.4.542-1.845,1.29,1.135-.206,1.613,0-1.29.735-.542,1.071.593,1.006.632,1.355-1.2.542-1.638,0-1.071,0-1.9-.116-1.458.323-.568.452,1.187.684,0,.8-.89-1.1-1.613-.955-2.258-.568-3.083-.529-1.213.684-2.322.774a4.18,4.18,0,0,1-3.032-1.161c-.439-.593-.593-.774-1.122-.09s-.568,1.987-1.1,2.077-.748,1.29-1.29,1.548-.568-.452-1.29-.387-2.877-2.077-3.006-2.709-1.484-1.806-1.832-2.051.348-.348.8,0a1.29,1.29,0,0,0,1.458.142.774.774,0,0,0-.387-1.368c-.774,0-.477-.684-.09-.8s-.89-1.29-.413-1.393.258-.619-.387-.71a1.86,1.86,0,0,1-1.367-.955c-.077-.323-2.8-.452-2.683,0s-.89.335-.735,0-.98-.271-2.3-.632-1.29-1.29-1.78-1.29-.3,1.29-.942.98a.748.748,0,0,0-1.019,1.032c.361.774,0,.89,0,1.522s-.413.348-1.187.09-.774.645-2.438.232-2.412,0-2.709-.5-.8-.593-.852-.155-2.58.271-2.825-.387.439-.761.826-.942-.413-.452-1.806-.361-2.284-.71-3.716-.568a47.053,47.053,0,0,0-5.044.658c-.452.206.413,1.006-.271,1.071s-.206-1.29-.323-1.961-1.161-.748-1.019-.232-1.626.684-2.077.284a5.6,5.6,0,0,0-2.322-1.187c-1.148-.3-2.58.955-2.258,1.29s1.2.09,1.226.323c.065.49-2.464.3-2.464.71s-2.348.98-3.07,1.071c-1.948.245-2.374.245-3.29,1.019s-.206-.684.5-1.406,1.458-.413,1.871-.98,1.071-.5,2.206-.684,1.058-.826,1.6-1.071,1.845-.735,2.077-1.29,2.916-1.419,3.445-1.393.658-1.071.955-1.071a16.866,16.866,0,0,0,2.438-.942,1.574,1.574,0,0,0,.916-1.29c0-.387-.8-.323-.89-.684s.387-.116,1.006-.348,0-1.071-.5-.929.271-.439-.181-.98-1.29.335-1.29-.232a2.374,2.374,0,0,0-.413-1.638c-.361-.348-1.019.619-1.755.064s-2.916-.929-2.916-.684-1.032-.361-1.29-.116a5.225,5.225,0,0,1-2.477,0c-.529-.142-1.29.206-1.29.748s-2.142.323-2.58.232,1.458-1.6,1.458-1.871-3.122.065-3.29-.232-1.7-.387-2.387-.361,0-.181.593-.232,1.187-.606,1.871-.722.542-.348.245-.774-1.019-.206-1.69-.413a10.322,10.322,0,0,0-2.116-.529,20.3,20.3,0,0,0-2.645.555c-1.393.271-1.509,1.29-2.232,1.677s-1.961,1.626-1.355,1.742.284.477.374.864-.439.477-1.122.361-3.1-.09-3.058.413,1.393.748,1.29,1.006-1.045,0-1.509-.3-1.548-.116-1.755.387-1.045.387-1.29.271-.852.232-1.29.09.89-.8.568-1.135-1.755,0-1.909.516-1.006-.387-1.29-.219a13.568,13.568,0,0,1-1.29.658c-.619.271-1.69-.3-1.922.181s1.187.619,1.213.826-3.238.181-3.328.5-1.187.335-2.58.361-.8.684-1.871.89-1.535.245-1.9.774a1.032,1.032,0,0,1-1.548.206c-.348-.413-1.29.206-.8.271s0,.593-.3.477-1.29.568-.735.5.8.387.529.71-1.432-.387-1.729-.09.568.684,1.109.632a.774.774,0,0,1,.89.684c0,.387-1.29-.245-1.522.09s.206.464.774.529.155.271.658.71l.09.1c.31.361-.271.49-.206.851s-.568.529-.568.181-1.574-.477-1.909-.09-.555.684-.942.323-1.522.09-2.98.155a33.722,33.722,0,0,0-5.16.439c-.748.271-1.368,1.29-.7,1.987s0,.98,0,1.432,1.78,1.368,2.735,1.458,1.716,1.29,1.148,1.961-2.284-.206-3.406-1.1a8.9,8.9,0,0,0-4.464-.993c-.864,0-.361-.774-1.458-.748s-2.026,1.006-1.29,1.006,1.213,0,.826.3.206.271,1.1.658-.735.916-1.651.3a1.574,1.574,0,0,0-2.18.452c-.258.464,1.071,1.832,2.683,2.077s1.071.735,1.806,1.006.206.568-.3.593-1.509-.774-2.309-1.187-2.98.181-3.419-.3.3-.955-.129-1.29,0-1.161.477-2a1.871,1.871,0,0,0-.852-2.49c-.774-.232-.722.568-.542.8a2.477,2.477,0,0,1-.5,2.116c-.593.735-2.413.735-2.413,1.29s-1.213.89-.8,1.29a16.526,16.526,0,0,1,2.3,2.761c.232.568-1.458,2.348-1.2,3.393s-.232,1.509.09,2.013,1.071,0,1.548.271,1.29-.3,2.348-.5,3.122.955,3.87,1.29.361.955.748,1.548-.89.593-.916,1.484,2.219,1.29,2.309,1.548-1.6.064-2.258-.181-.71-1.1-.916-1.29.439-.89.5-1.458-.748-.89-1.006-1.29-.748-.955-1.29-.826a8.941,8.941,0,0,0-3.1.826c-.593.542.09,2.051.413,2.8s-1.716,1.78-1.664,2.374-.619.864-1.509,1.29-1.871.839-1.845,1.613-1.187.348-1.806,0-1.432.206-2.322.181-.89-.774-1.6-.516-1.187-.323-.981-.851,1.006-.116,1.071.258.555.219,1.148-.116.31.426,1.161.477.387-.439,1.045-.387.684-.142.477-.477.477-.555.89-.735.232-.864.619-1.071.116-.619.542-.658.593-.658.981-.658.593-.619.348-.942.155-1.226.542-1.29.413-.477,0-.735-1.664-1.161-1.574-1.729-.232-1.6,0-2.051a5.237,5.237,0,0,0,0-1.9,12.656,12.656,0,0,1,.516-2.116c.168-.98-1.045-2.013-1.638-2.284s-.206-.8.658-1.522.916-2.929.851-3.406-1.806-.89-2.49-.839a25.016,25.016,0,0,1-3.87-.181c-.632-.116-.839.542-1.135,1.135a13.716,13.716,0,0,0-1.29,2.851c-.387,1.29-1.961,1.755-2.683,2.051s-1.148,1.29-.826,1.755.8.09,1.122.258,0,1.432-.232,1.613.387.619-.116.942-.98,1.019-.684,1.368,1.755.542,2.374.9.387,1.006.864,1.626.981.245,1.213.632-.864,1.922-1.29,1.987-1.961-1.574-2.425-1.935-2.322-.916-3.238-1.393a17.858,17.858,0,0,1-2.683-1.1,5.5,5.5,0,0,0-3.716-.98c-1.832,0-3.019-.413-3.651-.335s-.387-.619-1.484-1.1-1.806-1.122-2.438-.8-.387,1.509.568,1.664.477.658,1.484.593,1.29.3,1.29.916a2.412,2.412,0,0,0,.929,1.664c.439.426.168,1.109-.632,1.109s-1.716.116-1.367.684-.232.71-1.032.413-.335-.864,0-1.187-.722-.748-1.29-.929-2.516,1.29-3.083,1.548-1.961-.361-3.393,0-1.29,1.484-1.871,1.368-2.1.142-2.7-.206-.129-.568.5-.542.826-.168.477-.593.477-1.071.439-1.368-2.348.477-2.735.813,0,.916-.387,1.122-.413-.361-.89-.529a9.289,9.289,0,0,0-4.606,1.368c-.645.735-1.922.761-1.922,1.187s-1.574.387-2.206.684-.206,1.509-.439,2.1-2.683.413-3.419.452-1.006-1.432-1.613-1.522-.232-.916,0-1.29.658,0,1.393-.529,1.484.232,1.78-.09S385.3,64.1,385.21,63.351s-1.664-.955-2.58-.71a3.87,3.87,0,0,1-2.5-.271c-.619-.3-.555.542.361.774s.439.955.593,1.393a3.38,3.38,0,0,1-.774,2.232c-.529.774-.142.748.658.71s.735,1.019.735,1.78-.619.98-.619,1.548-.658-.258-.864,0-.477-.116-.593-.593-1.29-.348-1.638-.335c-1.109,0-.9.077-1.767.684-1.187.826-2.58.735-3.741,1.535a1.909,1.909,0,0,0-.581,2.748c.232.245.555.4.787.658a.627.627,0,0,1,0,.916.761.761,0,0,1-.477.09,6.167,6.167,0,0,1-2.864-.8c-.555-.323-1.071-.735-1.651-1.019a2.413,2.413,0,0,0-1.884-.168,1.29,1.29,0,0,0-.71,1.587c.387.8,1.548.684,2.4.942.323.1.645.323.684.645,0,.581-.748.787-1.29.774a5.161,5.161,0,0,1-3.238-.826,3.729,3.729,0,0,1-.864-1.122,6.683,6.683,0,0,1-.71-3.986,1.986,1.986,0,0,1,.31-.929,2.026,2.026,0,0,1,.826-.593,8.682,8.682,0,0,1,3.948-.813,23.662,23.662,0,0,1,2.748.761c1.716.232,4-1.29,5.16-2.5.619-.619-.181-1.9-.181-2.374s-1.019-.542-1.161-.89a1.961,1.961,0,0,0-1.664-1.019c-.864,0-.98-.98-1.664-.916s-1.161-.3-2.941-1.484-4.245-2.051-4.7-1.845-.735.323-1.032-.116a1.008,1.008,0,0,0-1.458,0,6.554,6.554,0,0,1-2.916-.065c-.4-.271-.7-.671-1.109-.916-1.29-.787-3.47,0-4.167-1.38-.31-.606-.116-1.38-.5-1.935a2.128,2.128,0,0,0-1.561-.7,34.717,34.717,0,0,0-19.584,3.045c-2.284,1.084-4.644,2.683-5.225,5.16a5.856,5.856,0,0,1-.748,2.477,9.43,9.43,0,0,1-1.638,1.174c-1.213.968-1.484,2.722-2.58,3.87-.761.826-1.871,1.29-2.58,2.116a3.574,3.574,0,0,0-.735,3.38L310.8,80.393a11.029,11.029,0,0,1-2.812,1.651c-.684.245-1.419.335-2.09.606a5.74,5.74,0,0,0-1.7,1.122,7.07,7.07,0,0,0-1.987,6.322c.464,2.477,3.509,6.541,6.451,6.1,2.412-.361,3.509-3.716,6.218-1.29a8.515,8.515,0,0,1,2.013,3.432l1.2,3.083a5.161,5.161,0,0,0,1.032,1.845,1.78,1.78,0,0,0,1.922.516c.774-.323,1.071-1.29,1.806-1.69,1.638-.9,2.877-.49,3.225-2.722.284-1.806-.206-3.677,1.458-5.006,1.058-.826,2.761-1.213,2.929-2.58.206-1.767-2.58-2.361-3.187-4.025a3.135,3.135,0,0,1,0-1.884,9.818,9.818,0,0,1,3.509-5.367c1.729-1.29,4.038-2.232,4.76-4.283a20.712,20.712,0,0,1,.632-2.374,5.045,5.045,0,0,1,3.135-2.206c1.2-.4,2.812-.581,3.432.516a2.245,2.245,0,0,1-.245,2.193c-1.29,2-3.78,2.774-5.406,4.477-2.077,2.167-2.374,5.431-2.58,8.424A3.767,3.767,0,0,0,334.689,89c.516,1.161,2.013,1.458,3.29,1.561,3.019.245,5.586-1.626,8.528-1.626a7.367,7.367,0,0,0,1.793-.206,8.438,8.438,0,0,1,.968-1.226,8.371,8.371,0,0,0-.955,1.226,4.309,4.309,0,0,0,.839-.31c.477-.232.8.929,1.29,1.29s1.419,0,1.755.387-.271.387-.955.258-.864.3-1.935.658c-.8.271-.722.555-.981.774a1.148,1.148,0,0,1-.439.206c-.864.232-2.735-.593-3.806-.387s-3.238.206-3.741.748-1.78.684-1.226,1.148,0,.722.426,1.29.619.8,1.187.671,1.006.181.387.839-.155,1.058-.181,1.987-1.071.774-1.638.774-1.484-1.69-1.78-2.077-1.29.477-1.935.89-.323,1.213-.8,1.6a1.406,1.406,0,0,0-.3,1.909.259.259,0,0,1,0,.1,1.961,1.961,0,0,1-.194,2.18c-.322.361-.142.413.1.555a.877.877,0,0,1,.31.31c.271.477-1.071.529-.658,1.1s-.955.593-.955,0-1.419-.3-1.29.09a.788.788,0,0,1-.129.477,1.213,1.213,0,0,1-1.1.568c-.864,0-.916-.864-.955-1.29s-3.47.323-4.386,1.29-3.07.555-3.122,1.058-.361.568-.581.464a.323.323,0,0,1-.168-.245c-.09-.477-.413-.658-1.187-.658-.439,0,.065-.968.181-1.161-1.29,0-2.348,1.484-3.612,1.626a2.98,2.98,0,0,1-2.929-2.58,11.059,11.059,0,0,1,.336-2.89,2.67,2.67,0,0,0-.864-2.58c-1.135-.735-2.7.245-3.264,1.484a4.709,4.709,0,0,0,.864,5.057c.284.284.619.581.632.968,0,.787-1.045,1.006-1.819,1.045A18.668,18.668,0,0,0,303.856,110a10.178,10.178,0,0,0-2.9,1.561,11.608,11.608,0,0,0-1.884,2.374c-1.29,1.884-2.58,5.019-4.889,5.16-1.213.09-.8,1.045-1.29,1.432a2.425,2.425,0,0,1-2.58-.864c-.232-.658-1.845,0-1.161.774s.658,1.845.271,2.142-1.213-.477-1.755-.09-.568-.361-1.213-.593-.929.3-1.961.206-1.638.5-1.29.955-.064.851.232,1.29,1.664.323,2.683.864,1.29.09,1.755.477.619.142.645.89a1.974,1.974,0,0,0,1.639,1.677c.98.258.245.916.542,1.574s-.452,1.6-.3,2.4-.477,3.393-.955,3.625h-.116c-.606.116-2.335-.516-3.483-.387s-5.16-.168-6.618,0-1.613-.619-2.438-.619-.477,1.006-1.664,1.032-1.29.774-.452,1.458c.5.387.439,1.213.361,1.961a2.658,2.658,0,0,0,.065,1.368c.387.619-.477,3.87-1.29,4.812s0,1.122.774,1.755.271,2.877.271,3.419.71.387,1.535.387a9.906,9.906,0,0,0,1.613-.323,1.781,1.781,0,0,1,1.071.077c.826.387,1.29,2.464,2.425,2.322.477,0,.245-.413.477-.658s.684,0,1.161,0,.71-.671,1.845-.71,1.845-.116,2.58-.09a1.29,1.29,0,0,0,1.458-.71,1.909,1.909,0,0,1,1.574-1.071c.8-.116.684-.955.735-1.419s1.406-1.2,1.5-1.548-.774-1.729,0-2.941,1.664-1.29,1.664-1.961.826-.864,1.845-.98,1.29-.8,2.193-1.161a1.29,1.29,0,0,0,.839-1.677,2.743,2.743,0,0,0-.129-.516c-.348-1.161.684-1.845,1.664-2a8.463,8.463,0,0,1,3.69.8c.568.361,1.29.271,2.309-.761a2.7,2.7,0,0,1,1.29-.826,4.67,4.67,0,0,0,.968-.284c.632-.323.361-.89,1.393-1.187a3.07,3.07,0,0,1,2.825,1.187c.413.632.542.684.632,1.2a3.754,3.754,0,0,0,1.9,2.425c1.419.929,1.987,1.961,2.735,2.348s1.484.3,1.922.839a4.9,4.9,0,0,0,1.755,1.161c.722.323.748,1.1,1.432,1.187s.232.684.658,1.187a1.974,1.974,0,0,1,.077,2.167c-.439.593-.206,1.6.09,1.6s.929-1.071,1.019-1.664.684-.555,1.148-1.187-.71-.774-.916-1.574.89-1.509,1.935-.864,1.458,1.109,1.509.09-3.212-2.348-3.974-2.812-.271-1.29-1.5-1.2-2.683-1.574-3.07-3.29-2.348-1.845-2.825-2.89.439-1.161,0-2.013c-.232-.477.284-.9.89-1.148a2.09,2.09,0,0,1,1.29-.168.71.71,0,0,1,.348.606c0,.4,0,.851.374.851.529,0,1.509,0,1.535.658a8.347,8.347,0,0,0,1.78,2.825c.477.529,1.548.413,1.613.864s.826.851,1.716.916a1.987,1.987,0,0,1,.852.348,12.369,12.369,0,0,1,1.032.761,11.03,11.03,0,0,0,1.419,1.058h.1a3.76,3.76,0,0,1,.155-.5,3.761,3.761,0,0,0-.155.5c.787.426,1.084.722.555,1.29a2.7,2.7,0,0,0-.065,2.967c2,1.626,2.58,3.87,3.6,6.283a2.774,2.774,0,0,0,.968,1.393,2.58,2.58,0,0,0,2.051,0,11.481,11.481,0,0,0,1.935-.787c.864-.452,1.768-1.29,1.6-2.206s-1.587-1.484-2.219-2.4a2.335,2.335,0,0,1,.4-2.877,3.393,3.393,0,0,1,2.916-.813,1.483,1.483,0,0,1,.942.426c.452.542.116,1.419.439,2.038s1.032.748,1.458,1.29,1.187,3.29.348,3.638c.206.194,1.109.684,1.135.968s1.29.452,1.29.813.387.477,1.006.3.864.684,1.29,1.29,2.58.181,2.58-.477.658-.839,1.638-.748,2.258,1.432,2.735,1.613,1.458-.361,2.077-.361,1.522-.98,1.871-1.187.98.684,1.548.387,1.187-.632,1.548-.413-.864,1.122-.542,1.6a.826.826,0,0,1,0,.684c-.09.361-.232.748,0,1.006s-.065.851-.155,1.5a.839.839,0,0,0,0,.258,15.827,15.827,0,0,1-1.5,3.006l.955.413h.064l-.077.593.077-.593-1.019-.439a4.075,4.075,0,0,0-.323.942,12.152,12.152,0,0,1-1.587,3.587,3.08,3.08,0,0,1-.219.31c-.245.245-1.226-.361-2.142-.116a3.432,3.432,0,0,1-2.58-.542,5.819,5.819,0,0,0-4.18.684c-.387.568-1.367.568-2.258.219a11.8,11.8,0,0,0-3.69-1.045,6.038,6.038,0,0,1-3.032-.722v-.077c-.155-.426-.955-.452-2.709-.722s-1.1-1.445-3.058-1.574-4.464,1.458-4.49,2.3.916,1.755.271,2.58a2.116,2.116,0,0,1-3.1,0,5.664,5.664,0,0,0-3.716-1.29c-1.213,0-2.077-.774-1.987-1.432s-.3-.942-1.29-1.148-1.871-1.045-3.651-.748a3.354,3.354,0,0,1-2.322-.477c-.477-.31-.774-.684-.774-.864s-.529-1.032-.826-.684-1.432.065-1.587-.671.748-.722,1.587-1.406a1.729,1.729,0,0,0,0-2.7c-.89-.722-.271-1.1.361-1.755s0-1.006-.271-.71-.864.387-.955-.335-2.013-.826-2.761-.142a1.6,1.6,0,0,1-1.071.31,7.018,7.018,0,0,1-1.9-.374,12.564,12.564,0,0,0-2.051.206c-.658,0-2.258,1.071-2.787.568s-6.012.387-7.547.439-2.206,1.677-3.122,1.677a5.16,5.16,0,0,0-3.148,1.626.968.968,0,0,1-.761.335c-.722,0-1.587-.516-2.335-.542-1.032,0-2.645.5-3.419-.361s-1.29-1.122-1.871-.851-1.6,3.238-2.193,4.09a4.554,4.554,0,0,1-3.058,1.458c-.8,0-.89,1.226-1.522,1.729s-.387,1.29-1.122,1.9-.387,2.413,0,3.058-1.368,2.709-2.374,3.3-1.29,1.729-2.941,1.987a2.645,2.645,0,0,0-1.458.722,4.606,4.606,0,0,0-1.109,1.832c-.348.955-2.58,2.348-2.671,3.69s-2.167,3.419-3.535,6.27a5.869,5.869,0,0,0-.593,1.884c-.116,1.29.684,1.755,1.135,2.271.619.722-.477,1.961.439,3.238s-.206,3.238-.645,3.961a4.711,4.711,0,0,0-.348,1.742,3.677,3.677,0,0,1-.465,1.613c-.645.98.271,2.4.748,2.851a.452.452,0,0,1,.116.374c0,.335-.206.774-.258,1.213a1.148,1.148,0,0,0,.232.942,1.533,1.533,0,0,1,.194.232c.516.645.581.955,1.613,1.29s-.09.916.864,1.509c.09,0,.155.116.232.168.684.555.619,1.174,1.432,1.767a6.708,6.708,0,0,1,2.258,2.464,4.31,4.31,0,0,1,.3.748,3.948,3.948,0,0,0,1.6,2.58,18.571,18.571,0,0,0,1.613,1.084c.839.529,1.819,1.148,2.58,1.742a27.09,27.09,0,0,0,4.7,2.941,1.445,1.445,0,0,0,.49.077c1.213,0,3.38-.851,5.935-1.29a8.6,8.6,0,0,1,3.87.219c.813.232,1.29.5,1.509.542a18.551,18.551,0,0,0,3.87-1.574c.8-.4,1.7-.658,2.322-.98a1.947,1.947,0,0,0,.4-.258,2.58,2.58,0,0,1,1.122-.452,7.841,7.841,0,0,1,1.29-.116c.645,0,1.032-.851,1.406-.413s2.051.568,2.993.774a2.954,2.954,0,0,1,1.909,2.051,2.58,2.58,0,0,0,1.071,1.716c.439.245,1.535-.439,2.051-.439a6.954,6.954,0,0,0,2.671-.31.258.258,0,0,1,.323,0,5.253,5.253,0,0,1,.839,1.122c.413.593,1.213.142,1.535.323a2.916,2.916,0,0,1,.568,1.961c-.116.374-.606,1.29-.374,1.78a.851.851,0,0,1-.464,1.29c-.632.206-.593.774-.09.8s.232.271.064.529a1.963,1.963,0,0,1-.335.426c-.271.271.619.619.774,1.006s-1.135.271-1.1.839a1.664,1.664,0,0,1-.813,1.29c-.348.271.955,1.393.98,1.78s.335.748,1.458,1.845.568,1.29,1.987,2.477l.219.168a5.986,5.986,0,0,1,1.716,2.116,10.062,10.062,0,0,1,.722,2.219,1.6,1.6,0,0,0,0,.206,30.324,30.324,0,0,0,1.755,4.193c.271.568-.323,1.071-.323,2.1s1.122,2.941,1.29,4.219A3.87,3.87,0,0,1,319,255.629a7.43,7.43,0,0,0-1.458,3.87c0,1.161-1.071,2.3-1.045,2.825a16.565,16.565,0,0,1-.258,2.709v.077a4.773,4.773,0,0,0,1.122,2.58,15.364,15.364,0,0,1,1.961,4.1c.452,1.458,1.729,3.083,2.051,4.193s-.232,2.671.09,3.38a13.989,13.989,0,0,1,.71,3.148c.181,1.226.271,3.806,1.367,4.877a8.852,8.852,0,0,1,1.29,1.6,13.808,13.808,0,0,1,1.509,3.212c.477,1.574,1.638,3.058,1.935,3.986s.619,1.78,0,1.871-.619.619,0,1.638.09,1.6.658,1.716.387.477.826.5.774.477,1.071.864a.839.839,0,0,0,1.29-.09c.323-.477,1.29-.619,2.374-.619s.826-.452,1.845-.748a5.458,5.458,0,0,1,3.083,0,2.129,2.129,0,0,0,1.935-.245c.413-.258,1.213.426,1.29-.258s.89-.568,1.664-.568,2.645-1.213,4.128-2.58a38.148,38.148,0,0,0,4.786-5.844,14.655,14.655,0,0,1,2.877-3.212,7.031,7.031,0,0,0,.955-3.316c0-.4.077-.748.09-.993,0-.955-.593-.181-.8-.774s1.445-1.69,3.148-2.309,2.348-.98,2.516-1.587,0-2.258.219-2.9-.155-1.045-.361-2.58-.748-1.729-.98-2.58-.181-1.484.323-1.522.5-.258.929-1.058.89-.477,1.69-1.071.826-1.29,2.1-2.322,2.683-.955,3.87-1.69,3.393-3.664,3.187-4.193a13.352,13.352,0,0,1-.5-3.87c.116-.98-.181-3.561-.181-4.812v-.077c0-1.135-1.355-.632-1.419-1.819s-.774-1.29-.735-2.051.09-1.574-.206-1.664-.129-.8.348-1.522-.864-.8-1.071-1.69a9.881,9.881,0,0,1,.89-3.058,45.169,45.169,0,0,1,1.961-4.373c.452-.684.89-.555,1.29-1.032s.516.232,1.109-.722l.168-.232c.787-1.058,2.9-3.083,4.464-4.722a10.488,10.488,0,0,1,3.509-2.671,24.357,24.357,0,0,0,4.993-4.9,11.417,11.417,0,0,0,2.309-3.715,8.6,8.6,0,0,1,1.819-3.122,11.107,11.107,0,0,0,1.871-3.986c0-.71.593-2.219.684-3.5s-.981-1.406-1.29-.684-2.877,1.187-4.515,1.213a4.683,4.683,0,0,0-3.2.748c-.606.555-2.09-.155-2.58.477s-2.645,1.148-3.328-.271a2.476,2.476,0,0,0-1.032-1.148c-.1.1-.206.232-.31.348.1-.116.206-.245.31-.348-.5-.284-.955-.335-1.084-.464s.606-.8,1.161-.916.3-.774-.168-1.187a2.327,2.327,0,0,1-.271-.245,21.713,21.713,0,0,1-2.142-2.4,5.16,5.16,0,0,0-3.174-2.193c-.722,0-.839-1.29-1.29-1.29s-1.458-1.819-1.5-2.941a5.805,5.805,0,0,0-2.374-3.393c-.71-.323-1.187-1.574-1.187-3.148a17.13,17.13,0,0,0-.451-3.328,3.741,3.741,0,0,0-1.742-2.077,2.077,2.077,0,0,1-1.122-1.509,2.44,2.44,0,0,1,0-.813c.155-.942-.5-.89-.916-2.219s-2.09-3.328-2.142-4.1-.981-1.226-.955-2.051-.439-.929-1.367-2.232-1.187-3.6-.916-3.677,1.045,1.922,1.29,2.58,1.29,2.645,2.025,2.645.981-3.006,1.226-2.851a.193.193,0,0,1,0,.09c.142.413,0,2.142.348,2.283s.684.955,1.626,1.987a16.694,16.694,0,0,1,2.916,4.515,2.8,2.8,0,0,0,1.548,2.232c1.187.8,1.187,1.78,1.806,2.258s.477,1.045.5,2.232a4.218,4.218,0,0,0,1.638,3.38,5.161,5.161,0,0,1,2.322,2.58,9.3,9.3,0,0,0,1.832,3.07c.684.671.3,1.032.684,1.535a5.343,5.343,0,0,1,.671,1.174,1.9,1.9,0,0,1,.168,1.29,4.425,4.425,0,0,0,.594,3.2c.619.929.387,2.58.684,2.941a4.877,4.877,0,0,0,3.651-.413,4.193,4.193,0,0,1,2.58-.8,3.574,3.574,0,0,0,2.206-1.071c.258-.361,1.484-.387,1.987-.322s1.006-.5,1.574-1.071,2.348-.8,4.244-1.393,1.5-1.484,1.935-2.025.9-.323,1.716-.645a4.538,4.538,0,0,0,.516-.245c1.122-.658,2.4-.323,3.264-.568s0-.955.774-1.574,1.806-.142,2.193-.361.658-1.561,1.29-1.832,1.367-.09,1.29-.658,0-2.58.684-2.709,1.6-.761,1.626-1.122a24.225,24.225,0,0,1,1.664-2.348c.387-.658.426-1.006-.142-1.1s-1.458-1.664-1.69-2.116-1.961-.142-3.367-1.29a3.87,3.87,0,0,1-1.071-2.142c-.3-1.29-.348-2.477-.555-2.5a8.383,8.383,0,0,0-2.413,2.709,3.87,3.87,0,0,1-3.806,1.78,2.58,2.58,0,0,0-2.374.619c-.1.077-.258,0-.426-.116a2.464,2.464,0,0,1-.826-1.29.722.722,0,0,1,0-.555c.387-.658.619-2.348-.245-2.58s-1.29,1.484-1.29,1.961c0,.09-.065.09-.155,0-.387-.271-1.432-1.755-1.071-2.167s-.232-1.574-.89-2.167-1.987-1.69-2.051-2.374a3.728,3.728,0,0,0-.245-.851,20.239,20.239,0,0,1-.968-2.58.49.49,0,0,1,.181-.335,2.1,2.1,0,0,1,.877-.464,1.9,1.9,0,0,1,.49-.09c.529,0,.5-.593.916-.232s.981,0,1.393-.064,1.548,2.116,2.051,3.148.477,1.406,1.161,1.845,1.458.206,2.438,1.226a8.772,8.772,0,0,0,4.567,1.742c1.071,0,1.884-1.148,3.251-.89s1.032,2.025,1.535,2.58,6.064,1.045,7.018,1.29a12.515,12.515,0,0,0,2.1.181,12.14,12.14,0,0,0,3.741-.271,1.29,1.29,0,0,1,1.548-.245,4.8,4.8,0,0,0,3.238,0c.98-.542,1.574,0,1.6.477s.477.684.929,1.1.116.89.413,1.368.89.387,1.755.774a1.654,1.654,0,0,1,.323.194c.593.477.852,1.29,1.845,1.7s2.206-.735,2.206.129-2.735.684-2.8.942,2.825,3.741,4.283,3.483,2.516-1.845,2.1-2.09.245-1.213.632-1.032,0,1.716.5,2.077.3,1.006,0,1.845.3,2.464.387,3.38.71,2.258.916,3.625a21.1,21.1,0,0,0,1.871,5.38c.8,1.522,1.432,4.49,1.961,5.16a9.792,9.792,0,0,1,1.9,4.219,6.089,6.089,0,0,0,1.961,3.561c.516.361,1.613-.413,1.884-1.29s1.78-1.161,1.871-1.871.232-1.29.761-1.368.542-.658.542-1.432a4.283,4.283,0,0,1,.593-2.58,4.36,4.36,0,0,0,.3-3.264,3.509,3.509,0,0,1,.155-2.58c.284-.735.168-1.6.735-1.664a3.277,3.277,0,0,0,1.987-1.367,21.937,21.937,0,0,1,3.07-2.438,19.893,19.893,0,0,0,3.238-3.264c.593-.98,2.284-1.29,3.058-2.1s.477-1.29.619-2.09,2.58-1.213,3.6-1.213a2.877,2.877,0,0,0,.5,0c.555-.1.813-.361,1.29-.361s1.535-.09,1.6-.774.8-1.187,1.213-.98a4.747,4.747,0,0,1,1.419,3.045,2.645,2.645,0,0,0,.322,1.006,4.154,4.154,0,0,0,1.884,1.987c1.148.477,1.922,2.825,2.283,4.077a4.412,4.412,0,0,1-.3,3.238c-.413.71.142.735.826,1.1s1.458.477,1.961-.232,1.548-1.29,1.7-2.025.619.387,1.032.8a3.664,3.664,0,0,1,.813,2.232c.077,1.006.168,3.535,1.032,4.335a3.638,3.638,0,0,1,.774,3.174c-.232.632.452,1.7.271,2.387a5.345,5.345,0,0,0-.116.542c-.168.864-.374,2.219-.568,2.967s-.413,1.716.116,1.78,1.6,1.29,2.645,2.58a4.221,4.221,0,0,1,.593.993,7.935,7.935,0,0,1,.568,3.083c0,1.187,1.78,3.083,2.051,3.87s.761,1.006,1.922,1.845,3.419,2.167,3.87,1.961-.684-2.167-1.29-2.851,0-2.58,0-3.87-1.29-1.187-1.548-2.1-.8-.387-.981-.98a.94.94,0,0,0-.155-.3,3.767,3.767,0,0,0-2.309-1.29c-1.006-.09-1.484-1.6-1.393-2.284s-.748-1.29-.748-1.871-.593-.632-1.29-.955.142-2.348.232-3.212,1.522-3.328,1.109-4.1,1.445-1.355,1.69-.5.323,1.29,1.509,1.29,1.187.851,2.142,1.122l.142.064c.761.335.464,1.29.542,1.806s.839.245,1.29.206-.271.658.09,1.071,1.393-.348,1.6.155a1.777,1.777,0,0,0,.181.31,3.29,3.29,0,0,0,.89.671c.477.3-.593.8-.568,1.755s.748,1.187,1.019.8a5.754,5.754,0,0,1,1.806-1.393c.452-.155,0-.8.477-.774s.323-.684.529-1.071.542-.245,1.29-.206a6.27,6.27,0,0,0,2.735-1.29c1.006-.645,1.187-.8,1.574-2.671a12.965,12.965,0,0,0-.477-4.657c0-.568-1.393-3.187-1.9-3.148s-2.825-2.348-3.238-2.735-.3-1.045-.89-1.548a3.316,3.316,0,0,1-.5-2.735c.142-.916,1.445-1.122,1.419-1.755s.116-1.161.774-1.187a2.168,2.168,0,0,0,1.574-1.045.452.452,0,0,1,.168-.142c.387-.194,1.071.129,1.226-.323s.839-.387,1.1,0,.568.542,1.161,0,.89.542.542.839-.116,1.213.439,1.755.658-.335.542-.864.942-1.071,2.825-1.69a9.857,9.857,0,0,0,3.87-2.3c0-.3,1.29.542,1.961,0a9.522,9.522,0,0,1,3.483-.568c.593,0,.568-.542,1.187-1.032s.477-.748,1.187-.955a1.613,1.613,0,0,0,1.161-1.226c0-.348,1.29-.477,1.367-.851s1.006-.516,1.006-.98.593-.387.864-.748-.206-1.393.271-1.548-.181-.71-.271-.98.89-.323,1.393-.645a2.09,2.09,0,0,0,.929-1.406c.09-.555.916-1.071,1.29-1.213s.529-.955.413-1.638.684-.5.323-.774.155-1.006.864-1.213-.439-.542-.826-.232-.8-.864-1.161-.426-1.367-.258-.71-.413a17.744,17.744,0,0,0,2.1-1.045c.452-.142-.658-1.122-1.213-1.1s-1.187-1.29-1.78-1.29.439-.413,1.122-.064,1.484.658,1.78.361-1.161-1.484-1.69-1.9,0-.98-.361-1.226a9.03,9.03,0,0,1-1.29-2.438c-.232-.684-1.484-.8-1.78-1.29a1.471,1.471,0,0,1,.955-1.884c.955-.387.529-1.148.955-1.058s.761-.09,1.1-.774.89-.271,1.213-.632,1.78-.323,2.284-.684-.464-1.445-1.148-1.29a1.819,1.819,0,0,1-1.961-.8c-.477-.71-1.729,1.29-2.683,1.755s-1.574-.8-1.29-1.6-.748-.774-2.077-.722-.839-2.374,0-2.49,2,.735,2.5-.748,1.213-.323,2.348-1.626,2.425-2.116,3.406-1.29-1.032,1.987-1.367,2.735.3.98-.3,1.548.245.71,1.406,0a25.046,25.046,0,0,1,3.716-2.077,2.207,2.207,0,0,1,.968-.116,3.548,3.548,0,0,1,2.3,1.135c.568.71-.658,1.509-1.187,2.167s.323.684.348,1.213.748.98,1.019.5.71-.3,1.535-.3a.516.516,0,0,1,.477.271c.232.387.181,1.032.632,1.071a.439.439,0,1,1-.129.864c-.671-.155-.684.916-.09,1.832s-1.122,1.961-.645,2.438.09,1.045.3,1.29,2.735-.116,3.87-1.29,1.393-.98,1.961-.826,1.135-.426.826-.864a5.251,5.251,0,0,1-.529-2.916c0-.787-1.032-2.232-2.077-3.38a12.9,12.9,0,0,0-1.78-1.664c-.684-.413-.271-1.574.555-1.78a25.128,25.128,0,0,0,3.509-2.142c.632-.361.206-1.522.71-2.438a10.966,10.966,0,0,1,2.245-2.167l.49-.374a4.632,4.632,0,0,1,1.664-.9c.748,0,1.484,1.29,2.322,1.29a12.462,12.462,0,0,0,4.632-2.916,28.242,28.242,0,0,1,3.264-3.625,16.035,16.035,0,0,0,2.942-3.948c.335-.761,1.793-2.258,2.142-2.851a11.016,11.016,0,0,0,1.29-2.051c.645-1.393.645-5.044.864-5.289s.09-.864.387-1.29.142-.929.735-1.432a1.045,1.045,0,0,0,.335-1.29c-.155-.387,0-1.29-.129-1.509s-.116-.387.245-.593-.245-.748-.748-.98-1.161-.452-1.213-1.006a1.7,1.7,0,0,0-1.574-1.2c-.658,0-1.871-.348-1.729,0s-.064.774-.387.684-.477.181-.864.774-1.755.658-1.122.09-.206-.593-.09-1.187.619-1.187,0-.813-.684,1.29-1.29,1.432-.387-1.6-.245-2.051-1.032,0-2.284,0-.929-.955.09-1.5.826-1.032,1.29-1.29,1.819-1.071,2.58-1.522a2.193,2.193,0,0,0,1.1-1.458c.181-.5,1.6-1.122,2.877-2.167a7.547,7.547,0,0,0,2.1-2.167c.3-.619,2.193-1.393,2.232-1.871s2.258-1.664,3.767-1.961a7.392,7.392,0,0,1,4.373.542.619.619,0,0,0,1.032,0c.271-.3.864-.142,1.871,0s1.29-.477,1.935-.271,1.29.335,1.664-.477,2.374-.645,2.825-.323.8.774,1.509.3.71.632,1.393.71.245.684-.348.632-1.29.3-.658.684,1.484-.361,2.026-.3a3.186,3.186,0,0,0,2.1-.361c.748-.477.955.387,1.432,0a3.418,3.418,0,0,1,2.077-.5c.529,0,.09-.632-.8-.632s-.864-.477-.155-1.69a11.612,11.612,0,0,1,2.941-2.58c.864-.735,1.484-.374,1.484-.851s.413-1.819,1.071-1.845a7.443,7.443,0,0,0,3.3-.3c1.006-.568.916.413,1.29.568s.968-.864,1.445-.568-.71,1.006-.98,1.871.632.529,1.135.774-.658.593-.542.826,1.135.245,2.438-1.071a4.322,4.322,0,0,1,3.29-1.716c.839.09.361-.735.413-1.961s2.58-1.574,3.458-1.213.761.684,0,.477-1.548.5-1.509,1.509-.722,1.29-.335,1.729-.555.477-.594.89,0,.735-.593.916-2.58.387-2.58,1.161-1.122.864-1.626,1.806-2.438,1.522-3.716,3.419-3.3,1.909-3.3,2.258-1.393.335-1.871.387.451,1.29-.684,2.438a6.837,6.837,0,0,0-1.845,4.606c0,1.69.593,6.567,1.109,7.431s.206,2.967.619,3.419.271,1.187.529,1.445,1.368-1.187,2.116-1.806.5-.826,1.006-1.161.3-1.69.452-2.051,1.071-.529,1.367-.916,1.071-.155,1.484-.3,0-1.135-.181-1.69,1.213-1.29,1.935-1.845,1.6.323,2.4-.413,0-1.613-.348-2,.8-2.258,1.419-2.438.955.452,1.548-.077-.542-1.406-.955-1.29-.568-1.522.413-2.258.593-.89,0-1.071-.774,0-1.29.09-1.019-1.045-.245-2.077,1.522-.929,1.7-1.78a9.42,9.42,0,0,1,1.509-2.58c.271-.452,1.29,0,1.755-.09s.271.8.774.348,1.29-1.922,2.013-1.922.245,1.1.426,1.755.555-.181,1.871-1.071a6.876,6.876,0,0,1,5.018-.387c.864.413,1.006,1.393,1.484,1.29.722-.181.116-.98.839-1.187a12.217,12.217,0,0,0,2.9-1.638c.955-.684.684-.181,1.187-.8s1.019-.361,1.161-.774a6.089,6.089,0,0,1,3.277-1.522c1.871-.426,4.309-1.664,4.18-2.051s.722-.568.813-.181.8.232,1.78.439,1.419.606,2.193-.168-.09-1.045,0-1.638-1.29-1.213-1.161-1.845-1.019-2.283-1.367-1.961-1.187-.271-1.187-.735,0-1.045-.632-.684-1.509.168-1.69-.361,1.1-.916,1.987-.568.632.722,1.071.98a3.264,3.264,0,0,0,2.3-.142c.619-.3,2.374-.864,2.671-1.367s0-.748.568-1.045.142-.916-.361-1.187a.507.507,0,0,1,.142-.98c.529,0,.387-.619.748-.658s.413.271,1.071,0,0,.5-.271,1.071.632,1.032.722,1.368,1.29.439,2.077,0a3.587,3.587,0,0,1,3.148,1.045,2.5,2.5,0,0,0,1.419,1.716c.955.477,1.819.271,2,.722a.838.838,0,0,0,1.071.555c.529-.116.826.477,1.213.129s.594.206,1.1-.245-1.1-.735-.89-1.1.542.271.981.232-.116-.89.206-.98.065-1.871-.3-1.987,0-.735.632-.232" transform="translate(46.887 0.92)" fill="#fff"/>
      <path id="Path_625" data-name="Path 625" d="M452.892,195.785a12.907,12.907,0,0,1,.3-2.077c0-.426.3-.593.839-.477s.477-1.135,0-1.29-.645-1.6-1.664-1.6-.826.826-.232.89.955.529.774.955-.413-.426-1.29-.361-.3-1.006-1.29-1.071-.761-1.78-1.78-1.78-1.071-.839-.413-1.432-1.006-1.122-1.006-1.845-1.071-.284-1.071-.89-.477-.3-1.006-1.006-.774,0-1.29-.593a1.613,1.613,0,0,0-1.548-.658c-.413.181-1.367-.761-1.716-1.716s-3.032-2.025-3.393-3.032-1.29-1.432-2.916-1.368-2.232-1.574-2.58-.774c-.477,1.006,1.716,3.264,2.735,3.87s1.535,2.722,2.722,2.851,1.29,3.87,2.206,4.038,2.787,3.083,3.083,4.631,2.258,2.322,2.916,3.445,3.264,2.671,3.625,3.148.71,1.548,1.006,1.006,1.548,0,2.142,0,.774-2.142.71-2.967" transform="translate(97.135 43.966)" fill="#fff"/>
      <path id="Path_626" data-name="Path 626" d="M464.291,201.156a40.29,40.29,0,0,0,10.321,2.167c2.051.245,4.1.49,6.154.542a8.063,8.063,0,0,0,3.6-.5c.581-.245,1.161-.955.735-1.419a1.019,1.019,0,0,0-.7-.271l-2.348-.348a5.161,5.161,0,0,1,3.212-1.509,32.844,32.844,0,0,0,3.587-.49.994.994,0,0,0,.748-.5.748.748,0,0,0-.426-.89,2.3,2.3,0,0,0-1.071-.129l-3.3.129a70.519,70.519,0,0,1-14.1-.361c-2.851-.452-5.625-1.29-8.463-1.845-1.5-.323-3.006-.568-4.528-.748a29.21,29.21,0,0,1-4.283-.387c-1.122-.31-3.986-1.987-4.928-.374-.658,1.135-1.226.116-.955,1.2.181.71.955.3,1.484.3s.3,1.006,1.071,1.122,3.328.839,3.561.3c.477-1.058,3.406.748,3.87,1.032a9.741,9.741,0,0,0,2.284.71,15.3,15.3,0,0,1,2.58,1.406,16.651,16.651,0,0,0,1.883.877" transform="translate(101.758 49.213)" fill="#fff"/>
      <path id="Path_627" data-name="Path 627" d="M452.58,186.174c.89.826.658,2.142,1.071,2.787s1.729.774,1.729,2.025,1.122,3.212,1.9,2.671,1.367.245,1.6.774,2.077-.413,2.683-.3,2.425.477,2.58,1.187,1.78,0,2.9-.477.477-3.806,1.548-4.451a3.07,3.07,0,0,0,1.187-3.1c-.116-1.187,2.58-1.29,3.032-1.716s-.593-1.29-1.367-1.613-.116-1.122-.658-1.6-1.419-1.716-.645-1.78-.542-1.135.116-1.484l.3-.155c.71-.348,1.716-.8,1.29-1.213s1.6-.064,1.832-.774-.826-1.29-1.355-1.187-1.793,0-1.793-.477a2.474,2.474,0,0,0-1.832-1.548c-.71,0-1.548,1.432-1.613,2.025s-1.187.529-1.071,1.368a.524.524,0,0,1-.426.555c-.271.09-.993.129-.993.452,0,.529-.9-.194-1.393-.232h0c-.477,0-1.535,1.664-1.78,2.787s-1.29.774-2.9.89-.955,1.78-1.29,2.58-2.09-.568-2.98-.748h-.232c-.761,0-2.051,2.1-1.29,2.8" transform="translate(103.213 43.476)" fill="#fff"/>
    </g>
    <circle id="Ellipse_28" data-name="Ellipse 28" cx="14" cy="14" r="14" transform="translate(1094 352)" fill="#ff6242"/>
    <circle id="Ellipse_45" data-name="Ellipse 45" cx="14" cy="14" r="14" transform="translate(1202 429)" fill="#ff6242"/>
    <circle id="Ellipse_38" data-name="Ellipse 38" cx="29" cy="29" r="29" transform="translate(1234 166)" fill="#ff6242"/>
    <circle id="Ellipse_31" data-name="Ellipse 31" cx="5" cy="5" r="5" transform="translate(1175 474)" fill="#ff6242"/>
    <circle id="Ellipse_32" data-name="Ellipse 32" cx="5.5" cy="5.5" r="5.5" transform="translate(1586 526)" fill="#04c9f2"/>
    <circle id="Ellipse_42" data-name="Ellipse 42" cx="12.5" cy="12.5" r="12.5" transform="translate(1637 435)" fill="#04c9f2"/>
    <circle id="Ellipse_34" data-name="Ellipse 34" cx="5" cy="5" r="5" transform="translate(1481 421)" fill="#04c9f2"/>
    <circle id="Ellipse_30" data-name="Ellipse 30" cx="9" cy="9" r="9" transform="translate(1363 451)" fill="#df80b1"/>
    <circle id="Ellipse_39" data-name="Ellipse 39" cx="21" cy="21" r="21" transform="translate(1280 541)" fill="#df80b1"/>
    <circle id="Ellipse_36" data-name="Ellipse 36" cx="9" cy="9" r="9" transform="translate(1147 399)" fill="#df80b1"/>
    <circle id="Ellipse_29" data-name="Ellipse 29" cx="8" cy="8" r="8" transform="translate(1527 356)" fill="#f2df44"/>
    <circle id="Ellipse_35" data-name="Ellipse 35" cx="4" cy="4" r="4" transform="translate(1426 345)" fill="#ffdb0a"/>
    <g id="Ellipse_33" data-name="Ellipse 33" transform="translate(1087 345)" fill="none" stroke="#ff6242" stroke-width="1">
      <circle cx="21" cy="21" r="21" stroke="none"/>
      <circle cx="21" cy="21" r="20.5" fill="none"/>
    </g>
    <g id="Ellipse_37" data-name="Ellipse 37" transform="translate(1360 448)" fill="none" stroke="#df80b1" stroke-width="1">
      <circle cx="12" cy="12" r="12" stroke="none"/>
      <circle cx="12" cy="12" r="11.5" fill="none"/>
    </g>
    <line id="Line_20" data-name="Line 20" y1="141" x2="127.5" transform="translate(1122.5 208.5)" fill="none" stroke="#ff6242" stroke-width="1"/>
    <line id="Line_23" data-name="Line 23" y1="30" x2="30" transform="translate(1186.25 445)" fill="none" stroke="#ff6242" stroke-width="1"/>
    <line id="Line_21" data-name="Line 21" y1="89" x2="61" transform="translate(1305 469)" fill="none" stroke="#df80b1" stroke-width="1"/>
    <line id="Line_22" data-name="Line 22" y1="69" x2="47" transform="translate(1596 457)" fill="none" stroke="#04c9f2" stroke-width="1"/>
    <g id="Group_670" data-name="Group 670" transform="translate(1255.953 182.451)">
      <g id="Path_4" data-name="Path 4" transform="translate(0 11.001)" fill="none">
        <path d="M0,0H14.1V14.1H4.155A4.155,4.155,0,0,1,0,9.942Z" stroke="none"/>
        <path d="M 2.000000953674316 2.000000953674316 L 2.000000953674316 9.94171142578125 C 2.000000953674316 11.12984085083008 2.966621398925781 12.09646129608154 4.154750823974609 12.09646129608154 L 12.09646129608154 12.09646129608154 L 12.09646129608154 2.000000953674316 L 2.000000953674316 2.000000953674316 M 9.5367431640625e-07 9.5367431640625e-07 L 14.09646129608154 9.5367431640625e-07 L 14.09646129608154 14.09646129608154 L 4.154750823974609 14.09646129608154 C 1.860140800476074 14.09646129608154 9.5367431640625e-07 12.23632144927979 9.5367431640625e-07 9.94171142578125 L 9.5367431640625e-07 9.5367431640625e-07 Z" stroke="none" fill="#fff"/>
      </g>
      <g id="Ellipse_1" data-name="Ellipse 1" transform="translate(2.125 0)" fill="none" stroke="#fff" stroke-width="2">
        <circle cx="4.957" cy="4.957" r="4.957" stroke="none"/>
        <circle cx="4.957" cy="4.957" r="3.957" fill="none"/>
      </g>
    </g>
    <g id="Group_671" data-name="Group 671" transform="translate(1296.352 553.726)">
      <g id="Path_4-2" data-name="Path 4" transform="translate(0 7.254)" fill="none">
        <path d="M0,0H9.295V9.295H2.74A2.74,2.74,0,0,1,0,6.555Z" stroke="none"/>
        <path d="M 1.499997615814209 1.499997615814209 L 1.499997615814209 6.555377960205078 C 1.499997615814209 7.238877296447754 2.056057453155518 7.794937610626221 2.73955774307251 7.794937610626221 L 7.794937610626221 7.794937610626221 L 7.794937610626221 1.499997615814209 L 1.499997615814209 1.499997615814209 M -2.86102294921875e-06 -2.86102294921875e-06 L 9.294938087463379 -2.86102294921875e-06 L 9.294938087463379 9.294938087463379 L 2.73955774307251 9.294938087463379 C 1.226537704467773 9.294938087463379 -2.86102294921875e-06 8.068397521972656 -2.86102294921875e-06 6.555377960205078 L -2.86102294921875e-06 -2.86102294921875e-06 Z" stroke="none" fill="#fff"/>
      </g>
      <g id="Ellipse_1-2" data-name="Ellipse 1" transform="translate(1.401 0)" fill="none" stroke="#fff" stroke-width="1.5">
        <circle cx="3.269" cy="3.269" r="3.269" stroke="none"/>
        <circle cx="3.269" cy="3.269" r="2.519" fill="none"/>
      </g>
    </g>
    <g id="Group_678" data-name="Group 678" transform="translate(1644.854 439.726)">
      <g id="Path_4-3" data-name="Path 4" transform="translate(0 6.421)" fill="none">
        <path d="M0,0H8.229V8.229h-5.8A2.425,2.425,0,0,1,0,5.8Z" stroke="none"/>
        <path d="M 1.199997901916504 1.199997901916504 L 1.199997901916504 5.803267478942871 C 1.199997901916504 6.478878021240234 1.749637603759766 7.028517723083496 2.425247669219971 7.028517723083496 L 7.028517723083496 7.028517723083496 L 7.028517723083496 1.199997901916504 L 1.199997901916504 1.199997901916504 M -1.9073486328125e-06 -1.9073486328125e-06 L 8.228517532348633 -1.9073486328125e-06 L 8.228517532348633 8.228517532348633 L 2.425247669219971 8.228517532348633 C 1.085817813873291 8.228517532348633 -1.9073486328125e-06 7.142697811126709 -1.9073486328125e-06 5.803267478942871 L -1.9073486328125e-06 -1.9073486328125e-06 Z" stroke="none" fill="#fff"/>
      </g>
      <g id="Ellipse_1-3" data-name="Ellipse 1" transform="translate(1.24 0)" fill="none" stroke="#fff" stroke-width="1.2">
        <circle cx="2.894" cy="2.894" r="2.894" stroke="none"/>
        <circle cx="2.894" cy="2.894" r="2.294" fill="none"/>
      </g>
    </g>
    <g id="Ellipse_43" data-name="Ellipse 43" transform="translate(1584 524)" fill="none" stroke="#04c9f2" stroke-width="1">
      <circle cx="7.5" cy="7.5" r="7.5" stroke="none"/>
      <circle cx="7.5" cy="7.5" r="7" fill="none"/>
    </g>
    <g id="Ellipse_44" data-name="Ellipse 44" transform="translate(1173 472)" fill="none" stroke="#ff6242" stroke-width="1">
      <circle cx="7" cy="7" r="7" stroke="none"/>
      <circle cx="7" cy="7" r="6.5" fill="none"/>
    </g>
    <g id="Group_690" data-name="Group 690" transform="translate(1211.352 433.726)">
      <g id="Path_4-4" data-name="Path 4" transform="translate(0 7.254)" fill="none">
        <path d="M0,0H9.295V9.295H2.74A2.74,2.74,0,0,1,0,6.555Z" stroke="none"/>
        <path d="M 1.499997615814209 1.499997615814209 L 1.499997615814209 6.555377960205078 C 1.499997615814209 7.238877296447754 2.056057453155518 7.794937610626221 2.73955774307251 7.794937610626221 L 7.794937610626221 7.794937610626221 L 7.794937610626221 1.499997615814209 L 1.499997615814209 1.499997615814209 M -2.86102294921875e-06 -2.86102294921875e-06 L 9.294938087463379 -2.86102294921875e-06 L 9.294938087463379 9.294938087463379 L 2.73955774307251 9.294938087463379 C 1.226537704467773 9.294938087463379 -2.86102294921875e-06 8.068397521972656 -2.86102294921875e-06 6.555377960205078 L -2.86102294921875e-06 -2.86102294921875e-06 Z" stroke="none" fill="#fff"/>
      </g>
      <g id="Ellipse_1-4" data-name="Ellipse 1" transform="translate(1.401 0)" fill="none" stroke="#fff" stroke-width="1.5">
        <circle cx="3.269" cy="3.269" r="3.269" stroke="none"/>
        <circle cx="3.269" cy="3.269" r="2.519" fill="none"/>
      </g>
    </g>
  </g>
</svg>
