<svg xmlns="http://www.w3.org/2000/svg" width="90" height="90" viewBox="0 0 90 90">
  <g id="Group_688" data-name="Group 688" transform="translate(-1320 -1986)">
    <g id="Group_676" data-name="Group 676" transform="translate(1320 1986)">
      <g id="Ellipse_41" data-name="Ellipse 41" fill="none" stroke="#04c9f2" stroke-width="2">
        <circle cx="45" cy="45" r="45" stroke="none"/>
        <circle cx="45" cy="45" r="44" fill="none"/>
      </g>
      <circle id="Ellipse_40" data-name="Ellipse 40" cx="35" cy="35" r="35" transform="translate(10 10)" fill="#04c9f2"/>
    </g>
    <g id="noun-lottery-ticket-575391" transform="translate(1344.026 2019.243)">
      <path id="Path_165" data-name="Path 165" d="M107.8,17.5H72.53a2.522,2.522,0,0,0-2.52,2.52V38.5a2.522,2.522,0,0,0,2.52,2.52H107.8a2.522,2.522,0,0,0,2.52-2.52V20.024A2.522,2.522,0,0,0,107.8,17.5Zm.841,21a.842.842,0,0,1-.841.841H72.529a.842.842,0,0,1-.84-.841V20.024a.841.841,0,0,1,.84-.84H107.8a.841.841,0,0,1,.841.84Z" transform="translate(-70.01 -17.504)" fill="#fff"/>
      <path id="Path_166" data-name="Path 166" d="M360.078,64.164H350v16.8h16.8v-16.8Zm-3.36,1.68h3.36V69.2h-3.36Zm3.36,8.4h-3.36v-3.36h3.36Zm-8.4-8.4h3.36V69.2h-3.36Zm0,5.039h3.36v3.36h-3.36Zm3.36,8.4h-3.36V75.922h3.36Zm5.039,0h-3.36V75.922h3.36Zm5.039,0h-3.36V75.922h3.36Zm0-5.039h-3.36v-3.36h3.36Zm0-8.4V69.2h-3.36V65.844Z" transform="translate(-329.844 -60.805)" fill="#fff"/>
      <path id="Path_167" data-name="Path 167" d="M134.98,64.164a6.726,6.726,0,1,0,6.726,6.726A6.733,6.733,0,0,0,134.98,64.164Zm0,11.772a5.046,5.046,0,1,1,5.045-5.047A5.052,5.052,0,0,1,134.98,75.936Z" transform="translate(-124.061 -59.132)" fill="#fff"/>
    </g>
    <path id="Polygon_2" data-name="Polygon 2" d="M3.682,0,4.6,2.738l2.761.074L5.171,4.579l.786,2.784L3.682,5.717,1.406,7.364l.786-2.784L0,2.813l2.761-.074Z" transform="translate(1372.773 2007.273)" fill="#fff"/>
    <path id="Polygon_3" data-name="Polygon 3" d="M3.682,0,4.6,2.738l2.761.074L5.171,4.579l.786,2.784L3.682,5.717,1.406,7.364l.786-2.784L0,2.813l2.761-.074Z" transform="matrix(0.891, -0.454, 0.454, 0.891, 1344.502, 2009.55)" fill="#fff"/>
    <path id="Polygon_4" data-name="Polygon 4" d="M3.682,0,4.6,2.738l2.761.074L5.171,4.579l.786,2.784L3.682,5.717,1.406,7.364l.786-2.784L0,2.813l2.761-.074Z" transform="matrix(0.891, -0.454, 0.454, 0.891, 1355.957, 2047.229)" fill="#fff"/>
  </g>
</svg>
