<svg id="Logo-Color" xmlns="http://www.w3.org/2000/svg" width="244" height="44.18" viewBox="0 0 244 44.18">
  <text id="LOTTERY_of_the_people" data-name="LOTTERY of the people" transform="translate(56 19.18)" fill="#241f21" font-size="16" font-family="Poppins-Bold, Poppins" font-weight="700"><tspan x="0" y="0">LOTTERY OF THE PEOPLE</tspan></text>
  <text id="BY_WORLD_CITIZEN" data-name="BY WORLD CITIZEN" transform="translate(57 39.18)" fill="#ada7a9" font-size="14" font-family="Poppins-Medium, Poppins" font-weight="500"><tspan x="0" y="0">BY WORLD CITIZEN</tspan></text>
  <g id="Group_1" data-name="Group 1" transform="translate(0 3.541)">
    <path id="Path_4" data-name="Path 4" d="M0,0H14.1V14.1H4.155A4.155,4.155,0,0,1,0,9.942Z" transform="translate(0 11.001)" fill="#ff6142"/>
    <circle id="Ellipse_1" data-name="Ellipse 1" cx="4.957" cy="4.957" r="4.957" transform="translate(2.125 0)" fill="#ff6142"/>
  </g>
  <g id="Group_2" data-name="Group 2" transform="translate(39.658) rotate(90)">
    <path id="Path_1" data-name="Path 1" d="M0,0H14.1V14.1H4.155A4.155,4.155,0,0,1,0,9.942Z" transform="translate(0 11.02)" fill="#ffdb0a"/>
    <circle id="Ellipse_1-2" data-name="Ellipse 1" cx="4.957" cy="4.957" r="4.957" transform="translate(2.125 0)" fill="#ffdb0a"/>
  </g>
  <g id="Group_3" data-name="Group 3" transform="translate(43.18 39.658) rotate(180)">
    <path id="Path_2" data-name="Path 2" d="M0,0H14.1V14.1H4.155A4.155,4.155,0,0,1,0,9.942Z" transform="translate(0 11.02)" fill="#04c9f2"/>
    <circle id="Ellipse_1-3" data-name="Ellipse 1" cx="4.957" cy="4.957" r="4.957" transform="translate(2.105 0)" fill="#04c9f2"/>
  </g>
  <g id="Group_4" data-name="Group 4" transform="translate(3.541 43.18) rotate(-90)">
    <path id="Path_3" data-name="Path 3" d="M0,0H14.1V14.1H4.155A4.155,4.155,0,0,1,0,9.942Z" transform="translate(0 11.001)" fill="#26458c"/>
    <circle id="Ellipse_1-4" data-name="Ellipse 1" cx="4.957" cy="4.957" r="4.957" transform="translate(2.105 0)" fill="#26458c"/>
  </g>
</svg>
