<svg id="XDC-Icon-128X128" xmlns="http://www.w3.org/2000/svg" width="80" height="80" viewBox="0 0 80 80">
  <path id="Combined_Shape" data-name="Combined Shape" d="M40,80A40.315,40.315,0,0,1,13.079,69.736,39.833,39.833,0,0,1,0,44.491L9.037,40,0,35.51A39.831,39.831,0,0,1,13.079,10.263a40.44,40.44,0,0,1,53.843,0A39.835,39.835,0,0,1,80,35.511L70.963,40,80,44.491A39.832,39.832,0,0,1,66.922,69.736,40.311,40.311,0,0,1,40,80Z" fill="#2149b9"/>
  <path id="X" d="M6.223,30.625l6.646-11.232,6.625,11.232h6.244L16.213,15.186,25.526,0h-6.18L12.869,11.064,6.392,0H.212L9.546,15.186,0,30.625Z" transform="translate(27.064 24.76)" fill="#fff"/>
</svg>
