<?xml version="1.0" encoding="UTF-8"?> <svg xmlns="http://www.w3.org/2000/svg" xmlns:xlink="http://www.w3.org/1999/xlink" width="401px" height="64px" viewBox="0 0 401 64" version="1.1"><!-- Generator: Sketch 64 (93537) - https://sketch.com --><title>LeewayHertz</title><desc>Created with Sketch.</desc><g id="Page-1" stroke="none" stroke-width="1" fill="none" fill-rule="evenodd"><g id="Artboard" fill="#051C2C" fill-rule="nonzero"><path d="M37.9250384,48.747182 L38.9509637,34.2501342 L36.5229405,34.2501342 C36.0441753,35.5784577 35.183538,37.313294 33.9410285,39.454643 C32.698519,41.5959921 31.6098982,43.1934156 30.6751663,44.2469136 C30.3559895,44.6133476 29.8601256,44.9168009 29.1875746,45.1572732 C28.5150236,45.3977456 27.7797771,45.5866881 26.9818352,45.7241009 C26.161095,45.8615137 25.2947581,45.9531222 24.3828245,45.9989265 C23.4708909,46.0447307 22.5931548,46.0676329 21.7496162,46.0676329 C19.8801524,46.0676329 18.4267582,46.004652 17.3894337,45.8786903 C16.3521093,45.7527286 15.5712661,45.4836286 15.0469043,45.0713902 C14.4997442,44.6133476 14.1520695,43.9663625 14.0038803,43.1304348 C13.8556911,42.2945071 13.7815965,41.1207729 13.7815965,39.6092324 L13.7815965,39.6092324 L13.7815965,6.87063875 C13.7815965,6.11486849 13.9240861,5.40490249 14.2090653,4.74074074 C14.4940446,4.07657899 15.024106,3.60708535 15.7992495,3.3322598 C16.2552163,3.17194489 16.9904628,2.98872786 18.0049889,2.7826087 C19.019515,2.57648953 19.8459549,2.46197889 20.4843084,2.43907676 L20.4843084,2.43907676 L20.4843084,0 L0,0 L0,2.43907676 C0.615555177,2.48488102 1.39639832,2.63947039 2.34252942,2.90284487 C3.28866053,3.16621936 4.02390699,3.43531938 4.5482688,3.71014493 C5.32341236,4.07657899 5.84207459,4.55752371 6.1042555,5.15297907 C6.36643641,5.74843442 6.49752686,6.4354983 6.49752686,7.21417069 L6.49752686,7.21417069 L6.49752686,42.1170156 C6.49752686,43.0101986 6.34363807,43.7430667 6.03586048,44.31562 C5.72808289,44.8881732 5.232219,45.3233137 4.5482688,45.6210413 C4.13789869,45.8042584 3.4140514,45.9531222 2.37672693,46.0676329 C1.33940247,46.1821435 0.547160157,46.2623009 0,46.3081052 L0,46.3081052 L0,48.747182 L37.9250384,48.747182 Z M57.486014,49.640365 C60.5637899,49.640365 63.2881915,48.8387905 65.6592188,47.2356414 C68.0302462,45.6324924 69.9225084,43.4796923 71.3360055,40.777241 L71.3360055,40.777241 L68.9421798,39.3000537 C67.5742794,41.7734836 66.1550827,43.4854178 64.6845898,44.4358561 C63.2140969,45.3862945 61.4643243,45.8615137 59.435272,45.8615137 C57.4518165,45.8615137 55.741941,45.477903 54.3056456,44.7106817 C52.8693502,43.9434604 51.7066348,42.895688 50.8174996,41.5673645 C49.905566,40.1932367 49.2387145,38.6015387 48.8169452,36.7922705 C48.395176,34.9830023 48.1842913,32.967615 48.1842913,30.7461084 L48.1842913,30.7461084 L70.5152652,30.7461084 L70.5152652,28.4787976 C70.5152652,26.4405081 70.2587839,24.5510825 69.7458213,22.8105207 C69.2328586,21.0699588 68.4520155,19.5584183 67.4032918,18.2758991 C66.3089715,16.9246735 64.8840753,15.8597245 63.1286031,15.0810521 C61.3731309,14.3023797 59.2642845,13.9130435 56.8020638,13.9130435 C54.4082381,13.9130435 52.2480954,14.4111648 50.3216357,15.4074074 C48.395176,16.40365 46.7821934,17.7147969 45.482688,19.3408481 C44.137586,21.0356057 43.1173603,22.9422079 42.4220109,25.0606549 C41.7266615,27.1791018 41.3789869,29.3376275 41.3789869,31.5362319 C41.3789869,33.9867597 41.7038632,36.3113258 42.3536159,38.5099302 C43.0033686,40.7085346 43.9893968,42.6323135 45.3117005,44.2812668 C46.6340042,45.9302201 48.3153818,47.2356414 50.3558332,48.1975309 C52.3962846,49.1594203 54.7730115,49.640365 57.486014,49.640365 Z M63.7783558,27.8604402 L48.1842913,27.8604402 C48.3210814,24.287708 49.1817187,21.4993738 50.7662033,19.4954375 C52.3506879,17.4915012 54.3398431,16.489533 56.7336688,16.489533 C58.1699642,16.489533 59.3440787,16.8216139 60.2560123,17.4857756 C61.1679459,18.1499374 61.8860936,19.0087672 62.4104554,20.0622652 C62.8892205,21.0470567 63.2368952,22.2723206 63.4534794,23.7380569 C63.6700637,25.2037932 63.7783558,26.5779209 63.7783558,27.8604402 L63.7783558,27.8604402 Z M91.3415487,49.640365 C94.4193246,49.640365 97.1437262,48.8387905 99.5147535,47.2356414 C101.885781,45.6324924 103.778043,43.4796923 105.19154,40.777241 L105.19154,40.777241 L102.797714,39.3000537 C101.429814,41.7734836 100.010617,43.4854178 98.5401245,44.4358561 C97.0696316,45.3862945 95.319859,45.8615137 93.2908068,45.8615137 C91.3073512,45.8615137 89.5974757,45.477903 88.1611803,44.7106817 C86.7248849,43.9434604 85.5621695,42.895688 84.6730343,41.5673645 C83.7611007,40.1932367 83.0942492,38.6015387 82.67248,36.7922705 C82.2507107,34.9830023 82.039826,32.967615 82.039826,30.7461084 L82.039826,30.7461084 L104.3708,30.7461084 L104.3708,28.4787976 C104.3708,26.4405081 104.114319,24.5510825 103.601356,22.8105207 C103.088393,21.0699588 102.30755,19.5584183 101.258827,18.2758991 C100.164506,16.9246735 98.73961,15.8597245 96.9841378,15.0810521 C95.2286656,14.3023797 93.1198192,13.9130435 90.6575985,13.9130435 C88.2637728,13.9130435 86.1036301,14.4111648 84.1771704,15.4074074 C82.2507107,16.40365 80.6377281,17.7147969 79.3382228,19.3408481 C77.9931207,21.0356057 76.972895,22.9422079 76.2775456,25.0606549 C75.5821963,27.1791018 75.2345216,29.3376275 75.2345216,31.5362319 C75.2345216,33.9867597 75.5593979,36.3113258 76.2091506,38.5099302 C76.8589033,40.7085346 77.8449315,42.6323135 79.1672352,44.2812668 C80.4895389,45.9302201 82.1709165,47.2356414 84.2113679,48.1975309 C86.2518193,49.1594203 88.6285463,49.640365 91.3415487,49.640365 Z M97.6338905,27.8604402 L82.039826,27.8604402 C82.1766161,24.287708 83.0372534,21.4993738 84.621738,19.4954375 C86.2062226,17.4915012 88.1953778,16.489533 90.5892035,16.489533 C92.0254989,16.489533 93.1996134,16.8216139 94.111547,17.4857756 C95.0234806,18.1499374 95.7416283,19.0087672 96.2659901,20.0622652 C96.7447552,21.0470567 97.0924299,22.2723206 97.3090142,23.7380569 C97.5255984,25.2037932 97.6338905,26.5779209 97.6338905,27.8604402 L97.6338905,27.8604402 Z M123.658195,48.9876543 L132.788931,24.0472356 L141.851271,48.9876543 L144.792257,48.9876543 C145.134232,47.7280372 145.516104,46.4111648 145.937873,45.037037 C146.359642,43.6629093 146.775712,42.3803901 147.186082,41.1894793 C148.439991,37.4335301 149.574208,34.0497406 150.588734,31.0381106 C151.603261,28.0264806 152.680482,24.8373591 153.820399,21.4707461 C154.321963,20.0508141 155.125604,18.9858651 156.231324,18.2758991 C157.337043,17.5659331 158.368668,17.1651458 159.326198,17.0735373 L159.326198,17.0735373 L159.326198,14.8749329 L146.502132,14.8749329 L146.502132,17.0735373 C146.752914,17.0735373 147.146185,17.1193416 147.681946,17.2109501 C148.217707,17.3025586 148.713571,17.4399714 149.169538,17.6231884 C149.6939,17.8293076 150.138467,18.0926821 150.503241,18.4133119 C150.868014,18.7339417 151.050401,19.1003757 151.050401,19.5126141 C151.050401,19.9935588 150.976306,20.480229 150.828117,20.9726248 C150.679928,21.4650206 150.526039,22.0089461 150.366451,22.6044015 C149.636904,25.1236357 148.787666,27.8203614 147.818736,30.6945786 C146.849807,33.5687958 145.875178,36.5403471 144.894849,39.6092324 L144.894849,39.6092324 L136.106089,15.5619968 L132.823128,15.5619968 L124.205356,39.9527644 C122.746262,35.2120236 121.555049,31.3587404 120.631716,28.3929147 C119.708383,25.4270889 118.881943,22.7418143 118.152396,20.3370907 C118.038405,19.9935588 117.941512,19.672929 117.861718,19.3752013 C117.781923,19.0774736 117.742026,18.8828055 117.742026,18.791197 C117.742026,18.264448 118.180894,17.8865629 119.05863,17.6575416 C119.936366,17.4285203 120.751407,17.3025586 121.503752,17.2796565 L121.503752,17.2796565 L121.503752,14.8749329 L106.456848,14.8749329 L106.456848,17.1422437 C107.414378,17.2567543 108.406106,17.6231884 109.432031,18.2415459 C110.457957,18.8599034 111.153306,19.7072822 111.518079,20.7836822 C112.771988,24.4938272 114.213983,28.8509572 115.844064,33.8550725 C117.474146,38.8591877 119.144124,43.9033816 120.854,48.9876543 L120.854,48.9876543 L123.658195,48.9876543 Z M169.688044,49.6060118 C172.081869,49.6060118 174.12802,49.1708714 175.826497,48.3005904 C177.524973,47.4303095 179.115157,46.1706924 180.597049,44.5217391 L180.597049,44.5217391 L180.802234,44.5217391 C181.098613,46.1248882 181.776863,47.3444266 182.836986,48.1803543 C183.897109,49.016282 185.316306,49.4342458 187.094576,49.4342458 C188.120501,49.4342458 189.038135,49.3140097 189.847476,49.0735373 C190.656817,48.8330649 191.597248,48.5181607 192.66877,48.1288245 L192.66877,48.1288245 L192.66877,45.9302201 C191.893627,45.9302201 191.135582,45.918769 190.394636,45.8958669 C189.65369,45.8729648 189.112229,45.7584541 188.770254,45.5523349 C188.131901,45.1859009 187.658835,44.7393094 187.351057,44.2125604 C187.04328,43.6858114 186.889391,42.9758454 186.889391,42.0826624 C186.889391,39.0824834 186.923589,36.3170514 186.991984,33.7863661 C187.060379,31.2556808 187.094576,28.3528359 187.094576,25.0778315 C187.094576,22.7876185 186.792498,20.9153695 186.188342,19.4610843 C185.584186,18.0067991 184.70075,16.8559671 183.538035,16.0085883 C182.37532,15.1383074 181.081514,14.5714797 179.656618,14.3081052 C178.231722,14.0447307 176.561743,13.9130435 174.646683,13.9130435 C173.255984,13.9130435 171.831088,14.1363392 170.371994,14.5829308 C168.9129,15.0295223 167.670391,15.5734478 166.644465,16.2147075 C165.458952,16.9704777 164.495722,17.8293076 163.754776,18.791197 C163.01383,19.7530864 162.643357,20.7607801 162.643357,21.814278 C162.643357,22.8219717 162.911237,23.7323314 163.446998,24.545357 C163.982759,25.3583825 164.820598,25.7648953 165.960515,25.7648953 C167.237222,25.7648953 168.234649,25.4328145 168.952797,24.7686527 C169.670945,24.104491 170.030019,23.3716228 170.030019,22.5700483 C170.030019,21.814278 169.921727,20.9898014 169.705142,20.0966184 C169.488558,19.2034353 169.380266,18.5278225 169.380266,18.0697799 C169.74504,17.6804437 170.377693,17.3082841 171.278228,16.9533011 C172.178762,16.5983181 173.153391,16.4208266 174.202115,16.4208266 C175.729604,16.4208266 176.909418,16.7357309 177.741557,17.3655395 C178.573697,17.995348 179.21775,18.7339417 179.673717,19.5813205 C180.084087,20.3370907 180.351967,21.1386652 180.477358,21.986044 C180.602749,22.8334228 180.665444,23.405976 180.665444,23.7037037 L180.665444,23.7037037 L180.665444,27.1046699 C179.571124,27.7001252 177.456578,28.5246019 174.321806,29.5780998 C171.187035,30.6315978 169.106686,31.3530149 168.080761,31.742351 C167.26002,32.0629809 166.382284,32.4923958 165.447552,33.0305958 C164.512821,33.5687958 163.760475,34.1814278 163.190517,34.8684917 C162.46097,35.6929683 161.91381,36.6205046 161.549036,37.6511004 C161.184263,38.6816962 161.001876,39.8497048 161.001876,41.1551261 C161.001876,43.6743604 161.816917,45.7126498 163.446998,47.2699946 C165.077079,48.8273394 167.157428,49.6060118 169.688044,49.6060118 Z M173.141992,45.8271605 C171.614503,45.8271605 170.354895,45.380569 169.363167,44.4873859 C168.37144,43.5942029 167.875576,42.197173 167.875576,40.2962963 C167.875576,38.83056 168.206152,37.5652174 168.867303,36.5002684 C169.528455,35.4353194 170.42899,34.5135087 171.568907,33.7348363 C172.822815,32.9103596 174.179317,32.2232958 175.63841,31.6736447 C177.097504,31.1239936 178.79598,30.5628914 180.733839,29.9903382 L180.733839,29.9903382 L180.528654,41.84219 C179.685116,42.9185901 178.647791,43.8518519 177.416681,44.6419753 C176.185571,45.4320988 174.760674,45.8271605 173.141992,45.8271605 Z M199.166297,64 C200.078231,64 200.961666,63.8339596 201.816604,63.5018787 C202.671542,63.1697978 203.623373,62.5228127 204.672096,61.5609232 C205.743618,60.5303274 206.843638,59.116121 207.972156,57.3183038 C209.100674,55.5204867 210.38308,53.0184291 211.819376,49.812131 C212.913696,47.3616031 214.515279,43.5369476 216.624126,38.3381643 C218.732972,33.1393809 221.143897,27.3794954 223.856899,21.0585078 C224.404059,19.8217928 225.236199,18.8656289 226.353317,18.1900161 C227.470436,17.5144033 228.37097,17.1193416 229.054921,17.0048309 L229.054921,17.0048309 L229.054921,14.8749329 L216.538632,14.8749329 L216.538632,17.0735373 C217.473364,17.188048 218.459392,17.5029522 219.496717,18.0182501 C220.534041,18.533548 221.052703,19.0889247 221.052703,19.68438 C221.052703,20.2340311 220.904514,20.8924673 220.608136,21.6596887 C220.311757,22.42691 220.083774,23.0280909 219.924186,23.4632313 C218.556285,27.0359635 217.319475,30.1334765 216.213756,32.7557703 C215.108036,35.3780641 214.042214,37.9144749 213.016289,40.3650027 C212.03596,37.7999642 210.65666,34.3818214 208.87839,30.1105743 C207.100119,25.8393272 205.777816,22.5700483 204.911479,20.3027375 C204.774689,19.9592056 204.654997,19.6271247 204.552405,19.3064949 C204.449812,18.9858651 204.398516,18.7568438 204.398516,18.619431 C204.398516,18.2758991 204.877281,17.9724459 205.834812,17.7090714 C206.792342,17.4456969 207.613082,17.3025586 208.297032,17.2796565 L208.297032,17.2796565 L208.297032,14.8749329 L192.908153,14.8749329 L192.908153,17.1422437 C193.934078,17.3025586 194.960003,17.6747182 195.985929,18.2587225 C197.011854,18.8427268 197.741401,19.6614779 198.174569,20.7149758 C200.08963,25.2954017 201.924896,29.7269637 203.680368,34.0096618 C205.435841,38.29236 207.396498,43.1476114 209.56234,48.575416 C208.855592,50.5449991 207.709975,52.835212 206.12549,55.4460548 C204.541006,58.0568975 203.178805,59.6714976 202.038888,60.2898551 C201.810905,59.9005189 201.503127,59.4081231 201.115555,58.8126677 C200.727983,58.2172124 200.36321,57.7477187 200.021235,57.4041868 C199.610865,56.9690463 199.143499,56.6140633 198.619137,56.3392378 C198.094775,56.0644122 197.467821,55.9269995 196.738274,55.9269995 C195.803542,55.9269995 195.022699,56.287708 194.395744,57.0091251 C193.76879,57.7305421 193.455313,58.6638039 193.455313,59.8089104 C193.455313,60.9082126 193.962576,61.8815531 194.977102,62.7289318 C195.991628,63.5763106 197.388027,64 199.166297,64 Z M251.522685,48.747182 L251.522685,46.3081052 C250.952726,46.2852031 250.171883,46.1706924 249.180155,45.9645733 C248.188427,45.7584541 247.498778,45.5523349 247.111206,45.3462158 C246.336062,44.9339775 245.8174,44.4530327 245.555219,43.9033816 C245.293038,43.3537305 245.161948,42.6781177 245.161948,41.8765432 L245.161948,41.8765432 L245.161948,24.9060655 L267.971687,24.9060655 L267.971687,42.2544283 C267.971687,43.1476114 267.812098,43.874754 267.492922,44.4358561 C267.173745,44.9969583 266.672181,45.4149222 265.988231,45.6897477 C265.60066,45.8729648 264.888211,46.0103775 263.850887,46.101986 C262.813562,46.1935946 262.02132,46.2623009 261.47416,46.3081052 L261.47416,46.3081052 L261.47416,48.747182 L281.616493,48.747182 L281.616493,46.3081052 C281.046535,46.2852031 280.265692,46.1706924 279.273964,45.9645733 C278.282236,45.7584541 277.592586,45.5523349 277.205014,45.3462158 C276.429871,44.9339775 275.911209,44.4530327 275.649028,43.9033816 C275.386847,43.3537305 275.255756,42.6781177 275.255756,41.8765432 L275.255756,41.8765432 L275.255756,6.73322598 C275.255756,5.97745572 275.386847,5.27894078 275.649028,4.63768116 C275.911209,3.99642154 276.429871,3.53837896 277.205014,3.26355341 C277.660981,3.1032385 278.350631,2.93147254 279.273964,2.7482555 C280.197297,2.56503847 280.97814,2.46197889 281.616493,2.43907676 L281.616493,2.43907676 L281.616493,0 L261.47416,0 L261.47416,2.43907676 C262.112514,2.48488102 262.870558,2.62229379 263.748294,2.85131508 C264.62603,3.08033638 265.372676,3.34371086 265.988231,3.64143854 C266.717778,3.98497048 267.230741,4.46018966 267.527119,5.06709608 C267.823498,5.6740025 267.971687,6.34388978 267.971687,7.07675792 L267.971687,7.07675792 L267.971687,21.8486312 L245.161948,21.8486312 L245.161948,6.73322598 C245.161948,5.97745572 245.293038,5.27894078 245.555219,4.63768116 C245.8174,3.99642154 246.336062,3.53837896 247.111206,3.26355341 C247.567173,3.1032385 248.256822,2.93147254 249.180155,2.7482555 C250.103488,2.56503847 250.884331,2.46197889 251.522685,2.43907676 L251.522685,2.43907676 L251.522685,0 L231.380351,0 L231.380351,2.43907676 C232.018705,2.48488102 232.77675,2.62229379 233.654486,2.85131508 C234.532222,3.08033638 235.278867,3.34371086 235.894423,3.64143854 C236.62397,3.98497048 237.136932,4.46018966 237.433311,5.06709608 C237.729689,5.6740025 237.877878,6.34388978 237.877878,7.07675792 L237.877878,7.07675792 L237.877878,42.2544283 C237.877878,43.1476114 237.71829,43.874754 237.399113,44.4358561 C237.079936,44.9969583 236.578373,45.4149222 235.894423,45.6897477 C235.506851,45.8729648 234.794403,46.0103775 233.757078,46.101986 C232.719754,46.1935946 231.927512,46.2623009 231.380351,46.3081052 L231.380351,46.3081052 L231.380351,48.747182 L251.522685,48.747182 Z M303.673887,49.640365 C306.751663,49.640365 309.476065,48.8387905 311.847092,47.2356414 C314.218119,45.6324924 316.110381,43.4796923 317.523879,40.777241 L317.523879,40.777241 L315.130053,39.3000537 C313.762152,41.7734836 312.342956,43.4854178 310.872463,44.4358561 C309.40197,45.3862945 307.652197,45.8615137 305.623145,45.8615137 C303.63969,45.8615137 301.929814,45.477903 300.493519,44.7106817 C299.057223,43.9434604 297.894508,42.895688 297.005373,41.5673645 C296.093439,40.1932367 295.426588,38.6015387 295.004818,36.7922705 C294.583049,34.9830023 294.372164,32.967615 294.372164,30.7461084 L294.372164,30.7461084 L316.703138,30.7461084 L316.703138,28.4787976 C316.703138,26.4405081 316.446657,24.5510825 315.933694,22.8105207 C315.420732,21.0699588 314.639889,19.5584183 313.591165,18.2758991 C312.496845,16.9246735 311.071948,15.8597245 309.316476,15.0810521 C307.561004,14.3023797 305.452158,13.9130435 302.989937,13.9130435 C300.596111,13.9130435 298.435969,14.4111648 296.509509,15.4074074 C294.583049,16.40365 292.970067,17.7147969 291.670561,19.3408481 C290.325459,21.0356057 289.305233,22.9422079 288.609884,25.0606549 C287.914535,27.1791018 287.56686,29.3376275 287.56686,31.5362319 C287.56686,33.9867597 287.891736,36.3113258 288.541489,38.5099302 C289.191242,40.7085346 290.17727,42.6323135 291.499574,44.2812668 C292.821877,45.9302201 294.503255,47.2356414 296.543706,48.1975309 C298.584158,49.1594203 300.960885,49.640365 303.673887,49.640365 Z M309.966229,27.8604402 L294.372164,27.8604402 C294.508954,24.287708 295.369592,21.4993738 296.954076,19.4954375 C298.538561,17.4915012 300.527716,16.489533 302.921542,16.489533 C304.357837,16.489533 305.531952,16.8216139 306.443885,17.4857756 C307.355819,18.1499374 308.073967,19.0087672 308.598329,20.0622652 C309.077094,21.0470567 309.424768,22.2723206 309.641353,23.7380569 C309.857937,25.2037932 309.966229,26.5779209 309.966229,27.8604402 L309.966229,27.8604402 Z M339.2051,48.747182 L339.2051,46.4798712 C338.543948,46.4340669 337.763105,46.3539095 336.86257,46.2393988 C335.962036,46.1248882 335.226789,45.9531222 334.656831,45.7241009 C333.995679,45.4721775 333.511214,45.0942924 333.203437,44.5904455 C332.895659,44.0865987 332.74177,43.433888 332.74177,42.6323135 L332.74177,42.6323135 L332.74177,22.9135802 C333.744897,21.3104312 334.964609,20.0737162 336.400904,19.2034353 C337.837199,18.3331544 339.091108,17.898014 340.16263,17.898014 C340.094235,18.3102523 340.02014,18.7224906 339.940346,19.1347289 C339.860552,19.5469673 339.820655,20.0050098 339.820655,20.5088567 C339.820655,21.3104312 340.15693,22.0432993 340.829481,22.7074611 C341.502033,23.3716228 342.476662,23.7037037 343.753369,23.7037037 C344.938882,23.7037037 345.816618,23.2513867 346.386577,22.3467525 C346.956535,21.4421184 347.241515,20.4057971 347.241515,19.2377885 C347.241515,17.6575416 346.791247,16.3979245 345.890713,15.4589372 C344.990179,14.5199499 343.821764,14.0504563 342.385468,14.0504563 C340.949173,14.0504563 339.364688,14.531401 337.632014,15.4932904 C335.89934,16.4551798 334.326255,17.8636608 332.912758,19.7187332 L332.912758,19.7187332 L332.74177,19.7187332 L332.74177,14.9436393 L332.263005,14.4626946 L321.046222,15.2184648 L321.046222,17.4514224 C321.730172,17.4972267 322.368526,17.5831097 322.961283,17.7090714 C323.554039,17.8350331 324.067002,18.0354267 324.500171,18.3102523 C325.092927,18.7224906 325.554594,19.2721417 325.88517,19.9592056 C326.215746,20.6462695 326.381034,21.3447844 326.381034,22.0547504 L326.381034,22.0547504 L326.381034,42.9758454 C326.381034,43.8003221 326.227145,44.4702093 325.919367,44.9855072 C325.61159,45.5008052 325.138524,45.8615137 324.500171,46.0676329 C324.0898,46.2050456 323.605336,46.2966541 323.046776,46.3424584 C322.488217,46.3882627 321.946756,46.4340669 321.422395,46.4798712 L321.422395,46.4798712 L321.422395,48.747182 L339.2051,48.747182 Z M361.878049,49.468599 C363.793109,49.468599 365.411791,49.2567543 366.734095,48.8330649 C368.056399,48.4093756 369.458497,47.8883521 370.940389,47.2699946 L370.940389,47.2699946 L370.940389,44.7622115 C370.484422,44.9225264 369.703579,45.0542136 368.597859,45.1572732 C367.49214,45.2603328 366.654301,45.3118626 366.084342,45.3118626 C364.853232,45.3118626 363.872904,45.1400966 363.143357,44.7965647 C362.41381,44.4530327 361.86665,43.9491859 361.501876,43.2850242 C361.114304,42.5750581 360.869222,41.744856 360.76663,40.7944176 C360.664037,39.8439792 360.612741,38.6587941 360.612741,37.2388621 L360.612741,37.2388621 L360.612741,18.3102523 L370.222241,18.3102523 L370.222241,15.0123457 L360.544346,15.0123457 L360.544346,4.46591519 L354.320399,4.46591519 L354.320399,15.0123457 L348.096452,15.0123457 L348.096452,18.3102523 L354.183609,18.3102523 L354.183609,41.2581857 C354.183609,43.8690284 354.759267,45.8901413 355.910583,47.3215244 C357.061899,48.7529075 359.051055,49.468599 361.878049,49.468599 Z M401,48.747182 L401,36.7922705 L398.948149,36.7922705 C398.674569,37.8915727 398.361092,39.0252281 398.007718,40.1932367 C397.654344,41.3612453 397.352266,42.2773305 397.101484,42.9414922 C396.850702,43.6743604 396.491628,44.327071 396.024262,44.8996243 C395.556896,45.4721775 394.867247,45.7813562 393.955313,45.8271605 C392.405026,45.918769 391.134018,45.9760243 390.142291,45.9989265 C389.150563,46.0218286 388.198732,46.0332797 387.286799,46.0332797 C386.146882,46.0332797 385.086759,46.0275541 384.10643,46.0161031 C383.126102,46.004652 382.225567,45.9874754 381.404827,45.9645733 L381.404827,45.9645733 L400.794815,16.2834138 L400.794815,14.8749329 L375.009893,14.8749329 L375.009893,25.2839506 L377.095941,25.2839506 C377.506311,23.3601718 377.990775,21.802827 378.549335,20.6119163 C379.107894,19.4210055 379.706351,18.6995885 380.344704,18.4476651 C381.279436,18.0583289 382.305361,17.8293076 383.42248,17.7606012 C384.539599,17.6918948 386.089886,17.6575416 388.073341,17.6575416 L392.792598,17.6575416 L373.710387,46.9264627 L373.710387,48.747182 L401,48.747182 Z" id="LeewayHertz"></path></g></g></svg> 