<svg xmlns="http://www.w3.org/2000/svg" width="1920" height="511.5" viewBox="0 0 1920 511.5">
  <g id="Footer" transform="translate(0 0.5)">
    <path id="Path_600" data-name="Path 600" d="M0,0H1920V511H0Z" fill="#26458c"/>
    <text id="Lorem_ipsum_dolor_sit_amet_consetetur_sadipscing_elitr_sed_diam_nonumy_eirmod_tempor_invidunt_ut_labore_et_dolore_magna_aliquyam_erat_sed_diam_voluptua._At_vero_eos_et_accusam_et_justo_duo_dolores_et_ea_rebum._Stet_clita_kasd_gubergren_no_sea_takimata_" data-name="Lorem ipsum dolor sit amet, consetetur sadipscing elitr, sed diam nonumy eirmod tempor invidunt ut labore et dolore magna aliquyam erat, sed diam voluptua. At vero eos et accusam et justo duo dolores et ea rebum. Stet clita kasd gubergren, no sea takimata " transform="translate(140 184)" fill="#fff" font-size="16" font-family="Poppins-Regular, Poppins"><tspan x="0" y="17">Lorem ipsum dolor sit amet, consetetur sadipscing elitr, sed diam </tspan><tspan x="0" y="39">nonumy eirmod tempor invidunt ut labore et dolore magna </tspan><tspan x="0" y="61">aliquyam erat, sed diam voluptua. At vero eos et accusam et justo </tspan><tspan x="0" y="83">duo dolores et ea rebum. Stet clita kasd gubergren, no sea </tspan><tspan x="0" y="105">takimata sanctus est Lorem ipsum dolor sit amet. </tspan></text>
    <text id="Play" transform="translate(830 84)" fill="#fff" font-size="16" font-family="Poppins-Regular, Poppins"><tspan x="0" y="17">Play</tspan></text>
    <text id="About_" data-name="About " transform="translate(1106 84)" fill="#fff" font-size="16" font-family="Poppins-Regular, Poppins"><tspan x="0" y="17">About </tspan></text>
    <text id="Twitter" transform="translate(1520 127)" fill="#fff" font-size="16" font-family="Poppins-Regular, Poppins"><tspan x="0" y="17">Twitter</tspan></text>
    <text id="Community" transform="translate(1520 84)" fill="#fff" font-size="16" font-family="Poppins-Regular, Poppins"><tspan x="0" y="17">Community</tspan></text>
    <text id="Facebook" transform="translate(1520 170)" fill="#fff" font-size="16" font-family="Poppins-Regular, Poppins"><tspan x="0" y="17">Facebook</tspan></text>
    <text id="Redditt" transform="translate(1520 213)" fill="#fff" font-size="16" font-family="Poppins-Regular, Poppins"><tspan x="0" y="17">Redditt</tspan></text>
    <text id="Telegram" transform="translate(1520 256)" fill="#fff" font-size="16" font-family="Poppins-Regular, Poppins"><tspan x="0" y="17">Telegram</tspan></text>
    <text id="Create" transform="translate(830 127)" fill="#fff" font-size="16" font-family="Poppins-Regular, Poppins"><tspan x="0" y="17">Create</tspan></text>
    <text id="Developers_Documentation" data-name="Developers Documentation" transform="translate(1106 127)" fill="#fff" font-size="16" font-family="Poppins-Regular, Poppins"><tspan x="0" y="17">Developers Documentation</tspan></text>
    <text id="Distribute" transform="translate(830 213)" fill="#fff" font-size="16" font-family="Poppins-Regular, Poppins"><tspan x="0" y="17">Distribute</tspan></text>
    <text id="Terms_of_use" data-name="Terms of use" transform="translate(1106 213)" fill="#fff" font-size="16" font-family="Poppins-Regular, Poppins"><tspan x="0" y="17">Terms of use</tspan></text>
    <text id="Sponsor" transform="translate(830 170)" fill="#fff" font-size="16" font-family="Poppins-Regular, Poppins"><tspan x="0" y="17">Sponsor</tspan></text>
    <text id="Privacy_Policy" data-name="Privacy Policy" transform="translate(1106 170)" fill="#fff" font-size="16" font-family="Poppins-Regular, Poppins"><tspan x="0" y="17">Privacy Policy</tspan></text>
    <text id="Retail" transform="translate(830 256)" fill="#fff" font-size="16" font-family="Poppins-Regular, Poppins"><tspan x="0" y="17">Retail</tspan></text>
    <text id="Help" transform="translate(1106 256)" fill="#fff" font-size="16" font-family="Poppins-Regular, Poppins"><tspan x="0" y="17">Help</tspan></text>
    <line id="Line_1" data-name="Line 1" x2="1640" transform="translate(140 398)" fill="none" stroke="#3d61b0" stroke-width="1"/>
    <line id="Line_19" data-name="Line 19" x2="1920" fill="none" stroke="#989898" stroke-width="1"/>
    <text id="Lottery_of_the_People_2022" data-name="Lottery of the People © 2022" transform="translate(960 458)" fill="#fff" font-size="16" font-family="Poppins-Regular, Poppins"><tspan x="-110" y="0">Lottery of the People © 2022</tspan></text>
    <g id="Logo-White" transform="translate(140 66.976)">
      <g id="Group_812" data-name="Group 812" transform="translate(-140 -2487)">
        <text id="LOTTERY" transform="translate(234 2527)" fill="#fff" font-size="38" font-family="Poppins-Bold, Poppins" font-weight="700"><tspan x="0" y="0">LOTTERY</tspan></text>
        <text id="OF_THE_PEOPLE" data-name="OF THE PEOPLE" transform="translate(234 2557)" fill="#fff" font-size="22" font-family="Poppins-Medium, Poppins" font-weight="500"><tspan x="0" y="0">OF THE PEOPLE</tspan></text>
        <g id="Group_1" data-name="Group 1" transform="translate(140 2500.943)">
          <path id="Path_4" data-name="Path 4" d="M0,0H23.509V23.509H6.929A6.929,6.929,0,0,1,0,16.58Z" transform="translate(0 18.346)" fill="#fff"/>
          <circle id="Ellipse_1" data-name="Ellipse 1" cx="8.267" cy="8.267" r="8.267" transform="translate(3.543 0)" fill="#fff"/>
        </g>
        <g id="Group_2" data-name="Group 2" transform="translate(206.137 2495.039) rotate(90)">
          <path id="Path_1" data-name="Path 1" d="M0,0H23.509V23.509H6.929A6.929,6.929,0,0,1,0,16.58Z" transform="translate(0 18.378)" fill="#fff"/>
          <circle id="Ellipse_1-2" data-name="Ellipse 1" cx="8.267" cy="8.267" r="8.267" transform="translate(3.543 0)" fill="#fff"/>
        </g>
        <g id="Group_3" data-name="Group 3" transform="translate(212.01 2561.176) rotate(180)">
          <path id="Path_2" data-name="Path 2" d="M0,0H23.509V23.509H6.929A6.929,6.929,0,0,1,0,16.58Z" transform="translate(0 18.378)" fill="#fff"/>
          <circle id="Ellipse_1-3" data-name="Ellipse 1" cx="8.267" cy="8.267" r="8.267" transform="translate(3.511 0)" fill="#fff"/>
        </g>
        <g id="Group_4" data-name="Group 4" transform="translate(145.906 2567.049) rotate(-90)">
          <path id="Path_3" data-name="Path 3" d="M0,0H23.509V23.509H6.929A6.929,6.929,0,0,1,0,16.58Z" transform="translate(0 18.346)" fill="#fff"/>
          <circle id="Ellipse_1-4" data-name="Ellipse 1" cx="8.267" cy="8.267" r="8.267" transform="translate(3.511 0)" fill="#fff"/>
        </g>
      </g>
    </g>
  </g>
</svg>
