<svg xmlns="http://www.w3.org/2000/svg" width="153.718" height="166.323" viewBox="0 0 153.718 166.323">
  <g id="Group_606" data-name="Group 606" transform="translate(-364.477 -2139.722)">
    <path id="Path_533" data-name="Path 533" d="M796,1515.366v18.4" transform="translate(-355.765 658.351)" fill="none" stroke="#04c9f2" stroke-width="2" stroke-dasharray="3 2"/>
    <path id="Path_534" data-name="Path 534" d="M796,1515.366v18.4" transform="translate(-355.765 738.279)" fill="none" stroke="#04c9f2" stroke-width="2" stroke-dasharray="3 2"/>
    <path id="Path_535" data-name="Path 535" d="M749.527,1565.841h12.6" transform="translate(-351.054 651.819)" fill="none" stroke="#04c9f2" stroke-width="2" stroke-dasharray="3 2"/>
    <path id="Path_536" data-name="Path 536" d="M749.527,1565.841h12.6" transform="translate(-277.926 651.819)" fill="none" stroke="#04c9f2" stroke-width="2" stroke-dasharray="3 2"/>
    <path id="Path_537" data-name="Path 537" d="M774.01,1498.017l-37.2,44.728" transform="translate(-349.409 660.597)" fill="none" stroke="#04c9f2" stroke-width="2" stroke-dasharray="3 2"/>
    <path id="Path_538" data-name="Path 538" d="M736.813,1498.017l37.2,44.728" transform="translate(-280.94 660.597)" fill="none" stroke="#04c9f2" stroke-width="2" stroke-dasharray="3 2"/>
    <path id="Path_539" data-name="Path 539" d="M774.01,1542.745l-37.2-44.728" transform="translate(-349.409 736.337)" fill="none" stroke="#04c9f2" stroke-width="2" stroke-dasharray="3 2"/>
    <path id="Path_540" data-name="Path 540" d="M736.813,1542.745l37.2-44.728" transform="translate(-280.94 736.337)" fill="none" stroke="#04c9f2" stroke-width="2" stroke-dasharray="3 2"/>
    <path id="Path_529" data-name="Path 529" d="M215.728,128.3a17,17,0,1,0,17,17A17.019,17.019,0,0,0,215.728,128.3Zm-8.652,29.2a8.669,8.669,0,0,1,17.3,0,14.865,14.865,0,0,1-17.3,0Zm4.818-15.584a3.835,3.835,0,1,1,3.835,3.835A3.84,3.84,0,0,1,211.893,141.918Zm14.318,14.06a10.7,10.7,0,0,0-8.8-8.468,5.85,5.85,0,1,0-3.367,0,10.7,10.7,0,0,0-8.8,8.468,14.982,14.982,0,1,1,20.968,0Z" transform="translate(224.531 2011.422)" fill="#ffdb0a"/>
    <path id="Path_530" data-name="Path 530" d="M215.728,128.3a17,17,0,1,0,17,17A17.019,17.019,0,0,0,215.728,128.3Zm-8.652,29.2a8.669,8.669,0,0,1,17.3,0,14.865,14.865,0,0,1-17.3,0Zm4.818-15.584a3.835,3.835,0,1,1,3.835,3.835A3.84,3.84,0,0,1,211.893,141.918Zm14.318,14.06a10.7,10.7,0,0,0-8.8-8.468,5.85,5.85,0,1,0-3.367,0,10.7,10.7,0,0,0-8.8,8.468,14.982,14.982,0,1,1,20.968,0Z" transform="translate(224.531 2143.749)" fill="#ffdb0a"/>
    <path id="Path_531" data-name="Path 531" d="M215.728,128.3a17,17,0,1,0,17,17A17.019,17.019,0,0,0,215.728,128.3Zm-8.652,29.2a8.669,8.669,0,0,1,17.3,0,14.865,14.865,0,0,1-17.3,0Zm4.818-15.584a3.835,3.835,0,1,1,3.835,3.835A3.84,3.84,0,0,1,211.893,141.918Zm14.318,14.06a10.7,10.7,0,0,0-8.8-8.468,5.85,5.85,0,1,0-3.367,0,10.7,10.7,0,0,0-8.8,8.468,14.982,14.982,0,1,1,20.968,0Z" transform="translate(285.469 2072.362)" fill="#ffdb0a"/>
    <path id="Path_532" data-name="Path 532" d="M215.728,128.3a17,17,0,1,0,17,17A17.019,17.019,0,0,0,215.728,128.3Zm-8.652,29.2a8.669,8.669,0,0,1,17.3,0,14.865,14.865,0,0,1-17.3,0Zm4.818-15.584a3.835,3.835,0,1,1,3.835,3.835A3.84,3.84,0,0,1,211.893,141.918Zm14.318,14.06a10.7,10.7,0,0,0-8.8-8.468,5.85,5.85,0,1,0-3.367,0,10.7,10.7,0,0,0-8.8,8.468,14.982,14.982,0,1,1,20.968,0Z" transform="translate(165.747 2072.362)" fill="#ffdb0a"/>
    <path id="Path_528" data-name="Path 528" d="M230.9,128.3a32.175,32.175,0,1,0,32.175,32.175A32.214,32.214,0,0,0,230.9,128.3Zm-16.378,55.276a16.409,16.409,0,0,1,32.756,0,28.137,28.137,0,0,1-32.756,0Zm9.119-29.5a7.258,7.258,0,1,1,7.258,7.258A7.268,7.268,0,0,1,223.647,154.077Zm27.1,26.613a20.255,20.255,0,0,0-16.657-16.029,11.074,11.074,0,1,0-6.374,0,20.255,20.255,0,0,0-16.657,16.029,28.359,28.359,0,1,1,39.689,0Z" transform="translate(209.731 2061.161)" fill="#ff6142"/>
  </g>
</svg>
