<svg xmlns="http://www.w3.org/2000/svg" xmlns:xlink="http://www.w3.org/1999/xlink" width="63" height="575.625" viewBox="0 0 63 575.625">
  <defs>
    <clipPath id="clip-path">
      <rect id="Rectangle_675" data-name="Rectangle 675" width="61" height="139" fill="#fff" stroke="#707070" stroke-width="1"/>
    </clipPath>
    <clipPath id="clip-path-2">
      <rect id="Rectangle_676" data-name="Rectangle 676" width="49" height="96" transform="translate(0 -0.025)" fill="#fff" stroke="#707070" stroke-width="1"/>
    </clipPath>
    <clipPath id="clip-path-3">
      <rect id="Rectangle_677" data-name="Rectangle 677" width="49" height="107" transform="translate(-21574 -11182)" fill="#fff"/>
    </clipPath>
    <clipPath id="clip-path-4">
      <path id="Path_703" data-name="Path 703" d="M-21526.7-11207.953l-58.145,57.844v-57.844Z" transform="translate(21584.84 11207.953)" fill="#fff"/>
    </clipPath>
    <clipPath id="clip-path-5">
      <path id="Path_705" data-name="Path 705" d="M-21584.84-11150.109l58.145-57.844v57.844Z" transform="translate(21584.84 11207.953)" fill="#ff6142"/>
    </clipPath>
  </defs>
  <g id="Group_909" data-name="Group 909" transform="translate(-136 -149.375)">
    <g id="Group_852" data-name="Group 852" transform="translate(-4 -21)">
      <path id="Rectangle-Copy-2" d="M0,0H56.145L0,56.145Z" transform="translate(198.145 226.52) rotate(180)" fill="#00c9f2"/>
      <path id="Rectangle-Copy-2-2" data-name="Rectangle-Copy-2" d="M0,56.145H56.145L0,0Z" transform="translate(142 226.52)" fill="#00c9f2"/>
    </g>
    <path id="Path_702" data-name="Path 702" d="M-22068.3-11104.682l30.523-16.7,15.6,8.323V-11097l-16.719,8.74Z" transform="translate(22209 11436.32)" fill="#04c9f2"/>
    <g id="Mask_Group_33" data-name="Mask Group 33" transform="translate(138 377)" clip-path="url(#clip-path)">
      <g id="Group_713" data-name="Group 713" transform="translate(-53.361 13.92)">
        <path id="Path" d="M53.939,107.878a53.939,53.939,0,1,1,53.939-53.939,53.959,53.959,0,0,1-53.939,53.939" transform="translate(0 0)" fill="#ff6142"/>
        <path id="Path-2" data-name="Path" d="M50.22,77.189a26.97,26.97,0,1,1,26.97-26.97,26.979,26.979,0,0,1-26.97,26.97" transform="translate(3.72 3.72)" fill="#3d61b0"/>
      </g>
    </g>
    <g id="Mask_Group_34" data-name="Mask Group 34" transform="translate(138 435.025)" clip-path="url(#clip-path-2)">
      <ellipse id="Ellipse_75" data-name="Ellipse 75" cx="42" cy="41.5" rx="42" ry="41.5" transform="translate(-42 5.975)" fill="#ffdb0a"/>
    </g>
    <g id="Mask_Group_35" data-name="Mask Group 35" transform="translate(21712 11800)" clip-path="url(#clip-path-3)">
      <circle id="Ellipse_76" data-name="Ellipse 76" cx="40" cy="40" r="40" transform="translate(-21614 -11169)" fill="#ff6142"/>
    </g>
    <g id="Group_853" data-name="Group 853">
      <g id="Mask_Group_36" data-name="Mask Group 36" transform="translate(136 531)" clip-path="url(#clip-path-4)">
        <rect id="Rectangle" width="53.966" height="53.966" transform="translate(1.778 1.7)" fill="#fff"/>
      </g>
      <g id="Mask_Group_37" data-name="Mask Group 37" transform="translate(136 531)" clip-path="url(#clip-path-5)">
        <rect id="Rectangle-2" data-name="Rectangle" width="53.966" height="53.966" transform="translate(2.4 2.178)" fill="#ff6142"/>
      </g>
    </g>
  </g>
</svg>
