<svg xmlns="http://www.w3.org/2000/svg" width="190.134" height="117.357" viewBox="0 0 190.134 117.357">
  <g id="Group_682" data-name="Group 682" transform="translate(-1507.215 -1212.013)">
    <g id="Group_601" data-name="Group 601" transform="translate(1607.843 1212.513)">
      <path id="Path_467" data-name="Path 467" d="M187.728,191.313H112.559a6.927,6.927,0,0,1-6.918-6.918v-8.6a3.381,3.381,0,0,1,2.132-3.086,7.374,7.374,0,0,0,0-13.6,3.381,3.381,0,0,1-2.132-3.086v-8.584a6.94,6.94,0,0,1,6.932-6.932h75.156a6.927,6.927,0,0,1,6.918,6.918v8.6a3.381,3.381,0,0,1-2.132,3.086,7.374,7.374,0,0,0,0,13.6,3.381,3.381,0,0,1,2.132,3.086v8.6a6.927,6.927,0,0,1-6.918,6.918ZM112.572,142.36a5.084,5.084,0,0,0-5.078,5.077v8.584a1.517,1.517,0,0,0,1,1.376,9.228,9.228,0,0,1,0,17.023,1.517,1.517,0,0,0-1,1.376v8.6a5.07,5.07,0,0,0,5.064,5.064h75.168a5.07,5.07,0,0,0,5.064-5.064v-8.6a1.517,1.517,0,0,0-1-1.376,9.228,9.228,0,0,1,0-17.023,1.517,1.517,0,0,0,1-1.376v-8.6a5.07,5.07,0,0,0-5.064-5.064Z" transform="translate(-105.641 -140.506)" fill="#ffdb0a" stroke="#ffdb0a" stroke-width="1"/>
      <path id="Path_468" data-name="Path 468" d="M222.933,217.9H181.563a4.991,4.991,0,0,1-4.985-4.985v-25.6a4.991,4.991,0,0,1,4.985-4.985h41.369a4.99,4.99,0,0,1,4.985,4.985v25.6a4.99,4.99,0,0,1-4.985,4.985Zm-41.369-33.717a3.134,3.134,0,0,0-3.131,3.131v25.6a3.134,3.134,0,0,0,3.131,3.131h41.369a3.134,3.134,0,0,0,3.131-3.131v-25.6a3.134,3.134,0,0,0-3.131-3.131Z" transform="translate(-163.66 -174.713)" fill="#ffdb0a" stroke="#ffdb0a" stroke-width="1"/>
      <path id="Path_469" data-name="Path 469" d="M212.726,274.263a2.051,2.051,0,0,1-2.015-2.4l.29-1.687-1.229-1.193a2.046,2.046,0,0,1,1.135-3.491l1.694-.247.758-1.534a2.045,2.045,0,0,1,3.669,0l.758,1.534,1.7.247a2.047,2.047,0,0,1,1.138,3.5l-1.226,1.2.29,1.687a2.048,2.048,0,0,1-2.967,2.158l-1.515-.8-1.516.8h0a2.043,2.043,0,0,1-.96.233Zm2.47-9.837a.181.181,0,0,0-.173.108l-.973,1.972a.929.929,0,0,1-.7.507l-2.176.316a.184.184,0,0,0-.156.132.178.178,0,0,0,.048.2l1.576,1.537h0a.928.928,0,0,1,.268.82l-.371,2.167h0a.192.192,0,0,0,.278.2l1.947-1.02h0a.929.929,0,0,1,.862,0l1.947,1.02h0a.192.192,0,0,0,.2-.014.194.194,0,0,0,.076-.188l-.371-2.168a.925.925,0,0,1,.267-.82l1.576-1.537a.192.192,0,0,0-.106-.328l-2.178-.316a.927.927,0,0,1-.7-.507l-.973-1.972h0a.18.18,0,0,0-.175-.108Z" transform="translate(-190.303 -240.341)" fill="#ffdb0a" stroke="#ffdb0a" stroke-width="1"/>
      <path id="Path_470" data-name="Path 470" d="M363.127,274.249a2.052,2.052,0,0,1-2.015-2.4l.29-1.687-1.226-1.2h0a2.046,2.046,0,0,1,1.135-3.49L363,265.23l.758-1.534a2.045,2.045,0,0,1,3.669,0l.758,1.534,1.694.247a2.047,2.047,0,0,1,1.135,3.5l-1.226,1.2.289,1.68a2.047,2.047,0,0,1-2.966,2.158l-1.515-.8-1.516.8a2.048,2.048,0,0,1-.957.24Zm2.47-3.009a.918.918,0,0,1,.431.107l1.947,1.02h0a.179.179,0,0,0,.2-.014.186.186,0,0,0,.078-.186L367.884,270h0a.928.928,0,0,1,.266-.82l1.576-1.537a.192.192,0,0,0-.107-.328L367.442,267a.927.927,0,0,1-.7-.507l-.973-1.972h0a.192.192,0,0,0-.344,0l-.977,1.972a.927.927,0,0,1-.7.507l-2.177.316a.193.193,0,0,0-.107.328l1.576,1.537h0a.926.926,0,0,1,.266.82l-.371,2.167a.191.191,0,0,0,.279.2l1.947-1.02h0a.921.921,0,0,1,.431-.107Z" transform="translate(-313.315 -240.328)" fill="#ffdb0a" stroke="#ffdb0a" stroke-width="1"/>
      <path id="Path_471" data-name="Path 471" d="M274.536,230.13a2.643,2.643,0,0,1-2.6-3.085l.486-2.83-2.055-2a2.636,2.636,0,0,1,1.461-4.5l2.84-.413,1.271-2.574h0a2.636,2.636,0,0,1,4.729,0l1.27,2.573,2.841.413h0a2.636,2.636,0,0,1,1.46,4.5l-2.054,2,.485,2.83h0a2.635,2.635,0,0,1-3.825,2.782l-2.54-1.336-2.54,1.336a2.639,2.639,0,0,1-1.231.3Zm3.77-3.616a.929.929,0,0,1,.431.106l2.972,1.563h0a.782.782,0,0,0,1.135-.825l-.568-3.31h0a.929.929,0,0,1,.267-.821l2.4-2.344h0a.782.782,0,0,0-.433-1.334l-3.323-.483a.927.927,0,0,1-.7-.507l-1.483-3.011h0a.784.784,0,0,0-1.4,0l-1.483,3.011h0a.927.927,0,0,1-.7.507l-3.322.483h0a.782.782,0,0,0-.434,1.334l2.405,2.344h0a.927.927,0,0,1,.266.821l-.568,3.31h0a.782.782,0,0,0,1.134.825l2.967-1.564a.93.93,0,0,1,.431-.1Z" transform="translate(-239.719 -200.009)" fill="#ffdb0a" stroke="#ffdb0a" stroke-width="1"/>
      <path id="Path_472" data-name="Path 472" d="M492.887,145.713a.927.927,0,0,1-.927-.927V142a.927.927,0,1,1,1.854,0v2.781a.925.925,0,0,1-.927.927Z" transform="translate(-421.605 -140.973)" fill="#ffdb09" stroke="#ffdb0a" stroke-width="1"/>
      <path id="Path_473" data-name="Path 473" d="M492.887,222.8a.927.927,0,0,1-.927-.927v-6.158a.927.927,0,1,1,1.854,0v6.158a.925.925,0,0,1-.927.927Zm0-12.315a.927.927,0,0,1-.927-.927V203.4a.927.927,0,1,1,1.854,0v6.158a.927.927,0,0,1-.927.927Zm0-12.315a.927.927,0,0,1-.927-.928v-6.157a.927.927,0,1,1,1.854,0v6.157a.927.927,0,0,1-.927.928Z" transform="translate(-421.605 -181.113)" fill="#ffdb0a" stroke="#ffda0d" stroke-width="1"/>
      <path id="Path_474" data-name="Path 474" d="M492.887,397.653a.927.927,0,0,1-.927-.927v-2.781a.927.927,0,0,1,1.854,0v2.781a.927.927,0,0,1-.927.927Z" transform="translate(-421.605 -347.031)" fill="#ffdb0a" stroke="#ffdb0a" stroke-width="1"/>
    </g>
    <g id="Group_660" data-name="Group 660" transform="translate(1507.715 1278.062)">
      <path id="Path_467-2" data-name="Path 467" d="M187.728,191.313H112.559a6.927,6.927,0,0,1-6.918-6.918v-8.6a3.381,3.381,0,0,1,2.132-3.086,7.374,7.374,0,0,0,0-13.6,3.381,3.381,0,0,1-2.132-3.086v-8.584a6.94,6.94,0,0,1,6.932-6.932h75.156a6.927,6.927,0,0,1,6.918,6.918v8.6a3.381,3.381,0,0,1-2.132,3.086,7.374,7.374,0,0,0,0,13.6,3.381,3.381,0,0,1,2.132,3.086v8.6a6.927,6.927,0,0,1-6.918,6.918ZM112.572,142.36a5.084,5.084,0,0,0-5.078,5.077v8.584a1.517,1.517,0,0,0,1,1.376,9.228,9.228,0,0,1,0,17.023,1.517,1.517,0,0,0-1,1.376v8.6a5.07,5.07,0,0,0,5.064,5.064h75.168a5.07,5.07,0,0,0,5.064-5.064v-8.6a1.517,1.517,0,0,0-1-1.376,9.228,9.228,0,0,1,0-17.023,1.517,1.517,0,0,0,1-1.376v-8.6a5.07,5.07,0,0,0-5.064-5.064Z" transform="translate(-105.641 -140.506)" fill="#ffdb0a" stroke="#ffdb0a" stroke-width="1"/>
      <path id="Path_468-2" data-name="Path 468" d="M222.933,217.9H181.563a4.991,4.991,0,0,1-4.985-4.985v-25.6a4.991,4.991,0,0,1,4.985-4.985h41.369a4.99,4.99,0,0,1,4.985,4.985v25.6a4.99,4.99,0,0,1-4.985,4.985Zm-41.369-33.717a3.134,3.134,0,0,0-3.131,3.131v25.6a3.134,3.134,0,0,0,3.131,3.131h41.369a3.134,3.134,0,0,0,3.131-3.131v-25.6a3.134,3.134,0,0,0-3.131-3.131Z" transform="translate(-163.66 -174.713)" fill="#ffdb0a" stroke="#ffdb0a" stroke-width="1"/>
      <path id="Path_469-2" data-name="Path 469" d="M212.726,274.263a2.051,2.051,0,0,1-2.015-2.4l.29-1.687-1.229-1.193a2.046,2.046,0,0,1,1.135-3.491l1.694-.247.758-1.534a2.045,2.045,0,0,1,3.669,0l.758,1.534,1.7.247a2.047,2.047,0,0,1,1.138,3.5l-1.226,1.2.29,1.687a2.048,2.048,0,0,1-2.967,2.158l-1.515-.8-1.516.8h0a2.043,2.043,0,0,1-.96.233Zm2.47-9.837a.181.181,0,0,0-.173.108l-.973,1.972a.929.929,0,0,1-.7.507l-2.176.316a.184.184,0,0,0-.156.132.178.178,0,0,0,.048.2l1.576,1.537h0a.928.928,0,0,1,.268.82l-.371,2.167h0a.192.192,0,0,0,.278.2l1.947-1.02h0a.929.929,0,0,1,.862,0l1.947,1.02h0a.192.192,0,0,0,.2-.014.194.194,0,0,0,.076-.188l-.371-2.168a.925.925,0,0,1,.267-.82l1.576-1.537a.192.192,0,0,0-.106-.328l-2.178-.316a.927.927,0,0,1-.7-.507l-.973-1.972h0a.18.18,0,0,0-.175-.108Z" transform="translate(-190.303 -240.341)" fill="#ffdb0a" stroke="#ffdb0a" stroke-width="1"/>
      <path id="Path_470-2" data-name="Path 470" d="M363.127,274.249a2.052,2.052,0,0,1-2.015-2.4l.29-1.687-1.226-1.2h0a2.046,2.046,0,0,1,1.135-3.49L363,265.23l.758-1.534a2.045,2.045,0,0,1,3.669,0l.758,1.534,1.694.247a2.047,2.047,0,0,1,1.135,3.5l-1.226,1.2.289,1.68a2.047,2.047,0,0,1-2.966,2.158l-1.515-.8-1.516.8a2.048,2.048,0,0,1-.957.24Zm2.47-3.009a.918.918,0,0,1,.431.107l1.947,1.02h0a.179.179,0,0,0,.2-.014.186.186,0,0,0,.078-.186L367.884,270h0a.928.928,0,0,1,.266-.82l1.576-1.537a.192.192,0,0,0-.107-.328L367.442,267a.927.927,0,0,1-.7-.507l-.973-1.972h0a.192.192,0,0,0-.344,0l-.977,1.972a.927.927,0,0,1-.7.507l-2.177.316a.193.193,0,0,0-.107.328l1.576,1.537h0a.926.926,0,0,1,.266.82l-.371,2.167a.191.191,0,0,0,.279.2l1.947-1.02h0a.921.921,0,0,1,.431-.107Z" transform="translate(-313.315 -240.328)" fill="#ffdb0a" stroke="#ffdb0a" stroke-width="1"/>
      <path id="Path_471-2" data-name="Path 471" d="M274.536,230.13a2.643,2.643,0,0,1-2.6-3.085l.486-2.83-2.055-2a2.636,2.636,0,0,1,1.461-4.5l2.84-.413,1.271-2.574h0a2.636,2.636,0,0,1,4.729,0l1.27,2.573,2.841.413h0a2.636,2.636,0,0,1,1.46,4.5l-2.054,2,.485,2.83h0a2.635,2.635,0,0,1-3.825,2.782l-2.54-1.336-2.54,1.336a2.639,2.639,0,0,1-1.231.3Zm3.77-3.616a.929.929,0,0,1,.431.106l2.972,1.563h0a.782.782,0,0,0,1.135-.825l-.568-3.31h0a.929.929,0,0,1,.267-.821l2.4-2.344h0a.782.782,0,0,0-.433-1.334l-3.323-.483a.927.927,0,0,1-.7-.507l-1.483-3.011h0a.784.784,0,0,0-1.4,0l-1.483,3.011h0a.927.927,0,0,1-.7.507l-3.322.483h0a.782.782,0,0,0-.434,1.334l2.405,2.344h0a.927.927,0,0,1,.266.821l-.568,3.31h0a.782.782,0,0,0,1.134.825l2.967-1.564a.93.93,0,0,1,.431-.1Z" transform="translate(-239.719 -200.009)" fill="#ffdb0a" stroke="#ffdb0a" stroke-width="1"/>
      <path id="Path_472-2" data-name="Path 472" d="M492.887,145.713a.927.927,0,0,1-.927-.927V142a.927.927,0,1,1,1.854,0v2.781a.925.925,0,0,1-.927.927Z" transform="translate(-421.605 -140.973)" fill="#ffdb09" stroke="#ffdb0a" stroke-width="1"/>
      <path id="Path_473-2" data-name="Path 473" d="M492.887,222.8a.927.927,0,0,1-.927-.927v-6.158a.927.927,0,1,1,1.854,0v6.158a.925.925,0,0,1-.927.927Zm0-12.315a.927.927,0,0,1-.927-.927V203.4a.927.927,0,1,1,1.854,0v6.158a.927.927,0,0,1-.927.927Zm0-12.315a.927.927,0,0,1-.927-.928v-6.157a.927.927,0,1,1,1.854,0v6.157a.927.927,0,0,1-.927.928Z" transform="translate(-421.605 -181.113)" fill="#ffdb0a" stroke="#ffda0d" stroke-width="1"/>
      <path id="Path_474-2" data-name="Path 474" d="M492.887,397.653a.927.927,0,0,1-.927-.927v-2.781a.927.927,0,0,1,1.854,0v2.781a.927.927,0,0,1-.927.927Z" transform="translate(-421.605 -347.031)" fill="#ffdb0a" stroke="#ffdb0a" stroke-width="1"/>
    </g>
    <path id="Path_467-3" data-name="Path 467" d="M187.728,191.313H112.559a6.927,6.927,0,0,1-6.918-6.918v-8.6a3.381,3.381,0,0,1,2.132-3.086,7.374,7.374,0,0,0,0-13.6,3.381,3.381,0,0,1-2.132-3.086v-8.584a6.94,6.94,0,0,1,6.932-6.932h75.156a6.927,6.927,0,0,1,6.918,6.918v8.6a3.381,3.381,0,0,1-2.132,3.086,7.374,7.374,0,0,0,0,13.6,3.381,3.381,0,0,1,2.132,3.086v8.6a6.927,6.927,0,0,1-6.918,6.918ZM112.572,142.36a5.084,5.084,0,0,0-5.078,5.077v8.584a1.517,1.517,0,0,0,1,1.376,9.228,9.228,0,0,1,0,17.023,1.517,1.517,0,0,0-1,1.376v8.6a5.07,5.07,0,0,0,5.064,5.064h75.168a5.07,5.07,0,0,0,5.064-5.064v-8.6a1.517,1.517,0,0,0-1-1.376,9.228,9.228,0,0,1,0-17.023,1.517,1.517,0,0,0,1-1.376v-8.6a5.07,5.07,0,0,0-5.064-5.064Z" transform="translate(1402.074 1072.007)" fill="#ff6142" stroke="#ff6142" stroke-width="1"/>
    <path id="Path_468-3" data-name="Path 468" d="M222.933,217.9H181.563a4.991,4.991,0,0,1-4.985-4.985v-25.6a4.991,4.991,0,0,1,4.985-4.985h41.369a4.99,4.99,0,0,1,4.985,4.985v25.6a4.99,4.99,0,0,1-4.985,4.985Zm-41.369-33.717a3.134,3.134,0,0,0-3.131,3.131v25.6a3.134,3.134,0,0,0,3.131,3.131h41.369a3.134,3.134,0,0,0,3.131-3.131v-25.6a3.134,3.134,0,0,0-3.131-3.131Z" transform="translate(1344.055 1037.8)" fill="#ff6142" stroke="#ff6142" stroke-width="1"/>
    <path id="Path_469-3" data-name="Path 469" d="M212.726,274.263a2.051,2.051,0,0,1-2.015-2.4l.29-1.687-1.229-1.193a2.046,2.046,0,0,1,1.135-3.491l1.694-.247.758-1.534a2.045,2.045,0,0,1,3.669,0l.758,1.534,1.7.247a2.047,2.047,0,0,1,1.138,3.5l-1.226,1.2.29,1.687a2.048,2.048,0,0,1-2.967,2.158l-1.515-.8-1.516.8h0a2.043,2.043,0,0,1-.96.233Zm2.47-9.837a.181.181,0,0,0-.173.108l-.973,1.972a.929.929,0,0,1-.7.507l-2.176.316a.184.184,0,0,0-.156.132.178.178,0,0,0,.048.2l1.576,1.537h0a.928.928,0,0,1,.268.82l-.371,2.167h0a.192.192,0,0,0,.278.2l1.947-1.02h0a.929.929,0,0,1,.862,0l1.947,1.02h0a.192.192,0,0,0,.2-.014.194.194,0,0,0,.076-.188l-.371-2.168a.925.925,0,0,1,.267-.82l1.576-1.537a.192.192,0,0,0-.106-.328l-2.178-.316a.927.927,0,0,1-.7-.507l-.973-1.972h0a.18.18,0,0,0-.175-.108Z" transform="translate(1317.413 972.172)" fill="#ff6142" stroke="#ff6142" stroke-width="1"/>
    <path id="Path_470-3" data-name="Path 470" d="M363.127,274.249a2.052,2.052,0,0,1-2.015-2.4l.29-1.687-1.226-1.2h0a2.046,2.046,0,0,1,1.135-3.49L363,265.23l.758-1.534a2.045,2.045,0,0,1,3.669,0l.758,1.534,1.694.247a2.047,2.047,0,0,1,1.135,3.5l-1.226,1.2.289,1.68a2.047,2.047,0,0,1-2.966,2.158l-1.515-.8-1.516.8a2.048,2.048,0,0,1-.957.24Zm2.47-3.009a.918.918,0,0,1,.431.107l1.947,1.02h0a.179.179,0,0,0,.2-.014.186.186,0,0,0,.078-.186L367.884,270h0a.928.928,0,0,1,.266-.82l1.576-1.537a.192.192,0,0,0-.107-.328L367.442,267a.927.927,0,0,1-.7-.507l-.973-1.972h0a.192.192,0,0,0-.344,0l-.977,1.972a.927.927,0,0,1-.7.507l-2.177.316a.193.193,0,0,0-.107.328l1.576,1.537h0a.926.926,0,0,1,.266.82l-.371,2.167a.191.191,0,0,0,.279.2l1.947-1.02h0a.921.921,0,0,1,.431-.107Z" transform="translate(1194.399 972.185)" fill="#ff6142" stroke="#ff6041" stroke-width="1"/>
    <path id="Path_471-3" data-name="Path 471" d="M274.536,230.13a2.643,2.643,0,0,1-2.6-3.085l.486-2.83-2.055-2a2.636,2.636,0,0,1,1.461-4.5l2.84-.413,1.271-2.574h0a2.636,2.636,0,0,1,4.729,0l1.27,2.573,2.841.413h0a2.636,2.636,0,0,1,1.46,4.5l-2.054,2,.485,2.83h0a2.635,2.635,0,0,1-3.825,2.782l-2.54-1.336-2.54,1.336a2.639,2.639,0,0,1-1.231.3Zm3.77-3.616a.929.929,0,0,1,.431.106l2.972,1.563h0a.782.782,0,0,0,1.135-.825l-.568-3.31h0a.929.929,0,0,1,.267-.821l2.4-2.344h0a.782.782,0,0,0-.433-1.334l-3.323-.483a.927.927,0,0,1-.7-.507l-1.483-3.011h0a.784.784,0,0,0-1.4,0l-1.483,3.011h0a.927.927,0,0,1-.7.507l-3.322.483h0a.782.782,0,0,0-.434,1.334l2.405,2.344h0a.927.927,0,0,1,.266.821l-.568,3.31h0a.782.782,0,0,0,1.134.825l2.967-1.564a.93.93,0,0,1,.431-.1Z" transform="translate(1267.996 1012.504)" fill="#ff6142" stroke="#ff6142" stroke-width="1"/>
    <path id="Path_472-3" data-name="Path 472" d="M492.887,145.713a.927.927,0,0,1-.927-.927V142a.927.927,0,1,1,1.854,0v2.781a.925.925,0,0,1-.927.927Z" transform="translate(1086.11 1071.54)" fill="#ff6142" stroke="#ff6142" stroke-width="1"/>
    <path id="Path_473-3" data-name="Path 473" d="M492.887,222.8a.927.927,0,0,1-.927-.927v-6.158a.927.927,0,1,1,1.854,0v6.158a.925.925,0,0,1-.927.927Zm0-12.315a.927.927,0,0,1-.927-.927V203.4a.927.927,0,1,1,1.854,0v6.158a.927.927,0,0,1-.927.927Zm0-12.315a.927.927,0,0,1-.927-.928v-6.157a.927.927,0,1,1,1.854,0v6.157a.927.927,0,0,1-.927.928Z" transform="translate(1086.11 1031.4)" fill="#ff6142" stroke="#ff6142" stroke-width="1"/>
    <path id="Path_474-3" data-name="Path 474" d="M492.887,397.653a.927.927,0,0,1-.927-.927v-2.781a.927.927,0,0,1,1.854,0v2.781a.927.927,0,0,1-.927.927Z" transform="translate(1086.11 865.482)" fill="#ff6142" stroke="#ff6142" stroke-width="1"/>
  </g>
</svg>
