<svg xmlns="http://www.w3.org/2000/svg" width="90" height="90" viewBox="0 0 90 90">
  <g id="Group_686" data-name="Group 686" transform="translate(-768 -1986)">
    <g id="Group_674" data-name="Group 674" transform="translate(768 1986)">
      <g id="Ellipse_41" data-name="Ellipse 41" fill="none" stroke="#04c9f2" stroke-width="2">
        <circle cx="45" cy="45" r="45" stroke="none"/>
        <circle cx="45" cy="45" r="44" fill="none"/>
      </g>
      <circle id="Ellipse_40" data-name="Ellipse 40" cx="35" cy="35" r="35" transform="translate(10 10)" fill="#04c9f2"/>
    </g>
    <path id="noun-member-4201619" d="M117.1,137.16a5.664,5.664,0,0,0-3.087,10.389,9.768,9.768,0,0,0-4.614,3.28,8.131,8.131,0,0,0-2.151-1.186,4.763,4.763,0,1,0-5.613,0,8.247,8.247,0,0,0-5.373,7.749v2.5a.719.719,0,0,0,.721.717h10.984a.667.667,0,0,0,.08,0h18.108a.664.664,0,0,0,.08,0h10.985a.719.719,0,0,0,.716-.717v-2.5a8.245,8.245,0,0,0-5.368-7.749,4.764,4.764,0,1,0-5.612,0,8.13,8.13,0,0,0-2.154,1.189,9.759,9.759,0,0,0-4.611-3.282A5.664,5.664,0,0,0,117.1,137.16Zm0,1.437a4.224,4.224,0,0,1,.055,8.447l-.055,0-.055,0a4.224,4.224,0,0,1,.055-8.447Zm-12.66,3.8a3.369,3.369,0,0,1,.037,6.737H104.4a3.369,3.369,0,0,1,.037-6.737Zm25.321,0a3.369,3.369,0,0,1,.037,6.737h-.073a3.369,3.369,0,0,1,.037-6.737Zm-12.716,6.081.055,0,.055,0a8.332,8.332,0,0,1,8.284,8.393v2.307H108.762v-2.307a8.331,8.331,0,0,1,8.282-8.393Zm-12.66,2.1.055,0,.055,0a6.657,6.657,0,0,1,4.108,1.447,9.827,9.827,0,0,0-1.277,4.851v2.3H97.7v-1.783a6.749,6.749,0,0,1,6.687-6.818Zm25.321,0,.055,0,.055,0a6.749,6.749,0,0,1,6.687,6.818v1.782H126.87v-2.3a9.833,9.833,0,0,0-1.274-4.849,6.656,6.656,0,0,1,4.11-1.45Z" transform="translate(695.466 1882.083)" fill="#fff" stroke="#fff" stroke-width="1"/>
  </g>
</svg>
