<svg xmlns="http://www.w3.org/2000/svg" width="90" height="90" viewBox="0 0 90 90">
  <g id="Group_687" data-name="Group 687" transform="translate(-1040 -1986)">
    <g id="Group_675" data-name="Group 675" transform="translate(1040 1986)">
      <g id="Ellipse_41" data-name="Ellipse 41" fill="none" stroke="#04c9f2" stroke-width="2">
        <circle cx="45" cy="45" r="45" stroke="none"/>
        <circle cx="45" cy="45" r="44" fill="none"/>
      </g>
      <circle id="Ellipse_40" data-name="Ellipse 40" cx="35" cy="35" r="35" transform="translate(10 10)" fill="#04c9f2"/>
    </g>
    <g id="noun-qr-code-scan-4346878" transform="translate(1071.909 2008.909)">
      <path id="Path_155" data-name="Path 155" d="M224.966,35H204.412a3.162,3.162,0,0,0-3.162,3.162V76.108a3.162,3.162,0,0,0,3.162,3.162h20.554a3.162,3.162,0,0,0,3.162-3.162V38.162A3.162,3.162,0,0,0,224.966,35Zm-4.743,1.581v1.581a.79.79,0,0,1-.791.791h-9.486a.791.791,0,0,1-.791-.791V36.581Zm-15.811,0h3.162v1.581a2.371,2.371,0,0,0,2.372,2.372h9.486a2.371,2.371,0,0,0,2.372-2.372V36.581h3.162a1.581,1.581,0,0,1,1.581,1.581V73.737H202.831V38.162a1.581,1.581,0,0,1,1.581-1.581Zm20.554,41.108H204.412a1.581,1.581,0,0,1-1.581-1.581v-.791h23.716v.791a1.581,1.581,0,0,1-1.581,1.581Z" transform="translate(-201.25 -35)" fill="#fff" stroke="#fff" stroke-width="0.5"/>
      <path id="Path_156" data-name="Path 156" d="M254.541,190.865a.79.79,0,0,0,.791-.791v-4.743h4.743a.791.791,0,0,0,0-1.581h-5.534a.791.791,0,0,0-.791.791v5.534a.79.79,0,0,0,.791.791Z" transform="translate(-249.007 -170.311)" fill="#fff" stroke="#fff" stroke-width="0.5"/>
      <path id="Path_157" data-name="Path 157" d="M368.291,185.331h4.743v4.743a.791.791,0,1,0,1.581,0v-5.534a.79.79,0,0,0-.791-.791h-5.534a.791.791,0,1,0,0,1.581Z" transform="translate(-352.48 -170.311)" fill="#fff" stroke="#fff" stroke-width="0.5"/>
      <path id="Path_158" data-name="Path 158" d="M381.784,297.5a.791.791,0,0,0-.79.791v4.743h-3.953a.791.791,0,1,0,0,1.581h4.743a.79.79,0,0,0,.791-.79v-5.534a.79.79,0,0,0-.791-.791Z" transform="translate(-360.439 -273.784)" fill="#fff" stroke="#fff" stroke-width="0.5"/>
      <path id="Path_159" data-name="Path 159" d="M254.541,304.615h5.534a.791.791,0,1,0,0-1.581h-4.743v-4.743a.791.791,0,1,0-1.581,0v5.534a.79.79,0,0,0,.791.79Z" transform="translate(-249.007 -273.784)" fill="#fff" stroke="#fff" stroke-width="0.5"/>
      <path id="Path_160" data-name="Path 160" d="M289.541,218.75a.791.791,0,0,0-.791.791V222.7a.79.79,0,0,0,.791.791H292.7a.79.79,0,0,0,.791-.791v-3.162a.79.79,0,0,0-.791-.791Zm2.372,3.162h-1.581v-1.581h1.581Z" transform="translate(-280.845 -202.149)" fill="#fff" stroke="#fff" stroke-width="0.5"/>
      <path id="Path_161" data-name="Path 161" d="M292.7,288.75h-3.162a.791.791,0,0,0-.791.791V292.7a.79.79,0,0,0,.791.791H292.7a.79.79,0,0,0,.791-.791v-3.162a.79.79,0,0,0-.791-.791Zm-.791,3.162h-1.581v-1.581h1.581Z" transform="translate(-280.845 -265.824)" fill="#fff" stroke="#fff" stroke-width="0.5"/>
      <path id="Path_162" data-name="Path 162" d="M359.541,223.493H362.7a.79.79,0,0,0,.791-.791v-3.162a.79.79,0,0,0-.791-.791h-3.162a.791.791,0,0,0-.791.791V222.7a.79.79,0,0,0,.791.791Zm.791-3.162h1.581v1.581h-1.581Z" transform="translate(-344.52 -202.149)" fill="#fff" stroke="#fff" stroke-width="0.5"/>
      <path id="Path_163" data-name="Path 163" d="M377.041,309.412h1.581a.79.79,0,0,0,.791-.791v-1.581a.791.791,0,1,0-1.581,0v.791h-.791a.791.791,0,1,0,0,1.581Z" transform="translate(-360.439 -281.743)" fill="#fff" stroke="#fff" stroke-width="0.5"/>
      <path id="Path_164" data-name="Path 164" d="M359.541,291.912a.79.79,0,0,0,.791-.791v-.791h.791a.791.791,0,0,0,0-1.581h-1.581a.791.791,0,0,0-.791.791v1.581a.79.79,0,0,0,.791.791Z" transform="translate(-344.52 -265.824)" fill="#fff" stroke="#fff" stroke-width="0.5"/>
    </g>
  </g>
</svg>
