<svg xmlns="http://www.w3.org/2000/svg" width="117.069" height="117.069" viewBox="0 0 117.069 117.069">
  <g id="Group_681" data-name="Group 681" transform="translate(-726.25 -1204.499)">
    <g id="Group_604" data-name="Group 604" transform="translate(727.25 1205.499)">
      <path id="Path_481" data-name="Path 481" d="M335.813,136.41a6.323,6.323,0,1,0,6.325,6.321A6.321,6.321,0,0,0,335.813,136.41Zm0,11.379a5.057,5.057,0,1,1,5.057-5.057A5.061,5.061,0,0,1,335.813,147.789Z" transform="translate(-278.278 -123.133)" fill="#04c9f2" stroke="#04c9f2" stroke-width="2"/>
      <path id="Path_482" data-name="Path 482" d="M458.877,395.21a6.322,6.322,0,1,0-6.323-6.321A6.325,6.325,0,0,0,458.877,395.21Zm0-11.377a5.058,5.058,0,1,1-5.057,5.057A5.064,5.064,0,0,1,458.877,383.833Z" transform="translate(-363.41 -293.419)" fill="#04c9f2" stroke="#04c9f2" stroke-width="2"/>
      <path id="Path_483" data-name="Path 483" d="M240.464,93.332H163.33V208.4H278.4V93.332ZM202.532,94.6H239.2v36.672H202.532ZM239.2,169.2H202.532V132.531H239.2ZM164.6,94.6h36.672v36.672H164.6Zm0,37.935h36.672V169.2H164.6Zm36.672,74.607H164.6V170.467h36.672Zm37.935,0H202.532V170.467H239.2Zm37.935,0H240.467V170.467h36.672Zm0-37.935H240.467V132.531h36.672Zm-36.672-37.935V94.6h36.672v36.672Z" transform="translate(-163.33 -93.332)" fill="#ff6142" stroke="#ff6142" stroke-width="2"/>
      <path id="Path_484" data-name="Path 484" d="M213.412,142.577l5.081-5.081a.605.605,0,1,0-.857-.855l-5.082,5.081-4.817-4.82a.606.606,0,0,0-.857.857l4.82,4.817-5.115,5.115a.6.6,0,1,0,.855.855l5.113-5.113,5.466,5.463a.605.605,0,0,0,.855-.857Z" transform="translate(-193.128 -123.169)" fill="#ffdb0a" stroke="#ffdb0a" stroke-width="2"/>
      <path id="Path_485" data-name="Path 485" d="M330.1,271.8a.592.592,0,0,0,.427-.181l5.113-5.111,5.466,5.458a.6.6,0,0,0,.427.178.606.606,0,0,0,.427-1.033l-5.461-5.46,5.081-5.081a.605.605,0,0,0-.855-.857l-5.082,5.082-4.82-4.82a.6.6,0,0,0-.855.855l4.82,4.82-5.115,5.115a.6.6,0,0,0,0,.854.57.57,0,0,0,.425.182Z" transform="translate(-278.284 -208.309)" fill="#ffdb0a" stroke="#ffdb0a" stroke-width="2"/>
      <path id="Path_486" data-name="Path 486" d="M207.017,394.878a.588.588,0,0,0,.427-.181l5.113-5.111,5.466,5.46a.6.6,0,0,0,.427.181.588.588,0,0,0,.427-.181.6.6,0,0,0,0-.854l-5.463-5.463,5.081-5.081a.607.607,0,0,0-.857-.86l-5.082,5.084-4.817-4.822a.6.6,0,1,0-.854.855l4.817,4.822-5.115,5.113a.6.6,0,0,0,0,.854.589.589,0,0,0,.427.182Z" transform="translate(-193.132 -293.451)" fill="#ffdb0a" stroke="#ffdb0a" stroke-width="2"/>
    </g>
  </g>
</svg>
