<svg xmlns="http://www.w3.org/2000/svg" width="90" height="90" viewBox="0 0 90 90">
  <g id="Group_684" data-name="Group 684" transform="translate(-213.535 -1985.535)">
    <g id="Group_672" data-name="Group 672" transform="translate(214 1986)">
      <g id="Ellipse_41" data-name="Ellipse 41" transform="translate(-0.465 -0.465)" fill="none" stroke="#04c9f2" stroke-width="2">
        <circle cx="45" cy="45" r="45" stroke="none"/>
        <circle cx="45" cy="45" r="44" fill="none"/>
      </g>
      <circle id="Ellipse_40" data-name="Ellipse 40" cx="35" cy="35" r="35" transform="translate(9.535 9.535)" fill="#04c9f2"/>
    </g>
    <g id="noun-designer-2068893" transform="translate(236.831 2004.216)">
      <path id="Path_137" data-name="Path 137" d="M328.661,233.9l-.8.8-.779-.8a.739.739,0,0,0-1.045,1.045l1.31,1.31a.738.738,0,0,0,1.045,0l1.314-1.3a.744.744,0,0,0-1.045-1.059Z" transform="translate(-305.349 -213.977)" fill="#fff" stroke="#fff" stroke-width="0.5"/>
      <path id="Path_138" data-name="Path 138" d="M274.064,154.656a2.953,2.953,0,0,0,2.909-3.444,1.185,1.185,0,0,1,1.565,0,2.954,2.954,0,1,0,.613-1.354,2.584,2.584,0,0,0-2.794,0,2.953,2.953,0,1,0-2.292,4.8Zm7.382-4.429a1.476,1.476,0,1,1-1.044.432A1.477,1.477,0,0,1,281.445,150.227Zm-7.382,0a1.476,1.476,0,1,1-1.044.432A1.477,1.477,0,0,1,274.064,150.227Z" transform="translate(-255.243 -136.206)" fill="#fff" stroke="#fff" stroke-width="0.5"/>
      <path id="Path_139" data-name="Path 139" d="M124.337,46.6l3.554-4.8h0a1.476,1.476,0,0,0-1.185-2.355h-2.215v-14.3a1.476,1.476,0,0,0-1.476-1.476h-9.5a21.448,21.448,0,0,0,2.056-5.112,13.2,13.2,0,0,0,.41-2.687,5.22,5.22,0,0,0,1.664-2.794c.4-1.587.524-4.909-3.141-9.065C108.308-3,102.561,1.123,100.4,2.68c-.258.185-.48.347-.631.436h0a2.582,2.582,0,0,1-1.074.144c-1.517.026-3.827.067-4.839,4.665-1.229,5.651.852,8.57,1.613,9.411a19.472,19.472,0,0,0,2.008,6.333H88.318a1.476,1.476,0,0,0-1.476,1.476v14.3H84.628A1.476,1.476,0,0,0,83.443,41.8L87,46.6h0a1.739,1.739,0,0,0,1.321.694h34.694a1.775,1.775,0,0,0,1.325-.694Zm.151-5.677H126.7l-2.215,2.99Zm-37.647,2.99-2.215-2.99h2.215ZM95.308,8.239c.738-3.455,2.041-3.477,3.41-3.5a3.531,3.531,0,0,0,1.8-.369c.2-.122.439-.292.738-.506,1.251-.886,3.274-2.336,5.754-2.336,1.9,0,4.06.856,6.382,3.466,3.218,3.647,3.148,6.407,2.816,7.729a3.85,3.85,0,0,1-1.107,1.978,5.322,5.322,0,0,1-.583-3.082.738.738,0,0,0-.794-.823,7.034,7.034,0,0,1-2.746-.284A6.245,6.245,0,0,1,107.591,7.7a.738.738,0,0,0-1.155-.144,7.842,7.842,0,0,1-1.281,1.029l-.033.022h0a11.3,11.3,0,0,1-2.5,1.21,19.725,19.725,0,0,1-4.905.974.753.753,0,0,0-.609,1.048c.03.067.627,1.524-.948,3.982-.72-1.07-1.749-3.44-.849-7.581ZM96.95,17.26a7.3,7.3,0,0,0,1.727-5.079h0a20.3,20.3,0,0,0,4.429-.97,12.782,12.782,0,0,0,2.805-1.358h.022a9.559,9.559,0,0,0,.882-.642,7.51,7.51,0,0,0,3.691,2.717A8.166,8.166,0,0,0,113,12.3a5.847,5.847,0,0,0,.915,3.322,3.183,3.183,0,0,0,.542.579,11.767,11.767,0,0,1-.339,1.993,19.582,19.582,0,0,1-2.322,5.481H99.154a17.79,17.79,0,0,1-2.2-6.411Zm-8.633,7.887h34.694V45.816H88.318Z" transform="translate(-83.153 -0.054)" fill="#fff" stroke="#fff" stroke-width="0.5"/>
      <path id="Path_140" data-name="Path 140" d="M285.905,348.38a5.905,5.905,0,1,0,4.176,1.729A5.905,5.905,0,0,0,285.905,348.38Zm0,10.334a4.429,4.429,0,1,1,3.132-1.3A4.429,4.429,0,0,1,285.905,358.714Z" transform="translate(-263.394 -318.994)" fill="#fff" stroke="#fff" stroke-width="0.5"/>
    </g>
  </g>
</svg>
