<svg id="Logo-White" xmlns="http://www.w3.org/2000/svg" width="258" height="80.049" viewBox="0 0 258 80.049">
  <g id="Group_812" data-name="Group 812" transform="translate(-140 -2487)">
    <text id="LOTTERY" transform="translate(234 2527)" fill="#fff" font-size="38" font-family="Poppins-Bold, Poppins" font-weight="700"><tspan x="0" y="0">LOTTERY</tspan></text>
    <text id="OF_THE_PEOPLE" data-name="OF THE PEOPLE" transform="translate(234 2557)" fill="#fff" font-size="22" font-family="Poppins-Medium, Poppins" font-weight="500"><tspan x="0" y="0">OF THE PEOPLE</tspan></text>
    <g id="Group_1" data-name="Group 1" transform="translate(140 2500.943)">
      <path id="Path_4" data-name="Path 4" d="M0,0H23.509V23.509H6.929A6.929,6.929,0,0,1,0,16.58Z" transform="translate(0 18.346)" fill="#fff"/>
      <circle id="Ellipse_1" data-name="Ellipse 1" cx="8.267" cy="8.267" r="8.267" transform="translate(3.543 0)" fill="#fff"/>
    </g>
    <g id="Group_2" data-name="Group 2" transform="translate(206.137 2495.039) rotate(90)">
      <path id="Path_1" data-name="Path 1" d="M0,0H23.509V23.509H6.929A6.929,6.929,0,0,1,0,16.58Z" transform="translate(0 18.378)" fill="#fff"/>
      <circle id="Ellipse_1-2" data-name="Ellipse 1" cx="8.267" cy="8.267" r="8.267" transform="translate(3.543 0)" fill="#fff"/>
    </g>
    <g id="Group_3" data-name="Group 3" transform="translate(212.01 2561.176) rotate(180)">
      <path id="Path_2" data-name="Path 2" d="M0,0H23.509V23.509H6.929A6.929,6.929,0,0,1,0,16.58Z" transform="translate(0 18.378)" fill="#fff"/>
      <circle id="Ellipse_1-3" data-name="Ellipse 1" cx="8.267" cy="8.267" r="8.267" transform="translate(3.511 0)" fill="#fff"/>
    </g>
    <g id="Group_4" data-name="Group 4" transform="translate(145.906 2567.049) rotate(-90)">
      <path id="Path_3" data-name="Path 3" d="M0,0H23.509V23.509H6.929A6.929,6.929,0,0,1,0,16.58Z" transform="translate(0 18.346)" fill="#fff"/>
      <circle id="Ellipse_1-4" data-name="Ellipse 1" cx="8.267" cy="8.267" r="8.267" transform="translate(3.511 0)" fill="#fff"/>
    </g>
  </g>
</svg>
