<svg xmlns="http://www.w3.org/2000/svg" width="22.232" height="22.233" viewBox="0 0 22.232 22.233">
  <g id="noun-next-arrow-1776684" transform="translate(-80.668 -31.907)">
    <path id="Path_5" data-name="Path 5" d="M122.468,43.024a10.634,10.634,0,0,1-.093,1.4c.01-.066.017-.13.027-.2a10.39,10.39,0,0,1-.72,2.639l.073-.176a10.286,10.286,0,0,1-.717,1.4c-.137.223-.284.443-.438.656l-.1.13c-.02.027-.039.051-.059.076-.078.105.118-.149.037-.047s-.174.218-.264.323a10.383,10.383,0,0,1-1.08,1.1c-.088.078-.179.154-.269.228-.049.042-.1.081-.149.12s-.147.11.047-.037c-.034.024-.069.051-.1.078-.206.154-.419.3-.634.438a10.56,10.56,0,0,1-1.545.813l.176-.073a10.39,10.39,0,0,1-2.639.72l.2-.027a10.633,10.633,0,0,1-2.789,0l.2.027a10.391,10.391,0,0,1-2.639-.72l.176.073a10.285,10.285,0,0,1-1.4-.717c-.223-.137-.443-.284-.656-.438l-.13-.1c-.027-.02-.051-.039-.076-.059-.105-.078.149.118.047.037s-.218-.174-.323-.264a10.383,10.383,0,0,1-1.1-1.08c-.078-.088-.154-.179-.228-.269-.042-.049-.081-.1-.12-.149s-.11-.147.037.047c-.024-.034-.051-.069-.078-.1-.154-.206-.3-.419-.438-.634a10.559,10.559,0,0,1-.813-1.545l.073.176a10.39,10.39,0,0,1-.72-2.639c.01.066.017.13.027.2a10.634,10.634,0,0,1,0-2.789c-.01.066-.017.13-.027.2a10.391,10.391,0,0,1,.72-2.639l-.073.176a10.286,10.286,0,0,1,.717-1.4c.137-.223.284-.443.438-.656l.1-.13c.02-.027.039-.051.059-.076.078-.105-.118.149-.037.047s.174-.218.264-.323a10.385,10.385,0,0,1,1.08-1.1c.088-.078.179-.154.269-.228.049-.042.1-.081.149-.12s.147-.11-.047.037c.034-.024.069-.051.1-.078.206-.154.419-.3.634-.438a10.559,10.559,0,0,1,1.545-.813l-.176.073a10.39,10.39,0,0,1,2.639-.72l-.2.027a10.634,10.634,0,0,1,2.789,0l-.2-.027a10.391,10.391,0,0,1,2.639.72l-.176-.073a10.285,10.285,0,0,1,1.4.717c.223.137.443.284.656.438l.13.1c.027.02.051.039.076.059.105.078-.149-.118-.047-.037s.218.174.323.264a10.384,10.384,0,0,1,1.1,1.08c.078.088.154.179.228.269.042.049.081.1.12.149s.11.147-.037-.047c.024.034.051.069.078.1.154.206.3.419.438.634a10.559,10.559,0,0,1,.813,1.545l-.073-.176a10.389,10.389,0,0,1,.72,2.639c-.01-.066-.017-.13-.027-.2a10.625,10.625,0,0,1,.093,1.393.735.735,0,1,0,1.469,0,11.1,11.1,0,0,0-2.032-6.4,11.33,11.33,0,0,0-5.311-4.055,11.094,11.094,0,0,0-12.313,3.345,11.487,11.487,0,0,0-1.775,2.975,11.108,11.108,0,0,0,5.673,14.238,11.436,11.436,0,0,0,3.416.945,11.1,11.1,0,0,0,12.2-9.252,11.844,11.844,0,0,0,.147-1.79.735.735,0,0,0-1.469,0Z" transform="translate(-21.038)" fill="#3d61b0"/>
    <path id="Path_6" data-name="Path 6" d="M243.206,265.277h8.158a.735.735,0,1,0,0-1.469h-8.158a.735.735,0,0,0,0,1.469Z" transform="translate(-155.501 -221.518)" fill="#3d61b0"/>
    <path id="Path_7" data-name="Path 7" d="M351.2,192.073l1.117,1.1,1.78,1.763.411.406a.734.734,0,0,0,1.038-1.038l-1.117-1.1-1.78-1.763-.411-.406a.734.734,0,1,0-1.038,1.038Z" transform="translate(-259.164 -151.801)" fill="#3d61b0"/>
    <path id="Path_8" data-name="Path 8" d="M352.2,268.519l1.116-1.1,1.78-1.763.411-.406a.734.734,0,1,0-1.038-1.038l-1.116,1.1-1.78,1.763-.411.406a.734.734,0,0,0,1.038,1.038Z" transform="translate(-259.127 -221.7)" fill="#3d61b0"/>
  </g>
</svg>
